G04 #@! TF.FileFunction,Legend,Top*
%FSLAX46Y46*%
G04 Gerber Fmt 4.6, Leading zero omitted, Abs format (unit mm)*
G04 Created by KiCad (PCBNEW 4.0.5) date 2017 April 23, Sunday 17:14:46*
%MOMM*%
%LPD*%
G01*
G04 APERTURE LIST*
%ADD10C,0.100000*%
%ADD11C,0.300000*%
%ADD12C,0.150000*%
%ADD13C,0.200000*%
%ADD14C,0.127000*%
%ADD15C,0.203200*%
%ADD16C,0.152400*%
%ADD17C,0.120000*%
%ADD18C,0.400000*%
%ADD19O,0.610000X1.060000*%
%ADD20O,1.060000X0.610000*%
%ADD21R,1.110000X0.540000*%
%ADD22R,1.082960X1.460000*%
%ADD23R,0.540000X0.960000*%
%ADD24C,0.844200*%
%ADD25R,1.000000X0.800000*%
%ADD26R,1.900000X1.600000*%
%ADD27C,0.800000*%
%ADD28R,1.160000X0.760000*%
%ADD29R,2.210720X2.759360*%
%ADD30R,1.987200X2.292000*%
%ADD31O,1.987200X2.292000*%
%ADD32R,0.960000X1.560000*%
%ADD33R,0.910000X1.320000*%
%ADD34R,1.458880X1.458880*%
%ADD35R,1.560000X0.960000*%
%ADD36C,1.760000*%
%ADD37R,0.660000X1.660000*%
%ADD38R,0.660000X1.560000*%
%ADD39R,1.860200X1.428400*%
%ADD40C,2.760000*%
%ADD41C,1.860000*%
%ADD42C,3.000000*%
%ADD43R,1.260000X1.260000*%
%ADD44R,1.528400X1.960200*%
%ADD45R,2.260000X1.260000*%
%ADD46R,2.150000X1.400000*%
%ADD47R,1.060000X1.010000*%
%ADD48R,1.010000X1.060000*%
G04 APERTURE END LIST*
D10*
D11*
X13078570Y46771428D02*
X14292856Y46771428D01*
X14435713Y46842856D01*
X14507142Y46914285D01*
X14578570Y47057142D01*
X14578570Y47342856D01*
X14507142Y47485714D01*
X14435713Y47557142D01*
X14292856Y47628571D01*
X13078570Y47628571D01*
X14578570Y49057143D02*
X14578570Y48342857D01*
X13078570Y48342857D01*
X14578570Y49557143D02*
X13078570Y49557143D01*
X13078570Y50128571D01*
X13149999Y50271429D01*
X13221428Y50342857D01*
X13364285Y50414286D01*
X13578570Y50414286D01*
X13721428Y50342857D01*
X13792856Y50271429D01*
X13864285Y50128571D01*
X13864285Y49557143D01*
D12*
X20485714Y53471430D02*
X21152381Y53709525D01*
X20485714Y53947621D01*
X21152381Y54852383D02*
X21152381Y54280954D01*
X21152381Y54566668D02*
X20152381Y54566668D01*
X20295238Y54471430D01*
X20390476Y54376192D01*
X20438095Y54280954D01*
X21057143Y55280954D02*
X21104762Y55328573D01*
X21152381Y55280954D01*
X21104762Y55233335D01*
X21057143Y55280954D01*
X21152381Y55280954D01*
X21152381Y56280954D02*
X21152381Y55709525D01*
X21152381Y55995239D02*
X20152381Y55995239D01*
X20295238Y55900001D01*
X20390476Y55804763D01*
X20438095Y55709525D01*
D11*
X15503572Y46785715D02*
X17003572Y47142858D01*
X15932144Y47428572D01*
X17003572Y47714286D01*
X15503572Y48071429D01*
X16217858Y48642858D02*
X16217858Y49142858D01*
X17003572Y49357144D02*
X17003572Y48642858D01*
X15503572Y48642858D01*
X15503572Y49357144D01*
X16575001Y49928572D02*
X16575001Y50642858D01*
X17003572Y49785715D02*
X15503572Y50285715D01*
X17003572Y50785715D01*
X15503572Y51071429D02*
X15503572Y51928572D01*
X17003572Y51500001D02*
X15503572Y51500001D01*
X17003572Y52428572D02*
X15503572Y52428572D01*
X16217858Y52428572D02*
X16217858Y53285715D01*
X17003572Y53285715D02*
X15503572Y53285715D01*
X16217858Y54000001D02*
X16217858Y54500001D01*
X17003572Y54714287D02*
X17003572Y54000001D01*
X15503572Y54000001D01*
X15503572Y54714287D01*
X17003572Y56214287D02*
X16289287Y55714287D01*
X17003572Y55357144D02*
X15503572Y55357144D01*
X15503572Y55928572D01*
X15575001Y56071430D01*
X15646430Y56142858D01*
X15789287Y56214287D01*
X16003572Y56214287D01*
X16146430Y56142858D01*
X16217858Y56071430D01*
X16289287Y55928572D01*
X16289287Y55357144D01*
X19553572Y48928572D02*
X19553572Y48214286D01*
X18053572Y48214286D01*
X18053572Y49714286D02*
X18053572Y50000000D01*
X18125001Y50142858D01*
X18267858Y50285715D01*
X18553572Y50357143D01*
X19053572Y50357143D01*
X19339287Y50285715D01*
X19482144Y50142858D01*
X19553572Y50000000D01*
X19553572Y49714286D01*
X19482144Y49571429D01*
X19339287Y49428572D01*
X19053572Y49357143D01*
X18553572Y49357143D01*
X18267858Y49428572D01*
X18125001Y49571429D01*
X18053572Y49714286D01*
X18125001Y51785715D02*
X18053572Y51642858D01*
X18053572Y51428572D01*
X18125001Y51214287D01*
X18267858Y51071429D01*
X18410715Y51000001D01*
X18696430Y50928572D01*
X18910715Y50928572D01*
X19196430Y51000001D01*
X19339287Y51071429D01*
X19482144Y51214287D01*
X19553572Y51428572D01*
X19553572Y51571429D01*
X19482144Y51785715D01*
X19410715Y51857144D01*
X18910715Y51857144D01*
X18910715Y51571429D01*
X18125001Y53285715D02*
X18053572Y53142858D01*
X18053572Y52928572D01*
X18125001Y52714287D01*
X18267858Y52571429D01*
X18410715Y52500001D01*
X18696430Y52428572D01*
X18910715Y52428572D01*
X19196430Y52500001D01*
X19339287Y52571429D01*
X19482144Y52714287D01*
X19553572Y52928572D01*
X19553572Y53071429D01*
X19482144Y53285715D01*
X19410715Y53357144D01*
X18910715Y53357144D01*
X18910715Y53071429D01*
X18767858Y54000001D02*
X18767858Y54500001D01*
X19553572Y54714287D02*
X19553572Y54000001D01*
X18053572Y54000001D01*
X18053572Y54714287D01*
X19553572Y56214287D02*
X18839287Y55714287D01*
X19553572Y55357144D02*
X18053572Y55357144D01*
X18053572Y55928572D01*
X18125001Y56071430D01*
X18196430Y56142858D01*
X18339287Y56214287D01*
X18553572Y56214287D01*
X18696430Y56142858D01*
X18767858Y56071430D01*
X18839287Y55928572D01*
X18839287Y55357144D01*
X13900000Y2921429D02*
X13900000Y4421429D01*
X14471428Y4421429D01*
X14614286Y4350000D01*
X14685714Y4278571D01*
X14757143Y4135714D01*
X14757143Y3921429D01*
X14685714Y3778571D01*
X14614286Y3707143D01*
X14471428Y3635714D01*
X13900000Y3635714D01*
X15257143Y4421429D02*
X15614286Y2921429D01*
X15900000Y3992857D01*
X16185714Y2921429D01*
X16542857Y4421429D01*
X17971429Y2921429D02*
X17471429Y3635714D01*
X17114286Y2921429D02*
X17114286Y4421429D01*
X17685714Y4421429D01*
X17828572Y4350000D01*
X17900000Y4278571D01*
X17971429Y4135714D01*
X17971429Y3921429D01*
X17900000Y3778571D01*
X17828572Y3707143D01*
X17685714Y3635714D01*
X17114286Y3635714D01*
D12*
X20752381Y37747619D02*
X20276190Y37414285D01*
X20752381Y37176190D02*
X19752381Y37176190D01*
X19752381Y37557143D01*
X19800000Y37652381D01*
X19847619Y37700000D01*
X19942857Y37747619D01*
X20085714Y37747619D01*
X20180952Y37700000D01*
X20228571Y37652381D01*
X20276190Y37557143D01*
X20276190Y37176190D01*
X20228571Y38176190D02*
X20228571Y38509524D01*
X20752381Y38652381D02*
X20752381Y38176190D01*
X19752381Y38176190D01*
X19752381Y38652381D01*
X20704762Y39033333D02*
X20752381Y39176190D01*
X20752381Y39414286D01*
X20704762Y39509524D01*
X20657143Y39557143D01*
X20561905Y39604762D01*
X20466667Y39604762D01*
X20371429Y39557143D01*
X20323810Y39509524D01*
X20276190Y39414286D01*
X20228571Y39223809D01*
X20180952Y39128571D01*
X20133333Y39080952D01*
X20038095Y39033333D01*
X19942857Y39033333D01*
X19847619Y39080952D01*
X19800000Y39128571D01*
X19752381Y39223809D01*
X19752381Y39461905D01*
X19800000Y39604762D01*
X20228571Y40033333D02*
X20228571Y40366667D01*
X20752381Y40509524D02*
X20752381Y40033333D01*
X19752381Y40033333D01*
X19752381Y40509524D01*
X19752381Y40795238D02*
X19752381Y41366667D01*
X20752381Y41080952D02*
X19752381Y41080952D01*
X20228571Y25009524D02*
X20228571Y24676190D01*
X20752381Y24676190D02*
X19752381Y24676190D01*
X19752381Y25152381D01*
X20752381Y26009524D02*
X20752381Y25533333D01*
X19752381Y25533333D01*
X20466667Y26295238D02*
X20466667Y26771429D01*
X20752381Y26200000D02*
X19752381Y26533333D01*
X20752381Y26866667D01*
X20704762Y27152381D02*
X20752381Y27295238D01*
X20752381Y27533334D01*
X20704762Y27628572D01*
X20657143Y27676191D01*
X20561905Y27723810D01*
X20466667Y27723810D01*
X20371429Y27676191D01*
X20323810Y27628572D01*
X20276190Y27533334D01*
X20228571Y27342857D01*
X20180952Y27247619D01*
X20133333Y27200000D01*
X20038095Y27152381D01*
X19942857Y27152381D01*
X19847619Y27200000D01*
X19800000Y27247619D01*
X19752381Y27342857D01*
X19752381Y27580953D01*
X19800000Y27723810D01*
X20752381Y28152381D02*
X19752381Y28152381D01*
X20228571Y28152381D02*
X20228571Y28723810D01*
X20752381Y28723810D02*
X19752381Y28723810D01*
D13*
X5307143Y1278572D02*
X5307143Y1450001D01*
X5350000Y1535715D01*
X5435714Y1621429D01*
X5607143Y1664287D01*
X5907143Y1664287D01*
X6078571Y1621429D01*
X6164286Y1535715D01*
X6207143Y1450001D01*
X6207143Y1278572D01*
X6164286Y1192858D01*
X6078571Y1107144D01*
X5907143Y1064287D01*
X5607143Y1064287D01*
X5435714Y1107144D01*
X5350000Y1192858D01*
X5307143Y1278572D01*
X6207143Y2050001D02*
X5307143Y2050001D01*
X6207143Y2564286D01*
X5307143Y2564286D01*
X5735714Y2992858D02*
X5735714Y3292858D01*
X6207143Y3421429D02*
X6207143Y2992858D01*
X5307143Y2992858D01*
X5307143Y3421429D01*
X6164286Y4450001D02*
X6207143Y4578572D01*
X6207143Y4792858D01*
X6164286Y4878572D01*
X6121429Y4921429D01*
X6035714Y4964286D01*
X5950000Y4964286D01*
X5864286Y4921429D01*
X5821429Y4878572D01*
X5778571Y4792858D01*
X5735714Y4621429D01*
X5692857Y4535715D01*
X5650000Y4492858D01*
X5564286Y4450001D01*
X5478571Y4450001D01*
X5392857Y4492858D01*
X5350000Y4535715D01*
X5307143Y4621429D01*
X5307143Y4835715D01*
X5350000Y4964286D01*
X6207143Y5350001D02*
X5307143Y5350001D01*
X5735714Y5350001D02*
X5735714Y5864286D01*
X6207143Y5864286D02*
X5307143Y5864286D01*
X5307143Y6464286D02*
X5307143Y6635715D01*
X5350000Y6721429D01*
X5435714Y6807143D01*
X5607143Y6850001D01*
X5907143Y6850001D01*
X6078571Y6807143D01*
X6164286Y6721429D01*
X6207143Y6635715D01*
X6207143Y6464286D01*
X6164286Y6378572D01*
X6078571Y6292858D01*
X5907143Y6250001D01*
X5607143Y6250001D01*
X5435714Y6292858D01*
X5350000Y6378572D01*
X5307143Y6464286D01*
X5307143Y7107143D02*
X5307143Y7621429D01*
X6207143Y7364286D02*
X5307143Y7364286D01*
D12*
X26452381Y42295238D02*
X25452381Y42295238D01*
X25452381Y42676191D01*
X25500000Y42771429D01*
X25547619Y42819048D01*
X25642857Y42866667D01*
X25785714Y42866667D01*
X25880952Y42819048D01*
X25928571Y42771429D01*
X25976190Y42676191D01*
X25976190Y42295238D01*
X26452381Y43866667D02*
X25976190Y43533333D01*
X26452381Y43295238D02*
X25452381Y43295238D01*
X25452381Y43676191D01*
X25500000Y43771429D01*
X25547619Y43819048D01*
X25642857Y43866667D01*
X25785714Y43866667D01*
X25880952Y43819048D01*
X25928571Y43771429D01*
X25976190Y43676191D01*
X25976190Y43295238D01*
X25928571Y44295238D02*
X25928571Y44628572D01*
X26452381Y44771429D02*
X26452381Y44295238D01*
X25452381Y44295238D01*
X25452381Y44771429D01*
X26404762Y45152381D02*
X26452381Y45295238D01*
X26452381Y45533334D01*
X26404762Y45628572D01*
X26357143Y45676191D01*
X26261905Y45723810D01*
X26166667Y45723810D01*
X26071429Y45676191D01*
X26023810Y45628572D01*
X25976190Y45533334D01*
X25928571Y45342857D01*
X25880952Y45247619D01*
X25833333Y45200000D01*
X25738095Y45152381D01*
X25642857Y45152381D01*
X25547619Y45200000D01*
X25500000Y45247619D01*
X25452381Y45342857D01*
X25452381Y45580953D01*
X25500000Y45723810D01*
X26404762Y46104762D02*
X26452381Y46247619D01*
X26452381Y46485715D01*
X26404762Y46580953D01*
X26357143Y46628572D01*
X26261905Y46676191D01*
X26166667Y46676191D01*
X26071429Y46628572D01*
X26023810Y46580953D01*
X25976190Y46485715D01*
X25928571Y46295238D01*
X25880952Y46200000D01*
X25833333Y46152381D01*
X25738095Y46104762D01*
X25642857Y46104762D01*
X25547619Y46152381D01*
X25500000Y46200000D01*
X25452381Y46295238D01*
X25452381Y46533334D01*
X25500000Y46676191D01*
X26357143Y47104762D02*
X26404762Y47152381D01*
X26452381Y47104762D01*
X26404762Y47057143D01*
X26357143Y47104762D01*
X26452381Y47104762D01*
X4327381Y54290476D02*
X4327381Y54861905D01*
X5327381Y54576190D02*
X4327381Y54576190D01*
X4803571Y55195238D02*
X4803571Y55528572D01*
X5327381Y55671429D02*
X5327381Y55195238D01*
X4327381Y55195238D01*
X4327381Y55671429D01*
X5327381Y56100000D02*
X4327381Y56100000D01*
X5041667Y56433334D01*
X4327381Y56766667D01*
X5327381Y56766667D01*
X5327381Y57242857D02*
X4327381Y57242857D01*
X4327381Y57623810D01*
X4375000Y57719048D01*
X4422619Y57766667D01*
X4517857Y57814286D01*
X4660714Y57814286D01*
X4755952Y57766667D01*
X4803571Y57719048D01*
X4851190Y57623810D01*
X4851190Y57242857D01*
X6977381Y53980953D02*
X5977381Y53980953D01*
X6453571Y53980953D02*
X6453571Y54552382D01*
X6977381Y54552382D02*
X5977381Y54552382D01*
X5977381Y55028572D02*
X6786905Y55028572D01*
X6882143Y55076191D01*
X6929762Y55123810D01*
X6977381Y55219048D01*
X6977381Y55409525D01*
X6929762Y55504763D01*
X6882143Y55552382D01*
X6786905Y55600001D01*
X5977381Y55600001D01*
X6977381Y56076191D02*
X5977381Y56076191D01*
X6691667Y56409525D01*
X5977381Y56742858D01*
X6977381Y56742858D01*
X6977381Y57219048D02*
X5977381Y57219048D01*
X6977381Y57695238D02*
X5977381Y57695238D01*
X5977381Y57933333D01*
X6025000Y58076191D01*
X6120238Y58171429D01*
X6215476Y58219048D01*
X6405952Y58266667D01*
X6548810Y58266667D01*
X6739286Y58219048D01*
X6834524Y58171429D01*
X6929762Y58076191D01*
X6977381Y57933333D01*
X6977381Y57695238D01*
D13*
X28750000Y50800000D02*
G75*
G03X28750000Y50800000I-100000J0D01*
G01*
D14*
X25950000Y50000000D02*
X25950000Y50450000D01*
X25950000Y50450000D02*
X26400000Y50450000D01*
X26400000Y47550000D02*
X25950000Y47550000D01*
X25950000Y47550000D02*
X25950000Y48000000D01*
X28850000Y48000000D02*
X28850000Y47550000D01*
X28850000Y47550000D02*
X28400000Y47550000D01*
X28850000Y50000000D02*
X28850000Y50450000D01*
X28850000Y50450000D02*
X28400000Y50450000D01*
D15*
X20400000Y14150000D02*
X20400000Y14400000D01*
X21150000Y14400000D02*
X20400000Y14400000D01*
X20250000Y14850000D02*
G75*
G03X20250000Y14850000I-150000J0D01*
G01*
X23400000Y14150000D02*
X23400000Y14400000D01*
X23400000Y14400000D02*
X22650000Y14400000D01*
X22650000Y11400000D02*
X23400000Y11400000D01*
X23400000Y11400000D02*
X23400000Y11650000D01*
X20400000Y11650000D02*
X20400000Y11400000D01*
X20400000Y11400000D02*
X21150000Y11400000D01*
D13*
X7350000Y50199998D02*
G75*
G03X7350000Y50199998I-100000J0D01*
G01*
D16*
X4300000Y50549998D02*
X7400000Y50549998D01*
X4300000Y53649998D02*
X7400000Y53649998D01*
D12*
X7400000Y53499998D02*
X7400000Y53649998D01*
X4300000Y53499998D02*
X4300000Y53649998D01*
X4300000Y50549998D02*
X4300000Y50699998D01*
X7400000Y50549998D02*
X7400000Y50699998D01*
X29960295Y9636745D02*
X29960295Y10636745D01*
X31310295Y10636745D02*
X31310295Y9636745D01*
X20717094Y17203000D02*
X20717094Y19997000D01*
X20145594Y17203000D02*
X23701594Y17203000D01*
X23701594Y17203000D02*
X23701594Y19997000D01*
X23701594Y19997000D02*
X20145594Y19997000D01*
X20145594Y19997000D02*
X20145594Y17203000D01*
X22000000Y32125000D02*
X20800000Y32125000D01*
X20800000Y33875000D02*
X22000000Y33875000D01*
X8866594Y15109178D02*
X8866594Y14109178D01*
X7516594Y14109178D02*
X7516594Y15109178D01*
X10471593Y15105847D02*
X10471593Y14105847D01*
X9121593Y14105847D02*
X9121593Y15105847D01*
X4625000Y41400001D02*
X4625000Y42400001D01*
X5975000Y42400001D02*
X5975000Y41400001D01*
X13975000Y24699999D02*
X13975000Y23699999D01*
X12625000Y23699999D02*
X12625000Y24699999D01*
X8624999Y23700001D02*
X8624999Y24700001D01*
X9974999Y24700001D02*
X9974999Y23700001D01*
X11974999Y24700001D02*
X11974999Y23700001D01*
X10624999Y23700001D02*
X10624999Y24700001D01*
X6624999Y23700000D02*
X6624999Y24700000D01*
X7974999Y24700000D02*
X7974999Y23700000D01*
X27475001Y25665543D02*
X27475001Y26665543D01*
X28825001Y26665543D02*
X28825001Y25665543D01*
X27475000Y22908763D02*
X27475000Y23908763D01*
X28825000Y23908763D02*
X28825000Y22908763D01*
X29960294Y6936747D02*
X29960294Y7936747D01*
X31310294Y7936747D02*
X31310294Y6936747D01*
X17248594Y14192821D02*
X17248594Y15192821D01*
X18598594Y15192821D02*
X18598594Y14192821D01*
X17248594Y11592822D02*
X17248594Y12592822D01*
X18598594Y12592822D02*
X18598594Y11592822D01*
X35925000Y36600000D02*
X35925000Y35600000D01*
X34575000Y35600000D02*
X34575000Y36600000D01*
X33525000Y44550000D02*
X33525000Y43550000D01*
X32175000Y43550000D02*
X32175000Y44550000D01*
X34574999Y30250001D02*
X34574999Y31250001D01*
X35924999Y31250001D02*
X35924999Y30250001D01*
X3800000Y14500000D02*
G75*
G03X3800000Y14500000I-100000J0D01*
G01*
X3950000Y15150000D02*
X3950000Y14650000D01*
X6850000Y15150000D02*
X3950000Y15150000D01*
X6850000Y14650000D02*
X6850000Y15150000D01*
X3950000Y14650000D02*
X6850000Y14650000D01*
X23450001Y25565543D02*
G75*
G03X23450001Y25565543I-100000J0D01*
G01*
X23600001Y26115543D02*
X23600001Y25615543D01*
X26500001Y26115543D02*
X23600001Y26115543D01*
X26500001Y25615543D02*
X26500001Y26115543D01*
X23600001Y25615543D02*
X26500001Y25615543D01*
X1693499Y22803001D02*
X1693499Y25597001D01*
X1121999Y22803001D02*
X4677999Y22803001D01*
X4677999Y22803001D02*
X4677999Y25597001D01*
X4677999Y25597001D02*
X1121999Y25597001D01*
X1121999Y25597001D02*
X1121999Y22803001D01*
X15548594Y12792821D02*
X15548594Y13792821D01*
X16898594Y13792821D02*
X16898594Y12792821D01*
X14300000Y5100000D02*
X17000000Y5100000D01*
X14300000Y6600000D02*
X17000000Y6600000D01*
X15800000Y5700000D02*
X15800000Y5950000D01*
X15800000Y5950000D02*
X15650000Y5800000D01*
X15550000Y6200000D02*
X15550000Y5500000D01*
X15900000Y5850000D02*
X16250000Y5850000D01*
X15550000Y5850000D02*
X15900000Y6200000D01*
X15900000Y6200000D02*
X15900000Y5500000D01*
X15900000Y5500000D02*
X15550000Y5850000D01*
X12875001Y7149999D02*
X12875001Y5949999D01*
X11125001Y5949999D02*
X11125001Y7149999D01*
X33961803Y39850000D02*
G75*
G03X33961803Y39850000I-111803J0D01*
G01*
X34150000Y39550000D02*
X34150000Y41950000D01*
X34150000Y41950000D02*
X36350000Y41950000D01*
X36350000Y41950000D02*
X36350000Y39550000D01*
X36350000Y39550000D02*
X34150000Y39550000D01*
X33641421Y24723333D02*
G75*
G03X33641421Y24723333I-141421J0D01*
G01*
X36300000Y25098333D02*
X36300000Y26548333D01*
X33900000Y24373333D02*
X33900000Y26548333D01*
X2625000Y41399999D02*
X2625000Y42399999D01*
X3975000Y42399999D02*
X3975000Y41399999D01*
D16*
X24284000Y5903000D02*
X24284000Y8697000D01*
X26062000Y5649000D02*
G75*
G03X26316000Y5903000I0J254000D01*
G01*
X26316000Y8697000D02*
G75*
G03X26062000Y8951000I-254000J0D01*
G01*
X24284000Y8697000D02*
G75*
G02X24538000Y8951000I254000J0D01*
G01*
X24538000Y5649000D02*
G75*
G02X24284000Y5903000I0J254000D01*
G01*
X24538000Y5649000D02*
X26062000Y5649000D01*
X24538000Y8951000D02*
X26062000Y8951000D01*
X26316000Y8697000D02*
X26316000Y5903000D01*
D12*
X14300000Y26900000D02*
X-3100000Y26900000D01*
X-3100000Y26900000D02*
X-3100000Y39100000D01*
X-3100000Y39100000D02*
X14300000Y39100000D01*
X14300000Y39100000D02*
X14300000Y26900000D01*
D16*
X21497000Y4834000D02*
X18703000Y4834000D01*
X21751000Y6612000D02*
G75*
G03X21497000Y6866000I-254000J0D01*
G01*
X18703000Y6866000D02*
G75*
G03X18449000Y6612000I0J-254000D01*
G01*
X18703000Y4834000D02*
G75*
G02X18449000Y5088000I0J254000D01*
G01*
X21751000Y5088000D02*
G75*
G02X21497000Y4834000I-254000J0D01*
G01*
X21751000Y5088000D02*
X21751000Y6612000D01*
X18449000Y5088000D02*
X18449000Y6612000D01*
X18703000Y6866000D02*
X21497000Y6866000D01*
D12*
X19300000Y33750000D02*
X16600000Y33750000D01*
X19300000Y32250000D02*
X16600000Y32250000D01*
X17800000Y33150000D02*
X17800000Y32900000D01*
X17800000Y32900000D02*
X17950000Y33050000D01*
X18050000Y32650000D02*
X18050000Y33350000D01*
X17700000Y33000000D02*
X17350000Y33000000D01*
X18050000Y33000000D02*
X17700000Y32650000D01*
X17700000Y32650000D02*
X17700000Y33350000D01*
X17700000Y33350000D02*
X18050000Y33000000D01*
X19400000Y29000000D02*
X19100000Y29000000D01*
X19400000Y24800000D02*
X19100000Y24800000D01*
X16200000Y29000000D02*
X16500000Y29000000D01*
X16200000Y24800000D02*
X16500000Y24800000D01*
X19400000Y24800000D02*
X19400000Y29000000D01*
X16200000Y24800000D02*
X16200000Y29000000D01*
X18650000Y26900000D02*
G75*
G03X18650000Y26900000I-850000J0D01*
G01*
X19400000Y41200000D02*
X19100000Y41200000D01*
X19400000Y37000000D02*
X19100000Y37000000D01*
X16200000Y41200000D02*
X16500000Y41200000D01*
X16200000Y37000000D02*
X16500000Y37000000D01*
X19400000Y37000000D02*
X19400000Y41200000D01*
X16200000Y37000000D02*
X16200000Y41200000D01*
X18650000Y39100000D02*
G75*
G03X18650000Y39100000I-850000J0D01*
G01*
X1550000Y2100000D02*
X1850000Y2100000D01*
X1550000Y6300000D02*
X1850000Y6300000D01*
X4750000Y2100000D02*
X4450000Y2100000D01*
X4750000Y6300000D02*
X4450000Y6300000D01*
X1550000Y6300000D02*
X1550000Y2100000D01*
X4750000Y6300000D02*
X4750000Y2100000D01*
X4000000Y4200000D02*
G75*
G03X4000000Y4200000I-850000J0D01*
G01*
D14*
X28350000Y13475000D02*
X28350000Y13975000D01*
X28350000Y13975000D02*
X28100000Y13975000D01*
X28350000Y10625000D02*
X28350000Y11125000D01*
X28350000Y10625000D02*
X28100000Y10625000D01*
X25650000Y13475000D02*
X25650000Y13975000D01*
X25650000Y13975000D02*
X25900000Y13975000D01*
X25650000Y10625000D02*
X25650000Y11125000D01*
X25650000Y10625000D02*
X25900000Y10625000D01*
D12*
X21400000Y16400000D02*
X22100000Y16400000D01*
X22100000Y15200000D02*
X21400000Y15200000D01*
X24550001Y23158761D02*
X25250001Y23158761D01*
X25250001Y21958761D02*
X24550001Y21958761D01*
X33450002Y41500000D02*
X33450002Y40800000D01*
X32250002Y40800000D02*
X32250002Y41500000D01*
X32200000Y25650000D02*
X32200000Y26350000D01*
X33400000Y26350000D02*
X33400000Y25650000D01*
X27400000Y52350000D02*
X27400000Y53050000D01*
X28600000Y53050000D02*
X28600000Y52350000D01*
X2250000Y52500000D02*
X2250000Y53200000D01*
X3450000Y53200000D02*
X3450000Y52500000D01*
X22258888Y9459562D02*
X21558888Y9459562D01*
X21558888Y10659562D02*
X22258888Y10659562D01*
X1900000Y14150000D02*
X1900000Y14850000D01*
X3100000Y14850000D02*
X3100000Y14150000D01*
X22258888Y7959567D02*
X21558888Y7959567D01*
X21558888Y9159567D02*
X22258888Y9159567D01*
X29202381Y49438095D02*
X30011905Y49438095D01*
X30107143Y49485714D01*
X30154762Y49533333D01*
X30202381Y49628571D01*
X30202381Y49819048D01*
X30154762Y49914286D01*
X30107143Y49961905D01*
X30011905Y50009524D01*
X29202381Y50009524D01*
X29202381Y50961905D02*
X29202381Y50485714D01*
X29678571Y50438095D01*
X29630952Y50485714D01*
X29583333Y50580952D01*
X29583333Y50819048D01*
X29630952Y50914286D01*
X29678571Y50961905D01*
X29773810Y51009524D01*
X30011905Y51009524D01*
X30107143Y50961905D01*
X30154762Y50914286D01*
X30202381Y50819048D01*
X30202381Y50580952D01*
X30154762Y50485714D01*
X30107143Y50438095D01*
X24552381Y9473810D02*
X23552381Y9473810D01*
X24457143Y10521429D02*
X24504762Y10473810D01*
X24552381Y10330953D01*
X24552381Y10235715D01*
X24504762Y10092857D01*
X24409524Y9997619D01*
X24314286Y9950000D01*
X24123810Y9902381D01*
X23980952Y9902381D01*
X23790476Y9950000D01*
X23695238Y9997619D01*
X23600000Y10092857D01*
X23552381Y10235715D01*
X23552381Y10330953D01*
X23600000Y10473810D01*
X23647619Y10521429D01*
X24552381Y11473810D02*
X24552381Y10902381D01*
X24552381Y11188095D02*
X23552381Y11188095D01*
X23695238Y11092857D01*
X23790476Y10997619D01*
X23838095Y10902381D01*
D10*
X7802381Y51414284D02*
X8611905Y51414284D01*
X8707143Y51457141D01*
X8754762Y51499998D01*
X8802381Y51585712D01*
X8802381Y51757141D01*
X8754762Y51842855D01*
X8707143Y51885712D01*
X8611905Y51928569D01*
X7802381Y51928569D01*
X8135714Y52742855D02*
X8802381Y52742855D01*
X7754762Y52528569D02*
X8469048Y52314284D01*
X8469048Y52871426D01*
D12*
X29702381Y9607143D02*
X29226190Y9273809D01*
X29702381Y9035714D02*
X28702381Y9035714D01*
X28702381Y9416667D01*
X28750000Y9511905D01*
X28797619Y9559524D01*
X28892857Y9607143D01*
X29035714Y9607143D01*
X29130952Y9559524D01*
X29178571Y9511905D01*
X29226190Y9416667D01*
X29226190Y9035714D01*
X29702381Y10559524D02*
X29702381Y9988095D01*
X29702381Y10273809D02*
X28702381Y10273809D01*
X28845238Y10178571D01*
X28940476Y10083333D01*
X28988095Y9988095D01*
X28797619Y10940476D02*
X28750000Y10988095D01*
X28702381Y11083333D01*
X28702381Y11321429D01*
X28750000Y11416667D01*
X28797619Y11464286D01*
X28892857Y11511905D01*
X28988095Y11511905D01*
X29130952Y11464286D01*
X29702381Y10892857D01*
X29702381Y11511905D01*
X25392223Y18242857D02*
X25344604Y18195238D01*
X25201747Y18147619D01*
X25106509Y18147619D01*
X24963651Y18195238D01*
X24868413Y18290476D01*
X24820794Y18385714D01*
X24773175Y18576190D01*
X24773175Y18719048D01*
X24820794Y18909524D01*
X24868413Y19004762D01*
X24963651Y19100000D01*
X25106509Y19147619D01*
X25201747Y19147619D01*
X25344604Y19100000D01*
X25392223Y19052381D01*
X25725556Y19147619D02*
X26344604Y19147619D01*
X26011270Y18766667D01*
X26154128Y18766667D01*
X26249366Y18719048D01*
X26296985Y18671429D01*
X26344604Y18576190D01*
X26344604Y18338095D01*
X26296985Y18242857D01*
X26249366Y18195238D01*
X26154128Y18147619D01*
X25868413Y18147619D01*
X25773175Y18195238D01*
X25725556Y18242857D01*
X21233334Y34197619D02*
X20900000Y34673810D01*
X20661905Y34197619D02*
X20661905Y35197619D01*
X21042858Y35197619D01*
X21138096Y35150000D01*
X21185715Y35102381D01*
X21233334Y35007143D01*
X21233334Y34864286D01*
X21185715Y34769048D01*
X21138096Y34721429D01*
X21042858Y34673810D01*
X20661905Y34673810D01*
X22185715Y34197619D02*
X21614286Y34197619D01*
X21900000Y34197619D02*
X21900000Y35197619D01*
X21804762Y35054762D01*
X21709524Y34959524D01*
X21614286Y34911905D01*
X8652381Y12183332D02*
X8176190Y11849998D01*
X8652381Y11611903D02*
X7652381Y11611903D01*
X7652381Y11992856D01*
X7700000Y12088094D01*
X7747619Y12135713D01*
X7842857Y12183332D01*
X7985714Y12183332D01*
X8080952Y12135713D01*
X8128571Y12088094D01*
X8176190Y11992856D01*
X8176190Y11611903D01*
X7652381Y12516665D02*
X7652381Y13135713D01*
X8033333Y12802379D01*
X8033333Y12945237D01*
X8080952Y13040475D01*
X8128571Y13088094D01*
X8223810Y13135713D01*
X8461905Y13135713D01*
X8557143Y13088094D01*
X8604762Y13040475D01*
X8652381Y12945237D01*
X8652381Y12659522D01*
X8604762Y12564284D01*
X8557143Y12516665D01*
X10252380Y12183333D02*
X9776189Y11849999D01*
X10252380Y11611904D02*
X9252380Y11611904D01*
X9252380Y11992857D01*
X9299999Y12088095D01*
X9347618Y12135714D01*
X9442856Y12183333D01*
X9585713Y12183333D01*
X9680951Y12135714D01*
X9728570Y12088095D01*
X9776189Y11992857D01*
X9776189Y11611904D01*
X9585713Y13040476D02*
X10252380Y13040476D01*
X9204761Y12802380D02*
X9919047Y12564285D01*
X9919047Y13183333D01*
X5752381Y44083334D02*
X5276190Y43750000D01*
X5752381Y43511905D02*
X4752381Y43511905D01*
X4752381Y43892858D01*
X4800000Y43988096D01*
X4847619Y44035715D01*
X4942857Y44083334D01*
X5085714Y44083334D01*
X5180952Y44035715D01*
X5228571Y43988096D01*
X5276190Y43892858D01*
X5276190Y43511905D01*
X4752381Y44988096D02*
X4752381Y44511905D01*
X5228571Y44464286D01*
X5180952Y44511905D01*
X5133333Y44607143D01*
X5133333Y44845239D01*
X5180952Y44940477D01*
X5228571Y44988096D01*
X5323810Y45035715D01*
X5561905Y45035715D01*
X5657143Y44988096D01*
X5704762Y44940477D01*
X5752381Y44845239D01*
X5752381Y44607143D01*
X5704762Y44511905D01*
X5657143Y44464286D01*
X13752381Y21833333D02*
X13276190Y21499999D01*
X13752381Y21261904D02*
X12752381Y21261904D01*
X12752381Y21642857D01*
X12800000Y21738095D01*
X12847619Y21785714D01*
X12942857Y21833333D01*
X13085714Y21833333D01*
X13180952Y21785714D01*
X13228571Y21738095D01*
X13276190Y21642857D01*
X13276190Y21261904D01*
X12752381Y22690476D02*
X12752381Y22499999D01*
X12800000Y22404761D01*
X12847619Y22357142D01*
X12990476Y22261904D01*
X13180952Y22214285D01*
X13561905Y22214285D01*
X13657143Y22261904D01*
X13704762Y22309523D01*
X13752381Y22404761D01*
X13752381Y22595238D01*
X13704762Y22690476D01*
X13657143Y22738095D01*
X13561905Y22785714D01*
X13323810Y22785714D01*
X13228571Y22738095D01*
X13180952Y22690476D01*
X13133333Y22595238D01*
X13133333Y22404761D01*
X13180952Y22309523D01*
X13228571Y22261904D01*
X13323810Y22214285D01*
X9852380Y21833335D02*
X9376189Y21500001D01*
X9852380Y21261906D02*
X8852380Y21261906D01*
X8852380Y21642859D01*
X8899999Y21738097D01*
X8947618Y21785716D01*
X9042856Y21833335D01*
X9185713Y21833335D01*
X9280951Y21785716D01*
X9328570Y21738097D01*
X9376189Y21642859D01*
X9376189Y21261906D01*
X8852380Y22166668D02*
X8852380Y22833335D01*
X9852380Y22404763D01*
X11752380Y21833335D02*
X11276189Y21500001D01*
X11752380Y21261906D02*
X10752380Y21261906D01*
X10752380Y21642859D01*
X10799999Y21738097D01*
X10847618Y21785716D01*
X10942856Y21833335D01*
X11085713Y21833335D01*
X11180951Y21785716D01*
X11228570Y21738097D01*
X11276189Y21642859D01*
X11276189Y21261906D01*
X11180951Y22404763D02*
X11133332Y22309525D01*
X11085713Y22261906D01*
X10990475Y22214287D01*
X10942856Y22214287D01*
X10847618Y22261906D01*
X10799999Y22309525D01*
X10752380Y22404763D01*
X10752380Y22595240D01*
X10799999Y22690478D01*
X10847618Y22738097D01*
X10942856Y22785716D01*
X10990475Y22785716D01*
X11085713Y22738097D01*
X11133332Y22690478D01*
X11180951Y22595240D01*
X11180951Y22404763D01*
X11228570Y22309525D01*
X11276189Y22261906D01*
X11371428Y22214287D01*
X11561904Y22214287D01*
X11657142Y22261906D01*
X11704761Y22309525D01*
X11752380Y22404763D01*
X11752380Y22595240D01*
X11704761Y22690478D01*
X11657142Y22738097D01*
X11561904Y22785716D01*
X11371428Y22785716D01*
X11276189Y22738097D01*
X11228570Y22690478D01*
X11180951Y22595240D01*
X7752380Y21833334D02*
X7276189Y21500000D01*
X7752380Y21261905D02*
X6752380Y21261905D01*
X6752380Y21642858D01*
X6799999Y21738096D01*
X6847618Y21785715D01*
X6942856Y21833334D01*
X7085713Y21833334D01*
X7180951Y21785715D01*
X7228570Y21738096D01*
X7276189Y21642858D01*
X7276189Y21261905D01*
X7752380Y22309524D02*
X7752380Y22500000D01*
X7704761Y22595239D01*
X7657142Y22642858D01*
X7514285Y22738096D01*
X7323809Y22785715D01*
X6942856Y22785715D01*
X6847618Y22738096D01*
X6799999Y22690477D01*
X6752380Y22595239D01*
X6752380Y22404762D01*
X6799999Y22309524D01*
X6847618Y22261905D01*
X6942856Y22214286D01*
X7180951Y22214286D01*
X7276189Y22261905D01*
X7323809Y22309524D01*
X7371428Y22404762D01*
X7371428Y22595239D01*
X7323809Y22690477D01*
X7276189Y22738096D01*
X7180951Y22785715D01*
X28602381Y28257143D02*
X28126190Y27923809D01*
X28602381Y27685714D02*
X27602381Y27685714D01*
X27602381Y28066667D01*
X27650000Y28161905D01*
X27697619Y28209524D01*
X27792857Y28257143D01*
X27935714Y28257143D01*
X28030952Y28209524D01*
X28078571Y28161905D01*
X28126190Y28066667D01*
X28126190Y27685714D01*
X28602381Y29209524D02*
X28602381Y28638095D01*
X28602381Y28923809D02*
X27602381Y28923809D01*
X27745238Y28828571D01*
X27840476Y28733333D01*
X27888095Y28638095D01*
X27602381Y29828571D02*
X27602381Y29923810D01*
X27650000Y30019048D01*
X27697619Y30066667D01*
X27792857Y30114286D01*
X27983333Y30161905D01*
X28221429Y30161905D01*
X28411905Y30114286D01*
X28507143Y30066667D01*
X28554762Y30019048D01*
X28602381Y29923810D01*
X28602381Y29828571D01*
X28554762Y29733333D01*
X28507143Y29685714D01*
X28411905Y29638095D01*
X28221429Y29590476D01*
X27983333Y29590476D01*
X27792857Y29638095D01*
X27697619Y29685714D01*
X27650000Y29733333D01*
X27602381Y29828571D01*
X28602381Y20007143D02*
X28126190Y19673809D01*
X28602381Y19435714D02*
X27602381Y19435714D01*
X27602381Y19816667D01*
X27650000Y19911905D01*
X27697619Y19959524D01*
X27792857Y20007143D01*
X27935714Y20007143D01*
X28030952Y19959524D01*
X28078571Y19911905D01*
X28126190Y19816667D01*
X28126190Y19435714D01*
X28602381Y20959524D02*
X28602381Y20388095D01*
X28602381Y20673809D02*
X27602381Y20673809D01*
X27745238Y20578571D01*
X27840476Y20483333D01*
X27888095Y20388095D01*
X28602381Y21911905D02*
X28602381Y21340476D01*
X28602381Y21626190D02*
X27602381Y21626190D01*
X27745238Y21530952D01*
X27840476Y21435714D01*
X27888095Y21340476D01*
X29702381Y6657143D02*
X29226190Y6323809D01*
X29702381Y6085714D02*
X28702381Y6085714D01*
X28702381Y6466667D01*
X28750000Y6561905D01*
X28797619Y6609524D01*
X28892857Y6657143D01*
X29035714Y6657143D01*
X29130952Y6609524D01*
X29178571Y6561905D01*
X29226190Y6466667D01*
X29226190Y6085714D01*
X29702381Y7609524D02*
X29702381Y7038095D01*
X29702381Y7323809D02*
X28702381Y7323809D01*
X28845238Y7228571D01*
X28940476Y7133333D01*
X28988095Y7038095D01*
X28702381Y7942857D02*
X28702381Y8561905D01*
X29083333Y8228571D01*
X29083333Y8371429D01*
X29130952Y8466667D01*
X29178571Y8514286D01*
X29273810Y8561905D01*
X29511905Y8561905D01*
X29607143Y8514286D01*
X29654762Y8466667D01*
X29702381Y8371429D01*
X29702381Y8085714D01*
X29654762Y7990476D01*
X29607143Y7942857D01*
X18375975Y16849964D02*
X17899784Y16516630D01*
X18375975Y16278535D02*
X17375975Y16278535D01*
X17375975Y16659488D01*
X17423594Y16754726D01*
X17471213Y16802345D01*
X17566451Y16849964D01*
X17709308Y16849964D01*
X17804546Y16802345D01*
X17852165Y16754726D01*
X17899784Y16659488D01*
X17899784Y16278535D01*
X18375975Y17802345D02*
X18375975Y17230916D01*
X18375975Y17516630D02*
X17375975Y17516630D01*
X17518832Y17421392D01*
X17614070Y17326154D01*
X17661689Y17230916D01*
X17709308Y18659488D02*
X18375975Y18659488D01*
X17328356Y18421392D02*
X18042642Y18183297D01*
X18042642Y18802345D01*
X18411269Y8657143D02*
X17935078Y8323809D01*
X18411269Y8085714D02*
X17411269Y8085714D01*
X17411269Y8466667D01*
X17458888Y8561905D01*
X17506507Y8609524D01*
X17601745Y8657143D01*
X17744602Y8657143D01*
X17839840Y8609524D01*
X17887459Y8561905D01*
X17935078Y8466667D01*
X17935078Y8085714D01*
X18411269Y9609524D02*
X18411269Y9038095D01*
X18411269Y9323809D02*
X17411269Y9323809D01*
X17554126Y9228571D01*
X17649364Y9133333D01*
X17696983Y9038095D01*
X17411269Y10514286D02*
X17411269Y10038095D01*
X17887459Y9990476D01*
X17839840Y10038095D01*
X17792221Y10133333D01*
X17792221Y10371429D01*
X17839840Y10466667D01*
X17887459Y10514286D01*
X17982698Y10561905D01*
X18220793Y10561905D01*
X18316031Y10514286D01*
X18363650Y10466667D01*
X18411269Y10371429D01*
X18411269Y10133333D01*
X18363650Y10038095D01*
X18316031Y9990476D01*
X34102381Y35457143D02*
X33626190Y35123809D01*
X34102381Y34885714D02*
X33102381Y34885714D01*
X33102381Y35266667D01*
X33150000Y35361905D01*
X33197619Y35409524D01*
X33292857Y35457143D01*
X33435714Y35457143D01*
X33530952Y35409524D01*
X33578571Y35361905D01*
X33626190Y35266667D01*
X33626190Y34885714D01*
X34102381Y36409524D02*
X34102381Y35838095D01*
X34102381Y36123809D02*
X33102381Y36123809D01*
X33245238Y36028571D01*
X33340476Y35933333D01*
X33388095Y35838095D01*
X33102381Y37266667D02*
X33102381Y37076190D01*
X33150000Y36980952D01*
X33197619Y36933333D01*
X33340476Y36838095D01*
X33530952Y36790476D01*
X33911905Y36790476D01*
X34007143Y36838095D01*
X34054762Y36885714D01*
X34102381Y36980952D01*
X34102381Y37171429D01*
X34054762Y37266667D01*
X34007143Y37314286D01*
X33911905Y37361905D01*
X33673810Y37361905D01*
X33578571Y37314286D01*
X33530952Y37266667D01*
X33483333Y37171429D01*
X33483333Y36980952D01*
X33530952Y36885714D01*
X33578571Y36838095D01*
X33673810Y36790476D01*
X31802381Y43407143D02*
X31326190Y43073809D01*
X31802381Y42835714D02*
X30802381Y42835714D01*
X30802381Y43216667D01*
X30850000Y43311905D01*
X30897619Y43359524D01*
X30992857Y43407143D01*
X31135714Y43407143D01*
X31230952Y43359524D01*
X31278571Y43311905D01*
X31326190Y43216667D01*
X31326190Y42835714D01*
X31802381Y44359524D02*
X31802381Y43788095D01*
X31802381Y44073809D02*
X30802381Y44073809D01*
X30945238Y43978571D01*
X31040476Y43883333D01*
X31088095Y43788095D01*
X30802381Y44692857D02*
X30802381Y45359524D01*
X31802381Y44930952D01*
X34102381Y30107143D02*
X33626190Y29773809D01*
X34102381Y29535714D02*
X33102381Y29535714D01*
X33102381Y29916667D01*
X33150000Y30011905D01*
X33197619Y30059524D01*
X33292857Y30107143D01*
X33435714Y30107143D01*
X33530952Y30059524D01*
X33578571Y30011905D01*
X33626190Y29916667D01*
X33626190Y29535714D01*
X34102381Y31059524D02*
X34102381Y30488095D01*
X34102381Y30773809D02*
X33102381Y30773809D01*
X33245238Y30678571D01*
X33340476Y30583333D01*
X33388095Y30488095D01*
X33530952Y31630952D02*
X33483333Y31535714D01*
X33435714Y31488095D01*
X33340476Y31440476D01*
X33292857Y31440476D01*
X33197619Y31488095D01*
X33150000Y31535714D01*
X33102381Y31630952D01*
X33102381Y31821429D01*
X33150000Y31916667D01*
X33197619Y31964286D01*
X33292857Y32011905D01*
X33340476Y32011905D01*
X33435714Y31964286D01*
X33483333Y31916667D01*
X33530952Y31821429D01*
X33530952Y31630952D01*
X33578571Y31535714D01*
X33626190Y31488095D01*
X33721429Y31440476D01*
X33911905Y31440476D01*
X34007143Y31488095D01*
X34054762Y31535714D01*
X34102381Y31630952D01*
X34102381Y31821429D01*
X34054762Y31916667D01*
X34007143Y31964286D01*
X33911905Y32011905D01*
X33721429Y32011905D01*
X33626190Y31964286D01*
X33578571Y31916667D01*
X33530952Y31821429D01*
X4638095Y12847619D02*
X4638095Y12038095D01*
X4685714Y11942857D01*
X4733333Y11895238D01*
X4828571Y11847619D01*
X5019048Y11847619D01*
X5114286Y11895238D01*
X5161905Y11942857D01*
X5209524Y12038095D01*
X5209524Y12847619D01*
X5638095Y12752381D02*
X5685714Y12800000D01*
X5780952Y12847619D01*
X6019048Y12847619D01*
X6114286Y12800000D01*
X6161905Y12752381D01*
X6209524Y12657143D01*
X6209524Y12561905D01*
X6161905Y12419048D01*
X5590476Y11847619D01*
X6209524Y11847619D01*
X21952382Y25103638D02*
X22761906Y25103638D01*
X22857144Y25151257D01*
X22904763Y25198876D01*
X22952382Y25294114D01*
X22952382Y25484591D01*
X22904763Y25579829D01*
X22857144Y25627448D01*
X22761906Y25675067D01*
X21952382Y25675067D01*
X21952382Y26056019D02*
X21952382Y26675067D01*
X22333334Y26341733D01*
X22333334Y26484591D01*
X22380953Y26579829D01*
X22428572Y26627448D01*
X22523811Y26675067D01*
X22761906Y26675067D01*
X22857144Y26627448D01*
X22904763Y26579829D01*
X22952382Y26484591D01*
X22952382Y26198876D01*
X22904763Y26103638D01*
X22857144Y26056019D01*
X2457143Y21642857D02*
X2409524Y21595238D01*
X2266667Y21547619D01*
X2171429Y21547619D01*
X2028571Y21595238D01*
X1933333Y21690476D01*
X1885714Y21785714D01*
X1838095Y21976190D01*
X1838095Y22119048D01*
X1885714Y22309524D01*
X1933333Y22404762D01*
X2028571Y22500000D01*
X2171429Y22547619D01*
X2266667Y22547619D01*
X2409524Y22500000D01*
X2457143Y22452381D01*
X3409524Y21547619D02*
X2838095Y21547619D01*
X3123809Y21547619D02*
X3123809Y22547619D01*
X3028571Y22404762D01*
X2933333Y22309524D01*
X2838095Y22261905D01*
X4361905Y21547619D02*
X3790476Y21547619D01*
X4076190Y21547619D02*
X4076190Y22547619D01*
X3980952Y22404762D01*
X3885714Y22309524D01*
X3790476Y22261905D01*
X16675975Y15449964D02*
X16199784Y15116630D01*
X16675975Y14878535D02*
X15675975Y14878535D01*
X15675975Y15259488D01*
X15723594Y15354726D01*
X15771213Y15402345D01*
X15866451Y15449964D01*
X16009308Y15449964D01*
X16104546Y15402345D01*
X16152165Y15354726D01*
X16199784Y15259488D01*
X16199784Y14878535D01*
X16675975Y16402345D02*
X16675975Y15830916D01*
X16675975Y16116630D02*
X15675975Y16116630D01*
X15818832Y16021392D01*
X15914070Y15926154D01*
X15961689Y15830916D01*
X16675975Y16878535D02*
X16675975Y17069011D01*
X16628356Y17164250D01*
X16580737Y17211869D01*
X16437880Y17307107D01*
X16247404Y17354726D01*
X15866451Y17354726D01*
X15771213Y17307107D01*
X15723594Y17259488D01*
X15675975Y17164250D01*
X15675975Y16973773D01*
X15723594Y16878535D01*
X15771213Y16830916D01*
X15866451Y16783297D01*
X16104546Y16783297D01*
X16199784Y16830916D01*
X16247404Y16878535D01*
X16295023Y16973773D01*
X16295023Y17164250D01*
X16247404Y17259488D01*
X16199784Y17307107D01*
X16104546Y17354726D01*
X15161905Y7147619D02*
X15161905Y8147619D01*
X15400000Y8147619D01*
X15542858Y8100000D01*
X15638096Y8004762D01*
X15685715Y7909524D01*
X15733334Y7719048D01*
X15733334Y7576190D01*
X15685715Y7385714D01*
X15638096Y7290476D01*
X15542858Y7195238D01*
X15400000Y7147619D01*
X15161905Y7147619D01*
X16114286Y8052381D02*
X16161905Y8100000D01*
X16257143Y8147619D01*
X16495239Y8147619D01*
X16590477Y8100000D01*
X16638096Y8052381D01*
X16685715Y7957143D01*
X16685715Y7861905D01*
X16638096Y7719048D01*
X16066667Y7147619D01*
X16685715Y7147619D01*
X10852381Y5857143D02*
X10376190Y5523809D01*
X10852381Y5285714D02*
X9852381Y5285714D01*
X9852381Y5666667D01*
X9900000Y5761905D01*
X9947619Y5809524D01*
X10042857Y5857143D01*
X10185714Y5857143D01*
X10280952Y5809524D01*
X10328571Y5761905D01*
X10376190Y5666667D01*
X10376190Y5285714D01*
X9947619Y6238095D02*
X9900000Y6285714D01*
X9852381Y6380952D01*
X9852381Y6619048D01*
X9900000Y6714286D01*
X9947619Y6761905D01*
X10042857Y6809524D01*
X10138095Y6809524D01*
X10280952Y6761905D01*
X10852381Y6190476D01*
X10852381Y6809524D01*
X9852381Y7428571D02*
X9852381Y7523810D01*
X9900000Y7619048D01*
X9947619Y7666667D01*
X10042857Y7714286D01*
X10233333Y7761905D01*
X10471429Y7761905D01*
X10661905Y7714286D01*
X10757143Y7666667D01*
X10804762Y7619048D01*
X10852381Y7523810D01*
X10852381Y7428571D01*
X10804762Y7333333D01*
X10757143Y7285714D01*
X10661905Y7238095D01*
X10471429Y7190476D01*
X10233333Y7190476D01*
X10042857Y7238095D01*
X9947619Y7285714D01*
X9900000Y7333333D01*
X9852381Y7428571D01*
X21023012Y29397462D02*
X21898477Y28858714D01*
X21528088Y29498478D01*
X22167851Y29128088D01*
X21629103Y30003553D01*
X22235195Y30609645D02*
X21898477Y30272927D01*
X22201522Y29902538D01*
X22201522Y29969882D01*
X22235194Y30070897D01*
X22403553Y30239256D01*
X22504569Y30272928D01*
X22571912Y30272928D01*
X22672928Y30239255D01*
X22841286Y30070897D01*
X22874958Y29969882D01*
X22874958Y29902538D01*
X22841286Y29801523D01*
X22672927Y29633164D01*
X22571912Y29599492D01*
X22504569Y29599492D01*
X7923012Y17897462D02*
X8798477Y17358714D01*
X8428088Y17998478D01*
X9067851Y17628088D01*
X8529103Y18503553D01*
X9101523Y19075973D02*
X8966836Y18941286D01*
X8933164Y18840271D01*
X8933164Y18772927D01*
X8966836Y18604569D01*
X9067851Y18436210D01*
X9337225Y18166836D01*
X9438240Y18133164D01*
X9505584Y18133164D01*
X9606599Y18166836D01*
X9741286Y18301523D01*
X9774958Y18402538D01*
X9774958Y18469882D01*
X9741286Y18570897D01*
X9572928Y18739255D01*
X9471912Y18772928D01*
X9404569Y18772928D01*
X9303553Y18739256D01*
X9168866Y18604569D01*
X9135194Y18503553D01*
X9135194Y18436210D01*
X9168867Y18335194D01*
X13723012Y11647462D02*
X14598477Y11108714D01*
X14228088Y11748478D01*
X14867851Y11378088D01*
X14329103Y12253553D01*
X14531133Y12455584D02*
X15002538Y12926988D01*
X15406599Y11916836D01*
X29923012Y23047462D02*
X30798477Y22508714D01*
X30428088Y23148478D01*
X31067851Y22778088D01*
X30529103Y23653553D01*
X31202538Y23720897D02*
X31101522Y23687225D01*
X31034179Y23687225D01*
X30933164Y23720897D01*
X30899492Y23754569D01*
X30865820Y23855584D01*
X30865820Y23922927D01*
X30899492Y24023942D01*
X31034180Y24158630D01*
X31135195Y24192302D01*
X31202538Y24192302D01*
X31303553Y24158630D01*
X31337225Y24124958D01*
X31370897Y24023943D01*
X31370897Y23956600D01*
X31337225Y23855584D01*
X31202538Y23720897D01*
X31168866Y23619882D01*
X31168866Y23552538D01*
X31202538Y23451522D01*
X31337225Y23316836D01*
X31438240Y23283164D01*
X31505584Y23283164D01*
X31606599Y23316836D01*
X31741286Y23451523D01*
X31774958Y23552538D01*
X31774958Y23619882D01*
X31741286Y23720897D01*
X31606600Y23855584D01*
X31505584Y23889256D01*
X31438240Y23889256D01*
X31337225Y23855584D01*
X3873012Y18247462D02*
X4748477Y17708714D01*
X4378088Y18348478D01*
X5017851Y17978088D01*
X4479103Y18853553D01*
X5489255Y18449492D02*
X5623942Y18584179D01*
X5657615Y18685195D01*
X5657615Y18752538D01*
X5623943Y18920897D01*
X5522928Y19089255D01*
X5253553Y19358630D01*
X5152538Y19392302D01*
X5085195Y19392302D01*
X4984180Y19358630D01*
X4849492Y19223942D01*
X4815820Y19122927D01*
X4815820Y19055584D01*
X4849492Y18954569D01*
X5017851Y18786210D01*
X5118866Y18752538D01*
X5186210Y18752538D01*
X5287225Y18786209D01*
X5421913Y18920897D01*
X5455584Y19021912D01*
X5455584Y19089256D01*
X5421912Y19190271D01*
X26336294Y30860745D02*
X27211760Y30321996D01*
X26841371Y30961760D01*
X27481134Y30591371D01*
X26942386Y31466836D01*
X28289256Y31399493D02*
X27885195Y30995431D01*
X28087225Y31197462D02*
X27380118Y31904569D01*
X27413790Y31736210D01*
X27413790Y31601523D01*
X27380118Y31500508D01*
X28019882Y32544332D02*
X28087226Y32611676D01*
X28188241Y32645348D01*
X28255584Y32645348D01*
X28356600Y32611676D01*
X28524958Y32510661D01*
X28693317Y32342302D01*
X28794333Y32173943D01*
X28828004Y32072928D01*
X28828004Y32005584D01*
X28794333Y31904569D01*
X28726988Y31837225D01*
X28625973Y31803553D01*
X28558630Y31803553D01*
X28457615Y31837225D01*
X28289256Y31938240D01*
X28120897Y32106600D01*
X28019882Y32274958D01*
X27986210Y32375973D01*
X27986210Y32443317D01*
X28019882Y32544332D01*
X24236294Y31160745D02*
X25111760Y30621996D01*
X24741371Y31261760D01*
X25381134Y30891371D01*
X24842386Y31766836D01*
X26189256Y31699493D02*
X25785195Y31295431D01*
X25987225Y31497462D02*
X25280118Y32204569D01*
X25313790Y32036210D01*
X25313790Y31901523D01*
X25280118Y31800508D01*
X26862691Y32372928D02*
X26458630Y31968867D01*
X26660660Y32170897D02*
X25953553Y32878004D01*
X25987225Y32709645D01*
X25987225Y32574958D01*
X25953553Y32473943D01*
X28773012Y46097462D02*
X29648477Y45558714D01*
X29278088Y46198478D01*
X29917851Y45828088D01*
X29379103Y46703553D01*
X30725973Y46636210D02*
X30321912Y46232149D01*
X30523942Y46434179D02*
X29816836Y47141286D01*
X29850507Y46972927D01*
X29850507Y46838240D01*
X29816836Y46737225D01*
X29223012Y31597462D02*
X30098477Y31058714D01*
X29728088Y31698478D01*
X30367851Y31328088D01*
X29829103Y32203553D01*
X30031133Y32405584D02*
X30468867Y32843317D01*
X30502538Y32338240D01*
X30603553Y32439256D01*
X30704569Y32472928D01*
X30771912Y32472928D01*
X30872928Y32439255D01*
X31041286Y32270897D01*
X31074958Y32169882D01*
X31074958Y32102538D01*
X31041286Y32001523D01*
X30839255Y31799492D01*
X30738240Y31765820D01*
X30670897Y31765820D01*
X29173013Y37147462D02*
X30048478Y36608714D01*
X29678089Y37248478D01*
X30317852Y36878088D01*
X29779104Y37753553D01*
X30082150Y37921912D02*
X30082150Y37989255D01*
X30115821Y38090271D01*
X30284181Y38258630D01*
X30385196Y38292302D01*
X30452539Y38292302D01*
X30553554Y38258630D01*
X30620898Y38191286D01*
X30688241Y38056600D01*
X30688241Y37248477D01*
X31125974Y37686210D01*
X3823012Y20597462D02*
X4698477Y20058714D01*
X4328088Y20698478D01*
X4967851Y20328088D01*
X4429103Y21203553D01*
X5237225Y21540271D02*
X5708630Y21068867D01*
X4799492Y21641286D02*
X5136210Y20967851D01*
X5573943Y21405584D01*
X34702381Y43138095D02*
X35511905Y43138095D01*
X35607143Y43185714D01*
X35654762Y43233333D01*
X35702381Y43328571D01*
X35702381Y43519048D01*
X35654762Y43614286D01*
X35607143Y43661905D01*
X35511905Y43709524D01*
X34702381Y43709524D01*
X34702381Y44614286D02*
X34702381Y44423809D01*
X34750000Y44328571D01*
X34797619Y44280952D01*
X34940476Y44185714D01*
X35130952Y44138095D01*
X35511905Y44138095D01*
X35607143Y44185714D01*
X35654762Y44233333D01*
X35702381Y44328571D01*
X35702381Y44519048D01*
X35654762Y44614286D01*
X35607143Y44661905D01*
X35511905Y44709524D01*
X35273810Y44709524D01*
X35178571Y44661905D01*
X35130952Y44614286D01*
X35083333Y44519048D01*
X35083333Y44328571D01*
X35130952Y44233333D01*
X35178571Y44185714D01*
X35273810Y44138095D01*
X34552381Y21788095D02*
X35361905Y21788095D01*
X35457143Y21835714D01*
X35504762Y21883333D01*
X35552381Y21978571D01*
X35552381Y22169048D01*
X35504762Y22264286D01*
X35457143Y22311905D01*
X35361905Y22359524D01*
X34552381Y22359524D01*
X34552381Y22740476D02*
X34552381Y23407143D01*
X35552381Y22978571D01*
X3752381Y44083334D02*
X3276190Y43750000D01*
X3752381Y43511905D02*
X2752381Y43511905D01*
X2752381Y43892858D01*
X2800000Y43988096D01*
X2847619Y44035715D01*
X2942857Y44083334D01*
X3085714Y44083334D01*
X3180952Y44035715D01*
X3228571Y43988096D01*
X3276190Y43892858D01*
X3276190Y43511905D01*
X2847619Y44464286D02*
X2800000Y44511905D01*
X2752381Y44607143D01*
X2752381Y44845239D01*
X2800000Y44940477D01*
X2847619Y44988096D01*
X2942857Y45035715D01*
X3038095Y45035715D01*
X3180952Y44988096D01*
X3752381Y44416667D01*
X3752381Y45035715D01*
D17*
X26561905Y6633334D02*
X27133333Y6633334D01*
X27247619Y6595238D01*
X27323810Y6519048D01*
X27361905Y6404762D01*
X27361905Y6328572D01*
X27361905Y7014286D02*
X26561905Y7014286D01*
X26561905Y7319048D01*
X26600000Y7395239D01*
X26638095Y7433334D01*
X26714286Y7471429D01*
X26828571Y7471429D01*
X26904762Y7433334D01*
X26942857Y7395239D01*
X26980952Y7319048D01*
X26980952Y7014286D01*
X27361905Y8233334D02*
X27361905Y7776191D01*
X27361905Y8004762D02*
X26561905Y8004762D01*
X26676190Y7928572D01*
X26752381Y7852381D01*
X26790476Y7776191D01*
D12*
X6852381Y32238095D02*
X7661905Y32238095D01*
X7757143Y32285714D01*
X7804762Y32333333D01*
X7852381Y32428571D01*
X7852381Y32619048D01*
X7804762Y32714286D01*
X7757143Y32761905D01*
X7661905Y32809524D01*
X6852381Y32809524D01*
X7852381Y33809524D02*
X7852381Y33238095D01*
X7852381Y33523809D02*
X6852381Y33523809D01*
X6995238Y33428571D01*
X7090476Y33333333D01*
X7138095Y33238095D01*
D17*
X19433334Y4588095D02*
X19433334Y4016667D01*
X19395238Y3902381D01*
X19319048Y3826190D01*
X19204762Y3788095D01*
X19128572Y3788095D01*
X19814286Y3788095D02*
X19814286Y4588095D01*
X20119048Y4588095D01*
X20195239Y4550000D01*
X20233334Y4511905D01*
X20271429Y4435714D01*
X20271429Y4321429D01*
X20233334Y4245238D01*
X20195239Y4207143D01*
X20119048Y4169048D01*
X19814286Y4169048D01*
X20576191Y4511905D02*
X20614286Y4550000D01*
X20690477Y4588095D01*
X20880953Y4588095D01*
X20957143Y4550000D01*
X20995239Y4511905D01*
X21033334Y4435714D01*
X21033334Y4359524D01*
X20995239Y4245238D01*
X20538096Y3788095D01*
X21033334Y3788095D01*
D12*
X16961905Y34147619D02*
X16961905Y35147619D01*
X17200000Y35147619D01*
X17342858Y35100000D01*
X17438096Y35004762D01*
X17485715Y34909524D01*
X17533334Y34719048D01*
X17533334Y34576190D01*
X17485715Y34385714D01*
X17438096Y34290476D01*
X17342858Y34195238D01*
X17200000Y34147619D01*
X16961905Y34147619D01*
X18485715Y34147619D02*
X17914286Y34147619D01*
X18200000Y34147619D02*
X18200000Y35147619D01*
X18104762Y35004762D01*
X18009524Y34909524D01*
X17914286Y34861905D01*
X15904762Y25566667D02*
X15952381Y25709524D01*
X15952381Y25947620D01*
X15904762Y26042858D01*
X15857143Y26090477D01*
X15761905Y26138096D01*
X15666667Y26138096D01*
X15571429Y26090477D01*
X15523810Y26042858D01*
X15476190Y25947620D01*
X15428571Y25757143D01*
X15380952Y25661905D01*
X15333333Y25614286D01*
X15238095Y25566667D01*
X15142857Y25566667D01*
X15047619Y25614286D01*
X15000000Y25661905D01*
X14952381Y25757143D01*
X14952381Y25995239D01*
X15000000Y26138096D01*
X14952381Y26471429D02*
X15952381Y26709524D01*
X15238095Y26900001D01*
X15952381Y27090477D01*
X14952381Y27328572D01*
X15952381Y28233334D02*
X15952381Y27661905D01*
X15952381Y27947619D02*
X14952381Y27947619D01*
X15095238Y27852381D01*
X15190476Y27757143D01*
X15238095Y27661905D01*
X15904762Y37766667D02*
X15952381Y37909524D01*
X15952381Y38147620D01*
X15904762Y38242858D01*
X15857143Y38290477D01*
X15761905Y38338096D01*
X15666667Y38338096D01*
X15571429Y38290477D01*
X15523810Y38242858D01*
X15476190Y38147620D01*
X15428571Y37957143D01*
X15380952Y37861905D01*
X15333333Y37814286D01*
X15238095Y37766667D01*
X15142857Y37766667D01*
X15047619Y37814286D01*
X15000000Y37861905D01*
X14952381Y37957143D01*
X14952381Y38195239D01*
X15000000Y38338096D01*
X14952381Y38671429D02*
X15952381Y38909524D01*
X15238095Y39100001D01*
X15952381Y39290477D01*
X14952381Y39528572D01*
X15047619Y39861905D02*
X15000000Y39909524D01*
X14952381Y40004762D01*
X14952381Y40242858D01*
X15000000Y40338096D01*
X15047619Y40385715D01*
X15142857Y40433334D01*
X15238095Y40433334D01*
X15380952Y40385715D01*
X15952381Y39814286D01*
X15952381Y40433334D01*
X1254762Y2866667D02*
X1302381Y3009524D01*
X1302381Y3247620D01*
X1254762Y3342858D01*
X1207143Y3390477D01*
X1111905Y3438096D01*
X1016667Y3438096D01*
X921429Y3390477D01*
X873810Y3342858D01*
X826190Y3247620D01*
X778571Y3057143D01*
X730952Y2961905D01*
X683333Y2914286D01*
X588095Y2866667D01*
X492857Y2866667D01*
X397619Y2914286D01*
X350000Y2961905D01*
X302381Y3057143D01*
X302381Y3295239D01*
X350000Y3438096D01*
X302381Y3771429D02*
X1302381Y4009524D01*
X588095Y4200001D01*
X1302381Y4390477D01*
X302381Y4628572D01*
X302381Y4914286D02*
X302381Y5533334D01*
X683333Y5200000D01*
X683333Y5342858D01*
X730952Y5438096D01*
X778571Y5485715D01*
X873810Y5533334D01*
X1111905Y5533334D01*
X1207143Y5485715D01*
X1254762Y5438096D01*
X1302381Y5342858D01*
X1302381Y5057143D01*
X1254762Y4961905D01*
X1207143Y4914286D01*
X27452381Y15033334D02*
X27452381Y14557143D01*
X26452381Y14557143D01*
X27452381Y15890477D02*
X27452381Y15319048D01*
X27452381Y15604762D02*
X26452381Y15604762D01*
X26595238Y15509524D01*
X26690476Y15414286D01*
X26738095Y15319048D01*
X23933334Y15442857D02*
X23885715Y15395238D01*
X23742858Y15347619D01*
X23647620Y15347619D01*
X23504762Y15395238D01*
X23409524Y15490476D01*
X23361905Y15585714D01*
X23314286Y15776190D01*
X23314286Y15919048D01*
X23361905Y16109524D01*
X23409524Y16204762D01*
X23504762Y16300000D01*
X23647620Y16347619D01*
X23742858Y16347619D01*
X23885715Y16300000D01*
X23933334Y16252381D01*
X24314286Y16252381D02*
X24361905Y16300000D01*
X24457143Y16347619D01*
X24695239Y16347619D01*
X24790477Y16300000D01*
X24838096Y16252381D01*
X24885715Y16157143D01*
X24885715Y16061905D01*
X24838096Y15919048D01*
X24266667Y15347619D01*
X24885715Y15347619D01*
X24257143Y20742857D02*
X24209524Y20695238D01*
X24066667Y20647619D01*
X23971429Y20647619D01*
X23828571Y20695238D01*
X23733333Y20790476D01*
X23685714Y20885714D01*
X23638095Y21076190D01*
X23638095Y21219048D01*
X23685714Y21409524D01*
X23733333Y21504762D01*
X23828571Y21600000D01*
X23971429Y21647619D01*
X24066667Y21647619D01*
X24209524Y21600000D01*
X24257143Y21552381D01*
X25209524Y20647619D02*
X24638095Y20647619D01*
X24923809Y20647619D02*
X24923809Y21647619D01*
X24828571Y21504762D01*
X24733333Y21409524D01*
X24638095Y21361905D01*
X25828571Y21647619D02*
X25923810Y21647619D01*
X26019048Y21600000D01*
X26066667Y21552381D01*
X26114286Y21457143D01*
X26161905Y21266667D01*
X26161905Y21028571D01*
X26114286Y20838095D01*
X26066667Y20742857D01*
X26019048Y20695238D01*
X25923810Y20647619D01*
X25828571Y20647619D01*
X25733333Y20695238D01*
X25685714Y20742857D01*
X25638095Y20838095D01*
X25590476Y21028571D01*
X25590476Y21266667D01*
X25638095Y21457143D01*
X25685714Y21552381D01*
X25733333Y21600000D01*
X25828571Y21647619D01*
X31857143Y40983334D02*
X31904762Y40935715D01*
X31952381Y40792858D01*
X31952381Y40697620D01*
X31904762Y40554762D01*
X31809524Y40459524D01*
X31714286Y40411905D01*
X31523810Y40364286D01*
X31380952Y40364286D01*
X31190476Y40411905D01*
X31095238Y40459524D01*
X31000000Y40554762D01*
X30952381Y40697620D01*
X30952381Y40792858D01*
X31000000Y40935715D01*
X31047619Y40983334D01*
X31952381Y41459524D02*
X31952381Y41650000D01*
X31904762Y41745239D01*
X31857143Y41792858D01*
X31714286Y41888096D01*
X31523810Y41935715D01*
X31142857Y41935715D01*
X31047619Y41888096D01*
X31000000Y41840477D01*
X30952381Y41745239D01*
X30952381Y41554762D01*
X31000000Y41459524D01*
X31047619Y41411905D01*
X31142857Y41364286D01*
X31380952Y41364286D01*
X31476190Y41411905D01*
X31523810Y41459524D01*
X31571429Y41554762D01*
X31571429Y41745239D01*
X31523810Y41840477D01*
X31476190Y41888096D01*
X31380952Y41935715D01*
X31757143Y25833334D02*
X31804762Y25785715D01*
X31852381Y25642858D01*
X31852381Y25547620D01*
X31804762Y25404762D01*
X31709524Y25309524D01*
X31614286Y25261905D01*
X31423810Y25214286D01*
X31280952Y25214286D01*
X31090476Y25261905D01*
X30995238Y25309524D01*
X30900000Y25404762D01*
X30852381Y25547620D01*
X30852381Y25642858D01*
X30900000Y25785715D01*
X30947619Y25833334D01*
X31280952Y26404762D02*
X31233333Y26309524D01*
X31185714Y26261905D01*
X31090476Y26214286D01*
X31042857Y26214286D01*
X30947619Y26261905D01*
X30900000Y26309524D01*
X30852381Y26404762D01*
X30852381Y26595239D01*
X30900000Y26690477D01*
X30947619Y26738096D01*
X31042857Y26785715D01*
X31090476Y26785715D01*
X31185714Y26738096D01*
X31233333Y26690477D01*
X31280952Y26595239D01*
X31280952Y26404762D01*
X31328571Y26309524D01*
X31376190Y26261905D01*
X31471429Y26214286D01*
X31661905Y26214286D01*
X31757143Y26261905D01*
X31804762Y26309524D01*
X31852381Y26404762D01*
X31852381Y26595239D01*
X31804762Y26690477D01*
X31757143Y26738096D01*
X31661905Y26785715D01*
X31471429Y26785715D01*
X31376190Y26738096D01*
X31328571Y26690477D01*
X31280952Y26595239D01*
X26857143Y52533334D02*
X26904762Y52485715D01*
X26952381Y52342858D01*
X26952381Y52247620D01*
X26904762Y52104762D01*
X26809524Y52009524D01*
X26714286Y51961905D01*
X26523810Y51914286D01*
X26380952Y51914286D01*
X26190476Y51961905D01*
X26095238Y52009524D01*
X26000000Y52104762D01*
X25952381Y52247620D01*
X25952381Y52342858D01*
X26000000Y52485715D01*
X26047619Y52533334D01*
X25952381Y52866667D02*
X25952381Y53533334D01*
X26952381Y53104762D01*
X1757143Y52683334D02*
X1804762Y52635715D01*
X1852381Y52492858D01*
X1852381Y52397620D01*
X1804762Y52254762D01*
X1709524Y52159524D01*
X1614286Y52111905D01*
X1423810Y52064286D01*
X1280952Y52064286D01*
X1090476Y52111905D01*
X995238Y52159524D01*
X900000Y52254762D01*
X852381Y52397620D01*
X852381Y52492858D01*
X900000Y52635715D01*
X947619Y52683334D01*
X852381Y53540477D02*
X852381Y53350000D01*
X900000Y53254762D01*
X947619Y53207143D01*
X1090476Y53111905D01*
X1280952Y53064286D01*
X1661905Y53064286D01*
X1757143Y53111905D01*
X1804762Y53159524D01*
X1852381Y53254762D01*
X1852381Y53445239D01*
X1804762Y53540477D01*
X1757143Y53588096D01*
X1661905Y53635715D01*
X1423810Y53635715D01*
X1328571Y53588096D01*
X1280952Y53540477D01*
X1233333Y53445239D01*
X1233333Y53254762D01*
X1280952Y53159524D01*
X1328571Y53111905D01*
X1423810Y53064286D01*
X19333334Y9642857D02*
X19285715Y9595238D01*
X19142858Y9547619D01*
X19047620Y9547619D01*
X18904762Y9595238D01*
X18809524Y9690476D01*
X18761905Y9785714D01*
X18714286Y9976190D01*
X18714286Y10119048D01*
X18761905Y10309524D01*
X18809524Y10404762D01*
X18904762Y10500000D01*
X19047620Y10547619D01*
X19142858Y10547619D01*
X19285715Y10500000D01*
X19333334Y10452381D01*
X20238096Y10547619D02*
X19761905Y10547619D01*
X19714286Y10071429D01*
X19761905Y10119048D01*
X19857143Y10166667D01*
X20095239Y10166667D01*
X20190477Y10119048D01*
X20238096Y10071429D01*
X20285715Y9976190D01*
X20285715Y9738095D01*
X20238096Y9642857D01*
X20190477Y9595238D01*
X20095239Y9547619D01*
X19857143Y9547619D01*
X19761905Y9595238D01*
X19714286Y9642857D01*
X1457143Y14333334D02*
X1504762Y14285715D01*
X1552381Y14142858D01*
X1552381Y14047620D01*
X1504762Y13904762D01*
X1409524Y13809524D01*
X1314286Y13761905D01*
X1123810Y13714286D01*
X980952Y13714286D01*
X790476Y13761905D01*
X695238Y13809524D01*
X600000Y13904762D01*
X552381Y14047620D01*
X552381Y14142858D01*
X600000Y14285715D01*
X647619Y14333334D01*
X885714Y15190477D02*
X1552381Y15190477D01*
X504762Y14952381D02*
X1219048Y14714286D01*
X1219048Y15333334D01*
X19333334Y8242857D02*
X19285715Y8195238D01*
X19142858Y8147619D01*
X19047620Y8147619D01*
X18904762Y8195238D01*
X18809524Y8290476D01*
X18761905Y8385714D01*
X18714286Y8576190D01*
X18714286Y8719048D01*
X18761905Y8909524D01*
X18809524Y9004762D01*
X18904762Y9100000D01*
X19047620Y9147619D01*
X19142858Y9147619D01*
X19285715Y9100000D01*
X19333334Y9052381D01*
X20285715Y8147619D02*
X19714286Y8147619D01*
X20000000Y8147619D02*
X20000000Y9147619D01*
X19904762Y9004762D01*
X19809524Y8909524D01*
X19714286Y8861905D01*
%LPC*%
D18*
X24500000Y7300000D02*
X26050000Y7300000D01*
D12*
X28928571Y62322619D02*
X28880952Y62275000D01*
X28785714Y62227381D01*
X28547618Y62227381D01*
X28452380Y62275000D01*
X28404761Y62322619D01*
X28357142Y62417857D01*
X28357142Y62513095D01*
X28404761Y62655952D01*
X28976190Y63227381D01*
X28357142Y63227381D01*
X27738095Y62227381D02*
X27642856Y62227381D01*
X27547618Y62275000D01*
X27499999Y62322619D01*
X27452380Y62417857D01*
X27404761Y62608333D01*
X27404761Y62846429D01*
X27452380Y63036905D01*
X27499999Y63132143D01*
X27547618Y63179762D01*
X27642856Y63227381D01*
X27738095Y63227381D01*
X27833333Y63179762D01*
X27880952Y63132143D01*
X27928571Y63036905D01*
X27976190Y62846429D01*
X27976190Y62608333D01*
X27928571Y62417857D01*
X27880952Y62322619D01*
X27833333Y62275000D01*
X27738095Y62227381D01*
X26452380Y63227381D02*
X27023809Y63227381D01*
X26738095Y63227381D02*
X26738095Y62227381D01*
X26833333Y62370238D01*
X26928571Y62465476D01*
X27023809Y62513095D01*
X25595237Y62227381D02*
X25785714Y62227381D01*
X25880952Y62275000D01*
X25928571Y62322619D01*
X26023809Y62465476D01*
X26071428Y62655952D01*
X26071428Y63036905D01*
X26023809Y63132143D01*
X25976190Y63179762D01*
X25880952Y63227381D01*
X25690475Y63227381D01*
X25595237Y63179762D01*
X25547618Y63132143D01*
X25499999Y63036905D01*
X25499999Y62798810D01*
X25547618Y62703571D01*
X25595237Y62655952D01*
X25690475Y62608333D01*
X25880952Y62608333D01*
X25976190Y62655952D01*
X26023809Y62703571D01*
X26071428Y62798810D01*
X25023809Y63179762D02*
X25023809Y63227381D01*
X25071428Y63322619D01*
X25119047Y63370238D01*
X23833333Y63227381D02*
X23833333Y62227381D01*
X23261904Y63227381D01*
X23261904Y62227381D01*
X22642857Y63227381D02*
X22738095Y63179762D01*
X22785714Y63132143D01*
X22833333Y63036905D01*
X22833333Y62751190D01*
X22785714Y62655952D01*
X22738095Y62608333D01*
X22642857Y62560714D01*
X22499999Y62560714D01*
X22404761Y62608333D01*
X22357142Y62655952D01*
X22309523Y62751190D01*
X22309523Y63036905D01*
X22357142Y63132143D01*
X22404761Y63179762D01*
X22499999Y63227381D01*
X22642857Y63227381D01*
X21976190Y62560714D02*
X21738095Y63227381D01*
X21499999Y62560714D01*
X21119047Y63132143D02*
X21071428Y63179762D01*
X21119047Y63227381D01*
X21166666Y63179762D01*
X21119047Y63132143D01*
X21119047Y63227381D01*
X28809523Y64401190D02*
X28857142Y64353571D01*
X28952380Y64305952D01*
X29047618Y64305952D01*
X29142856Y64353571D01*
X29190476Y64401190D01*
X29238095Y64496429D01*
X29238095Y64591667D01*
X29190476Y64686905D01*
X29142856Y64734524D01*
X29047618Y64782143D01*
X28952380Y64782143D01*
X28857142Y64734524D01*
X28809523Y64686905D01*
X28809523Y64305952D02*
X28809523Y64686905D01*
X28761904Y64734524D01*
X28714285Y64734524D01*
X28619047Y64686905D01*
X28571428Y64591667D01*
X28571428Y64353571D01*
X28666666Y64210714D01*
X28809523Y64115476D01*
X28999999Y64067857D01*
X29190476Y64115476D01*
X29333333Y64210714D01*
X29428571Y64353571D01*
X29476190Y64544048D01*
X29428571Y64734524D01*
X29333333Y64877381D01*
X29190476Y64972619D01*
X28999999Y65020238D01*
X28809523Y64972619D01*
X28666666Y64877381D01*
X28142857Y64877381D02*
X28142857Y63877381D01*
X27714285Y64877381D02*
X27714285Y64353571D01*
X27761904Y64258333D01*
X27857142Y64210714D01*
X28000000Y64210714D01*
X28095238Y64258333D01*
X28142857Y64305952D01*
X26809523Y64877381D02*
X26809523Y64353571D01*
X26857142Y64258333D01*
X26952380Y64210714D01*
X27142857Y64210714D01*
X27238095Y64258333D01*
X26809523Y64829762D02*
X26904761Y64877381D01*
X27142857Y64877381D01*
X27238095Y64829762D01*
X27285714Y64734524D01*
X27285714Y64639286D01*
X27238095Y64544048D01*
X27142857Y64496429D01*
X26904761Y64496429D01*
X26809523Y64448810D01*
X26333333Y64877381D02*
X26333333Y64210714D01*
X26333333Y64305952D02*
X26285714Y64258333D01*
X26190476Y64210714D01*
X26047618Y64210714D01*
X25952380Y64258333D01*
X25904761Y64353571D01*
X25904761Y64877381D01*
X25904761Y64353571D02*
X25857142Y64258333D01*
X25761904Y64210714D01*
X25619047Y64210714D01*
X25523809Y64258333D01*
X25476190Y64353571D01*
X25476190Y64877381D01*
X25000000Y64877381D02*
X25000000Y64210714D01*
X25000000Y63877381D02*
X25047619Y63925000D01*
X25000000Y63972619D01*
X24952381Y63925000D01*
X25000000Y63877381D01*
X25000000Y63972619D01*
X24666667Y64210714D02*
X24285715Y64210714D01*
X24523810Y63877381D02*
X24523810Y64734524D01*
X24476191Y64829762D01*
X24380953Y64877381D01*
X24285715Y64877381D01*
X24047619Y64210714D02*
X23809524Y64877381D01*
X23571428Y64210714D02*
X23809524Y64877381D01*
X23904762Y65115476D01*
X23952381Y65163095D01*
X24047619Y65210714D01*
X22761904Y64877381D02*
X22761904Y64353571D01*
X22809523Y64258333D01*
X22904761Y64210714D01*
X23095238Y64210714D01*
X23190476Y64258333D01*
X22761904Y64829762D02*
X22857142Y64877381D01*
X23095238Y64877381D01*
X23190476Y64829762D01*
X23238095Y64734524D01*
X23238095Y64639286D01*
X23190476Y64544048D01*
X23095238Y64496429D01*
X22857142Y64496429D01*
X22761904Y64448810D01*
X22285714Y64210714D02*
X22285714Y64877381D01*
X22285714Y64305952D02*
X22238095Y64258333D01*
X22142857Y64210714D01*
X21999999Y64210714D01*
X21904761Y64258333D01*
X21857142Y64353571D01*
X21857142Y64877381D01*
X21380952Y64877381D02*
X21380952Y64210714D01*
X21380952Y63877381D02*
X21428571Y63925000D01*
X21380952Y63972619D01*
X21333333Y63925000D01*
X21380952Y63877381D01*
X21380952Y63972619D01*
X20904762Y64877381D02*
X20904762Y63877381D01*
X20809524Y64496429D02*
X20523809Y64877381D01*
X20523809Y64210714D02*
X20904762Y64591667D01*
D19*
X27700000Y50100000D03*
X27100000Y50100000D03*
X27100000Y47900000D03*
X27700000Y47900000D03*
D20*
X26300000Y49600000D03*
X26300000Y49000000D03*
X26300000Y48400000D03*
X28500000Y48400000D03*
X28500000Y49000000D03*
X28500000Y49600000D03*
D21*
X20400000Y13900000D03*
X20400000Y13400000D03*
X20400000Y12900000D03*
X20400000Y12400000D03*
X20400000Y11900000D03*
X23400000Y11900000D03*
X23400000Y12400000D03*
X23400000Y12900000D03*
X23400000Y13400000D03*
X23400000Y13900000D03*
D22*
X22311480Y12300000D03*
X22311480Y13500000D03*
X21488520Y13500000D03*
X21488520Y12300000D03*
D23*
X22150000Y14450000D03*
X21650000Y14450000D03*
X21650000Y11350000D03*
X22150000Y11350000D03*
D24*
X21900000Y12900000D03*
X22400000Y13650000D03*
X21400000Y13650000D03*
X21400000Y12150000D03*
X22400000Y12150000D03*
D25*
X4450000Y53049998D03*
X4450000Y51149998D03*
X4450000Y52099998D03*
X7250000Y52099998D03*
X7250000Y53049998D03*
X7250000Y51149998D03*
D26*
X5850000Y51499998D03*
X5850000Y52699998D03*
D27*
X6300000Y52099998D03*
X5400000Y52099998D03*
X5850000Y51199998D03*
X5850000Y52999998D03*
D28*
X30635295Y10886745D03*
X30635295Y9386745D03*
D29*
X20399594Y18600000D03*
X23447594Y18600000D03*
D30*
X9990001Y63800000D03*
D31*
X7450001Y63800000D03*
X4910001Y63800000D03*
X2370001Y63800000D03*
D32*
X20450000Y33000000D03*
X22350000Y33000000D03*
D28*
X8191594Y13859178D03*
X8191594Y15359178D03*
X9796593Y13855847D03*
X9796593Y15355847D03*
X5300000Y42650001D03*
X5300000Y41150001D03*
X13300000Y23449999D03*
X13300000Y24949999D03*
X9299999Y24950001D03*
X9299999Y23450001D03*
X11299999Y23450001D03*
X11299999Y24950001D03*
X7299999Y24950000D03*
X7299999Y23450000D03*
X28150001Y26915543D03*
X28150001Y25415543D03*
X28150000Y24158763D03*
X28150000Y22658763D03*
X30635294Y8186747D03*
X30635294Y6686747D03*
X17923594Y15442821D03*
X17923594Y13942821D03*
X17923594Y12842822D03*
X17923594Y11342822D03*
X35250000Y35350000D03*
X35250000Y36850000D03*
X32850000Y43300000D03*
X32850000Y44800000D03*
X35249999Y31500001D03*
X35249999Y30000001D03*
D33*
X4450000Y13800000D03*
X5400000Y13800000D03*
X6350000Y13800000D03*
X6350000Y16000000D03*
X4450000Y16000000D03*
X5400000Y16000000D03*
X24100001Y24765543D03*
X25050001Y24765543D03*
X26000001Y24765543D03*
X26000001Y26965543D03*
X24100001Y26965543D03*
D29*
X1375999Y24200001D03*
X4423999Y24200001D03*
D28*
X16223594Y14042821D03*
X16223594Y12542821D03*
D34*
X16949020Y5850000D03*
X14850980Y5850000D03*
D35*
X12000001Y5599999D03*
X12000001Y7499999D03*
D36*
X20500000Y30400000D03*
X7750001Y19350000D03*
X15950000Y10700000D03*
X30100000Y24800000D03*
X2850000Y17650000D03*
X26050000Y29600000D03*
X24000000Y29600000D03*
X28400000Y44950000D03*
X31400001Y30699999D03*
X31400001Y36200000D03*
X2800000Y20100000D03*
D37*
X34650000Y39550000D03*
X35250000Y39550000D03*
X35850000Y39550000D03*
X35850000Y41950000D03*
X35250000Y41950000D03*
X34650000Y41950000D03*
D38*
X34450000Y25023333D03*
X35100000Y25023333D03*
X35750000Y25023333D03*
X35750000Y26623333D03*
X35100000Y26623333D03*
X34450000Y26623333D03*
D28*
X3300000Y42649999D03*
X3300000Y41149999D03*
D39*
X25300000Y8062000D03*
X25300000Y6538000D03*
D40*
X24000000Y4200000D03*
X24000000Y59060000D03*
D41*
X30730000Y4200000D03*
D40*
X8000000Y59060000D03*
X8000000Y4200000D03*
D41*
X1270000Y59060000D03*
D42*
X16000000Y61800000D03*
X2900000Y10100000D03*
D43*
X13300000Y26900000D03*
X11300000Y26900000D03*
X9300000Y26900000D03*
X7300000Y26900000D03*
X5300000Y26900000D03*
X3300000Y26900000D03*
X1300000Y26900000D03*
X13300000Y39100000D03*
X11300000Y39100000D03*
X9300000Y39100000D03*
X7300000Y39100000D03*
X5300000Y39100000D03*
X3300000Y39100000D03*
X1300000Y39100000D03*
D44*
X19338000Y5850000D03*
X20862000Y5850000D03*
D34*
X16650980Y33000000D03*
X18749020Y33000000D03*
D45*
X17800000Y24650000D03*
X17800000Y29150000D03*
X17800000Y36850000D03*
X17800000Y41350000D03*
X3150000Y6450000D03*
X3150000Y1950000D03*
D46*
X27000000Y11025000D03*
X27000000Y13575000D03*
D47*
X21000000Y15800000D03*
X22500000Y15800000D03*
X24150001Y22558761D03*
X25650001Y22558761D03*
D48*
X32850002Y41900000D03*
X32850002Y40400000D03*
X32800000Y25250000D03*
X32800000Y26750000D03*
X28000000Y51950000D03*
X28000000Y53450000D03*
X2850000Y52100000D03*
X2850000Y53600000D03*
D47*
X22658888Y10059562D03*
X21158888Y10059562D03*
D48*
X2500000Y13750000D03*
X2500000Y15250000D03*
D47*
X22658888Y8559567D03*
X21158888Y8559567D03*
M02*
