G04 #@! TF.FileFunction,Paste,Top*
%FSLAX46Y46*%
G04 Gerber Fmt 4.6, Leading zero omitted, Abs format (unit mm)*
G04 Created by KiCad (PCBNEW 4.0.5) date 2017 April 23, Sunday 17:14:46*
%MOMM*%
%LPD*%
G01*
G04 APERTURE LIST*
%ADD10C,0.100000*%
%ADD11O,0.290000X0.740000*%
%ADD12O,0.740000X0.290000*%
%ADD13R,0.790000X0.220000*%
%ADD14R,0.682960X1.060000*%
%ADD15R,0.220000X0.640000*%
%ADD16R,0.540000X0.340000*%
%ADD17R,1.360000X1.060000*%
%ADD18R,0.840000X0.440000*%
%ADD19R,1.890720X2.439360*%
%ADD20R,0.640000X1.240000*%
%ADD21R,0.590000X1.000000*%
%ADD22R,1.138880X1.138880*%
%ADD23R,1.240000X0.640000*%
%ADD24R,0.340000X1.340000*%
%ADD25R,0.340000X1.240000*%
%ADD26R,0.940000X0.940000*%
%ADD27R,1.940000X0.940000*%
%ADD28R,1.900000X1.150000*%
%ADD29R,0.740000X0.690000*%
%ADD30R,0.690000X0.740000*%
G04 APERTURE END LIST*
D10*
D11*
X27700000Y50100000D03*
X27100000Y50100000D03*
X27100000Y47900000D03*
X27700000Y47900000D03*
D12*
X26300000Y49600000D03*
X26300000Y49000000D03*
X26300000Y48400000D03*
X28500000Y48400000D03*
X28500000Y49000000D03*
X28500000Y49600000D03*
D13*
X20400000Y13900000D03*
X20400000Y13400000D03*
X20400000Y12900000D03*
X20400000Y12400000D03*
X20400000Y11900000D03*
X23400000Y11900000D03*
X23400000Y12400000D03*
X23400000Y12900000D03*
X23400000Y13400000D03*
X23400000Y13900000D03*
D14*
X22311480Y12300000D03*
X22311480Y13500000D03*
X21488520Y13500000D03*
X21488520Y12300000D03*
D15*
X22150000Y14450000D03*
X21650000Y14450000D03*
X21650000Y11350000D03*
X22150000Y11350000D03*
D16*
X4450000Y53049998D03*
X4450000Y51149998D03*
X4450000Y52099998D03*
X7250000Y52099998D03*
X7250000Y53049998D03*
X7250000Y51149998D03*
D17*
X5850000Y51499998D03*
X5850000Y52699998D03*
D18*
X30635295Y10886745D03*
X30635295Y9386745D03*
D19*
X20399594Y18600000D03*
X23447594Y18600000D03*
D20*
X20450000Y33000000D03*
X22350000Y33000000D03*
D18*
X8191594Y13859178D03*
X8191594Y15359178D03*
X9796593Y13855847D03*
X9796593Y15355847D03*
X5300000Y42650001D03*
X5300000Y41150001D03*
X13300000Y23449999D03*
X13300000Y24949999D03*
X9299999Y24950001D03*
X9299999Y23450001D03*
X11299999Y23450001D03*
X11299999Y24950001D03*
X7299999Y24950000D03*
X7299999Y23450000D03*
X28150001Y26915543D03*
X28150001Y25415543D03*
X28150000Y24158763D03*
X28150000Y22658763D03*
X30635294Y8186747D03*
X30635294Y6686747D03*
X17923594Y15442821D03*
X17923594Y13942821D03*
X17923594Y12842822D03*
X17923594Y11342822D03*
X35250000Y35350000D03*
X35250000Y36850000D03*
X32850000Y43300000D03*
X32850000Y44800000D03*
X35249999Y31500001D03*
X35249999Y30000001D03*
D21*
X4450000Y13800000D03*
X5400000Y13800000D03*
X6350000Y13800000D03*
X6350000Y16000000D03*
X4450000Y16000000D03*
X5400000Y16000000D03*
X24100001Y24765543D03*
X25050001Y24765543D03*
X26000001Y24765543D03*
X26000001Y26965543D03*
X24100001Y26965543D03*
D19*
X1375999Y24200001D03*
X4423999Y24200001D03*
D18*
X16223594Y14042821D03*
X16223594Y12542821D03*
D22*
X16949020Y5850000D03*
X14850980Y5850000D03*
D23*
X12000001Y5599999D03*
X12000001Y7499999D03*
D24*
X34650000Y39550000D03*
X35250000Y39550000D03*
X35850000Y39550000D03*
X35850000Y41950000D03*
X35250000Y41950000D03*
X34650000Y41950000D03*
D25*
X34450000Y25023333D03*
X35100000Y25023333D03*
X35750000Y25023333D03*
X35750000Y26623333D03*
X35100000Y26623333D03*
X34450000Y26623333D03*
D18*
X3300000Y42649999D03*
X3300000Y41149999D03*
D26*
X13300000Y26900000D03*
X11300000Y26900000D03*
X9300000Y26900000D03*
X7300000Y26900000D03*
X5300000Y26900000D03*
X3300000Y26900000D03*
X1300000Y26900000D03*
X13300000Y39100000D03*
X11300000Y39100000D03*
X9300000Y39100000D03*
X7300000Y39100000D03*
X5300000Y39100000D03*
X3300000Y39100000D03*
X1300000Y39100000D03*
D22*
X16650980Y33000000D03*
X18749020Y33000000D03*
D27*
X17800000Y24650000D03*
X17800000Y29150000D03*
X17800000Y36850000D03*
X17800000Y41350000D03*
X3150000Y6450000D03*
X3150000Y1950000D03*
D28*
X27000000Y11025000D03*
X27000000Y13575000D03*
D29*
X21000000Y15800000D03*
X22500000Y15800000D03*
X24150001Y22558761D03*
X25650001Y22558761D03*
D30*
X32850002Y41900000D03*
X32850002Y40400000D03*
X32800000Y25250000D03*
X32800000Y26750000D03*
X28000000Y51950000D03*
X28000000Y53450000D03*
X2850000Y52100000D03*
X2850000Y53600000D03*
D29*
X22658888Y10059562D03*
X21158888Y10059562D03*
D30*
X2500000Y13750000D03*
X2500000Y15250000D03*
D29*
X22658888Y8559567D03*
X21158888Y8559567D03*
M02*
