G04 #@! TF.FileFunction,Soldermask,Top*
%FSLAX46Y46*%
G04 Gerber Fmt 4.6, Leading zero omitted, Abs format (unit mm)*
G04 Created by KiCad (PCBNEW 4.0.5) date 2017 April 23, Sunday 17:14:46*
%MOMM*%
%LPD*%
G01*
G04 APERTURE LIST*
%ADD10C,0.100000*%
%ADD11C,0.400000*%
%ADD12C,0.150000*%
G04 APERTURE END LIST*
D10*
D11*
X24500000Y7300000D02*
X26050000Y7300000D01*
D12*
X28928571Y62322619D02*
X28880952Y62275000D01*
X28785714Y62227381D01*
X28547618Y62227381D01*
X28452380Y62275000D01*
X28404761Y62322619D01*
X28357142Y62417857D01*
X28357142Y62513095D01*
X28404761Y62655952D01*
X28976190Y63227381D01*
X28357142Y63227381D01*
X27738095Y62227381D02*
X27642856Y62227381D01*
X27547618Y62275000D01*
X27499999Y62322619D01*
X27452380Y62417857D01*
X27404761Y62608333D01*
X27404761Y62846429D01*
X27452380Y63036905D01*
X27499999Y63132143D01*
X27547618Y63179762D01*
X27642856Y63227381D01*
X27738095Y63227381D01*
X27833333Y63179762D01*
X27880952Y63132143D01*
X27928571Y63036905D01*
X27976190Y62846429D01*
X27976190Y62608333D01*
X27928571Y62417857D01*
X27880952Y62322619D01*
X27833333Y62275000D01*
X27738095Y62227381D01*
X26452380Y63227381D02*
X27023809Y63227381D01*
X26738095Y63227381D02*
X26738095Y62227381D01*
X26833333Y62370238D01*
X26928571Y62465476D01*
X27023809Y62513095D01*
X25595237Y62227381D02*
X25785714Y62227381D01*
X25880952Y62275000D01*
X25928571Y62322619D01*
X26023809Y62465476D01*
X26071428Y62655952D01*
X26071428Y63036905D01*
X26023809Y63132143D01*
X25976190Y63179762D01*
X25880952Y63227381D01*
X25690475Y63227381D01*
X25595237Y63179762D01*
X25547618Y63132143D01*
X25499999Y63036905D01*
X25499999Y62798810D01*
X25547618Y62703571D01*
X25595237Y62655952D01*
X25690475Y62608333D01*
X25880952Y62608333D01*
X25976190Y62655952D01*
X26023809Y62703571D01*
X26071428Y62798810D01*
X25023809Y63179762D02*
X25023809Y63227381D01*
X25071428Y63322619D01*
X25119047Y63370238D01*
X23833333Y63227381D02*
X23833333Y62227381D01*
X23261904Y63227381D01*
X23261904Y62227381D01*
X22642857Y63227381D02*
X22738095Y63179762D01*
X22785714Y63132143D01*
X22833333Y63036905D01*
X22833333Y62751190D01*
X22785714Y62655952D01*
X22738095Y62608333D01*
X22642857Y62560714D01*
X22499999Y62560714D01*
X22404761Y62608333D01*
X22357142Y62655952D01*
X22309523Y62751190D01*
X22309523Y63036905D01*
X22357142Y63132143D01*
X22404761Y63179762D01*
X22499999Y63227381D01*
X22642857Y63227381D01*
X21976190Y62560714D02*
X21738095Y63227381D01*
X21499999Y62560714D01*
X21119047Y63132143D02*
X21071428Y63179762D01*
X21119047Y63227381D01*
X21166666Y63179762D01*
X21119047Y63132143D01*
X21119047Y63227381D01*
X28809523Y64401190D02*
X28857142Y64353571D01*
X28952380Y64305952D01*
X29047618Y64305952D01*
X29142856Y64353571D01*
X29190476Y64401190D01*
X29238095Y64496429D01*
X29238095Y64591667D01*
X29190476Y64686905D01*
X29142856Y64734524D01*
X29047618Y64782143D01*
X28952380Y64782143D01*
X28857142Y64734524D01*
X28809523Y64686905D01*
X28809523Y64305952D02*
X28809523Y64686905D01*
X28761904Y64734524D01*
X28714285Y64734524D01*
X28619047Y64686905D01*
X28571428Y64591667D01*
X28571428Y64353571D01*
X28666666Y64210714D01*
X28809523Y64115476D01*
X28999999Y64067857D01*
X29190476Y64115476D01*
X29333333Y64210714D01*
X29428571Y64353571D01*
X29476190Y64544048D01*
X29428571Y64734524D01*
X29333333Y64877381D01*
X29190476Y64972619D01*
X28999999Y65020238D01*
X28809523Y64972619D01*
X28666666Y64877381D01*
X28142857Y64877381D02*
X28142857Y63877381D01*
X27714285Y64877381D02*
X27714285Y64353571D01*
X27761904Y64258333D01*
X27857142Y64210714D01*
X28000000Y64210714D01*
X28095238Y64258333D01*
X28142857Y64305952D01*
X26809523Y64877381D02*
X26809523Y64353571D01*
X26857142Y64258333D01*
X26952380Y64210714D01*
X27142857Y64210714D01*
X27238095Y64258333D01*
X26809523Y64829762D02*
X26904761Y64877381D01*
X27142857Y64877381D01*
X27238095Y64829762D01*
X27285714Y64734524D01*
X27285714Y64639286D01*
X27238095Y64544048D01*
X27142857Y64496429D01*
X26904761Y64496429D01*
X26809523Y64448810D01*
X26333333Y64877381D02*
X26333333Y64210714D01*
X26333333Y64305952D02*
X26285714Y64258333D01*
X26190476Y64210714D01*
X26047618Y64210714D01*
X25952380Y64258333D01*
X25904761Y64353571D01*
X25904761Y64877381D01*
X25904761Y64353571D02*
X25857142Y64258333D01*
X25761904Y64210714D01*
X25619047Y64210714D01*
X25523809Y64258333D01*
X25476190Y64353571D01*
X25476190Y64877381D01*
X25000000Y64877381D02*
X25000000Y64210714D01*
X25000000Y63877381D02*
X25047619Y63925000D01*
X25000000Y63972619D01*
X24952381Y63925000D01*
X25000000Y63877381D01*
X25000000Y63972619D01*
X24666667Y64210714D02*
X24285715Y64210714D01*
X24523810Y63877381D02*
X24523810Y64734524D01*
X24476191Y64829762D01*
X24380953Y64877381D01*
X24285715Y64877381D01*
X24047619Y64210714D02*
X23809524Y64877381D01*
X23571428Y64210714D02*
X23809524Y64877381D01*
X23904762Y65115476D01*
X23952381Y65163095D01*
X24047619Y65210714D01*
X22761904Y64877381D02*
X22761904Y64353571D01*
X22809523Y64258333D01*
X22904761Y64210714D01*
X23095238Y64210714D01*
X23190476Y64258333D01*
X22761904Y64829762D02*
X22857142Y64877381D01*
X23095238Y64877381D01*
X23190476Y64829762D01*
X23238095Y64734524D01*
X23238095Y64639286D01*
X23190476Y64544048D01*
X23095238Y64496429D01*
X22857142Y64496429D01*
X22761904Y64448810D01*
X22285714Y64210714D02*
X22285714Y64877381D01*
X22285714Y64305952D02*
X22238095Y64258333D01*
X22142857Y64210714D01*
X21999999Y64210714D01*
X21904761Y64258333D01*
X21857142Y64353571D01*
X21857142Y64877381D01*
X21380952Y64877381D02*
X21380952Y64210714D01*
X21380952Y63877381D02*
X21428571Y63925000D01*
X21380952Y63972619D01*
X21333333Y63925000D01*
X21380952Y63877381D01*
X21380952Y63972619D01*
X20904762Y64877381D02*
X20904762Y63877381D01*
X20809524Y64496429D02*
X20523809Y64877381D01*
X20523809Y64210714D02*
X20904762Y64591667D01*
D10*
G36*
X4280000Y1320000D02*
X2020000Y1320000D01*
X2020000Y2580000D01*
X4280000Y2580000D01*
X4280000Y1320000D01*
X4280000Y1320000D01*
G37*
G36*
X24144947Y5579082D02*
X24410054Y5524664D01*
X24659536Y5419791D01*
X24883902Y5268455D01*
X25074600Y5076420D01*
X25224366Y4851006D01*
X25327495Y4600796D01*
X25379993Y4335660D01*
X25379993Y4335650D01*
X25380059Y4335316D01*
X25375743Y4026203D01*
X25375666Y4025865D01*
X25375666Y4025857D01*
X25315788Y3762298D01*
X25205711Y3515062D01*
X25049711Y3293917D01*
X24853722Y3107279D01*
X24625224Y2962270D01*
X24372905Y2864401D01*
X24106387Y2817408D01*
X23835814Y2823075D01*
X23571489Y2881191D01*
X23323495Y2989537D01*
X23101266Y3143990D01*
X22913267Y3338669D01*
X22766666Y3566149D01*
X22667039Y3817777D01*
X22618183Y4083969D01*
X22621963Y4354573D01*
X22678229Y4619288D01*
X22784844Y4868038D01*
X22937742Y5091340D01*
X23131103Y5280694D01*
X23357557Y5428881D01*
X23608483Y5530261D01*
X23874318Y5580972D01*
X24144947Y5579082D01*
X24144947Y5579082D01*
G37*
G36*
X8144947Y5579082D02*
X8410054Y5524664D01*
X8659536Y5419791D01*
X8883902Y5268455D01*
X9074600Y5076420D01*
X9224366Y4851006D01*
X9327495Y4600796D01*
X9379993Y4335660D01*
X9379993Y4335650D01*
X9380059Y4335316D01*
X9375743Y4026203D01*
X9375666Y4025865D01*
X9375666Y4025857D01*
X9315788Y3762298D01*
X9205711Y3515062D01*
X9049711Y3293917D01*
X8853722Y3107279D01*
X8625224Y2962270D01*
X8372905Y2864401D01*
X8106387Y2817408D01*
X7835814Y2823075D01*
X7571489Y2881191D01*
X7323495Y2989537D01*
X7101266Y3143990D01*
X6913267Y3338669D01*
X6766666Y3566149D01*
X6667039Y3817777D01*
X6618183Y4083969D01*
X6621963Y4354573D01*
X6678229Y4619288D01*
X6784844Y4868038D01*
X6937742Y5091340D01*
X7131103Y5280694D01*
X7357557Y5428881D01*
X7608483Y5530261D01*
X7874318Y5580972D01*
X8144947Y5579082D01*
X8144947Y5579082D01*
G37*
G36*
X30827682Y5129382D02*
X31006341Y5092709D01*
X31174470Y5022034D01*
X31325673Y4920047D01*
X31454188Y4790631D01*
X31555118Y4638721D01*
X31624617Y4470103D01*
X31659974Y4291535D01*
X31659974Y4291525D01*
X31660040Y4291191D01*
X31657131Y4082876D01*
X31657055Y4082542D01*
X31657055Y4082530D01*
X31616728Y3905027D01*
X31542544Y3738409D01*
X31437417Y3589380D01*
X31305334Y3463600D01*
X31151347Y3365877D01*
X30981306Y3299921D01*
X30801696Y3268252D01*
X30619354Y3272071D01*
X30441219Y3311237D01*
X30274094Y3384252D01*
X30124331Y3488340D01*
X29997637Y3619536D01*
X29898838Y3772840D01*
X29831699Y3942414D01*
X29798775Y4121806D01*
X29801322Y4304169D01*
X29839240Y4482563D01*
X29911090Y4650200D01*
X30014130Y4800686D01*
X30144439Y4928295D01*
X30297049Y5028160D01*
X30466152Y5096482D01*
X30645300Y5130656D01*
X30827682Y5129382D01*
X30827682Y5129382D01*
G37*
G36*
X21626200Y4869900D02*
X18573800Y4869900D01*
X18573800Y6830100D01*
X21626200Y6830100D01*
X21626200Y4869900D01*
X21626200Y4869900D01*
G37*
G36*
X12780001Y5119999D02*
X11220001Y5119999D01*
X11220001Y6079999D01*
X12780001Y6079999D01*
X12780001Y5119999D01*
X12780001Y5119999D01*
G37*
G36*
X17678460Y5120560D02*
X16219580Y5120560D01*
X16219580Y6579440D01*
X17678460Y6579440D01*
X17678460Y5120560D01*
X17678460Y5120560D01*
G37*
G36*
X15580420Y5120560D02*
X14121540Y5120560D01*
X14121540Y6579440D01*
X15580420Y6579440D01*
X15580420Y5120560D01*
X15580420Y5120560D01*
G37*
G36*
X4280000Y5820000D02*
X2020000Y5820000D01*
X2020000Y7080000D01*
X4280000Y7080000D01*
X4280000Y5820000D01*
X4280000Y5820000D01*
G37*
G36*
X26230100Y5823800D02*
X24369900Y5823800D01*
X24369900Y8776200D01*
X26230100Y8776200D01*
X26230100Y5823800D01*
X26230100Y5823800D01*
G37*
G36*
X31215294Y6306747D02*
X30055294Y6306747D01*
X30055294Y7066747D01*
X31215294Y7066747D01*
X31215294Y6306747D01*
X31215294Y6306747D01*
G37*
G36*
X12780001Y7019999D02*
X11220001Y7019999D01*
X11220001Y7979999D01*
X12780001Y7979999D01*
X12780001Y7019999D01*
X12780001Y7019999D01*
G37*
G36*
X31215294Y7806747D02*
X30055294Y7806747D01*
X30055294Y8566747D01*
X31215294Y8566747D01*
X31215294Y7806747D01*
X31215294Y7806747D01*
G37*
G36*
X23188888Y8054567D02*
X22128888Y8054567D01*
X22128888Y9064567D01*
X23188888Y9064567D01*
X23188888Y8054567D01*
X23188888Y8054567D01*
G37*
G36*
X21688888Y8054567D02*
X20628888Y8054567D01*
X20628888Y9064567D01*
X21688888Y9064567D01*
X21688888Y8054567D01*
X21688888Y8054567D01*
G37*
G36*
X3057551Y11599003D02*
X3345710Y11539852D01*
X3616888Y11425860D01*
X3860766Y11261362D01*
X4068042Y11052634D01*
X4230834Y10807613D01*
X4342928Y10535650D01*
X4399999Y10247426D01*
X4399999Y10247412D01*
X4400064Y10247083D01*
X4395373Y9911090D01*
X4395297Y9910756D01*
X4395297Y9910745D01*
X4330203Y9624236D01*
X4210554Y9355500D01*
X4040992Y9115128D01*
X3827959Y8912260D01*
X3579591Y8754642D01*
X3305332Y8648262D01*
X3015638Y8597182D01*
X2721537Y8603342D01*
X2434229Y8666511D01*
X2164672Y8784278D01*
X1923112Y8952166D01*
X1718768Y9163770D01*
X1559419Y9411032D01*
X1451129Y9684541D01*
X1398025Y9973879D01*
X1402133Y10268014D01*
X1463293Y10555748D01*
X1579178Y10826128D01*
X1745372Y11068848D01*
X1955547Y11274667D01*
X2201692Y11435740D01*
X2474438Y11545937D01*
X2763390Y11601057D01*
X3057551Y11599003D01*
X3057551Y11599003D01*
G37*
G36*
X31215295Y9006745D02*
X30055295Y9006745D01*
X30055295Y9766745D01*
X31215295Y9766745D01*
X31215295Y9006745D01*
X31215295Y9006745D01*
G37*
G36*
X23188888Y9554562D02*
X22128888Y9554562D01*
X22128888Y10564562D01*
X23188888Y10564562D01*
X23188888Y9554562D01*
X23188888Y9554562D01*
G37*
G36*
X21688888Y9554562D02*
X20628888Y9554562D01*
X20628888Y10564562D01*
X21688888Y10564562D01*
X21688888Y9554562D01*
X21688888Y9554562D01*
G37*
G36*
X16042430Y11579416D02*
X16211484Y11544714D01*
X16370574Y11477839D01*
X16513648Y11381335D01*
X16635254Y11258876D01*
X16730758Y11115132D01*
X16796518Y10955583D01*
X16829972Y10786632D01*
X16829972Y10786622D01*
X16830038Y10786288D01*
X16827285Y10589173D01*
X16827209Y10588839D01*
X16827209Y10588827D01*
X16789055Y10420886D01*
X16718860Y10263227D01*
X16619382Y10122207D01*
X16494402Y10003191D01*
X16348694Y9910723D01*
X16187795Y9848314D01*
X16017841Y9818346D01*
X15845302Y9821960D01*
X15676745Y9859020D01*
X15518605Y9928109D01*
X15376894Y10026601D01*
X15257009Y10150745D01*
X15163525Y10295804D01*
X15099995Y10456263D01*
X15068841Y10626010D01*
X15071251Y10798570D01*
X15107130Y10967371D01*
X15175117Y11125996D01*
X15272617Y11268391D01*
X15395921Y11389139D01*
X15540326Y11483635D01*
X15700337Y11548284D01*
X15869854Y11580621D01*
X16042430Y11579416D01*
X16042430Y11579416D01*
G37*
G36*
X28075000Y10325000D02*
X25925000Y10325000D01*
X25925000Y11725000D01*
X28075000Y11725000D01*
X28075000Y10325000D01*
X28075000Y10325000D01*
G37*
G36*
X31215295Y10506745D02*
X30055295Y10506745D01*
X30055295Y11266745D01*
X31215295Y11266745D01*
X31215295Y10506745D01*
X31215295Y10506745D01*
G37*
G36*
X22420000Y14280000D02*
X22421980Y14266070D01*
X22427761Y14253244D01*
X22436888Y14242536D01*
X22448636Y14234794D01*
X22462076Y14230632D01*
X22470000Y14230000D01*
X22852960Y14230000D01*
X22852960Y14220000D01*
X22854940Y14206070D01*
X22860721Y14193244D01*
X22869848Y14182536D01*
X22881596Y14174794D01*
X22895036Y14170632D01*
X22902960Y14170000D01*
X23955000Y14170000D01*
X23955000Y11630000D01*
X22902960Y11630000D01*
X22889030Y11628020D01*
X22876204Y11622239D01*
X22865496Y11613112D01*
X22857754Y11601364D01*
X22853592Y11587924D01*
X22852960Y11580000D01*
X22852960Y11570000D01*
X22470000Y11570000D01*
X22456070Y11568020D01*
X22443244Y11562239D01*
X22432536Y11553112D01*
X22424794Y11541364D01*
X22420632Y11527924D01*
X22420000Y11520000D01*
X22420000Y10870000D01*
X21380000Y10870000D01*
X21380000Y11520000D01*
X21378020Y11533930D01*
X21372239Y11546756D01*
X21363112Y11557464D01*
X21351364Y11565206D01*
X21337924Y11569368D01*
X21330000Y11570000D01*
X20947040Y11570000D01*
X20947040Y11580000D01*
X20945060Y11593930D01*
X20939279Y11606756D01*
X20930152Y11617464D01*
X20918404Y11625206D01*
X20904964Y11629368D01*
X20897040Y11630000D01*
X19845000Y11630000D01*
X19845000Y14170000D01*
X20897040Y14170000D01*
X20910970Y14171980D01*
X20923796Y14177761D01*
X20934504Y14186888D01*
X20942246Y14198636D01*
X20946408Y14212076D01*
X20947040Y14220000D01*
X20947040Y14230000D01*
X21330000Y14230000D01*
X21343930Y14231980D01*
X21356756Y14237761D01*
X21367464Y14246888D01*
X21375206Y14258636D01*
X21379368Y14272076D01*
X21380000Y14280000D01*
X21380000Y14930000D01*
X22420000Y14930000D01*
X22420000Y14280000D01*
X22420000Y14280000D01*
G37*
G36*
X18503594Y10962822D02*
X17343594Y10962822D01*
X17343594Y11722822D01*
X18503594Y11722822D01*
X18503594Y10962822D01*
X18503594Y10962822D01*
G37*
G36*
X16803594Y12162821D02*
X15643594Y12162821D01*
X15643594Y12922821D01*
X16803594Y12922821D01*
X16803594Y12162821D01*
X16803594Y12162821D01*
G37*
G36*
X18503594Y12462822D02*
X17343594Y12462822D01*
X17343594Y13222822D01*
X18503594Y13222822D01*
X18503594Y12462822D01*
X18503594Y12462822D01*
G37*
G36*
X28075000Y12875000D02*
X25925000Y12875000D01*
X25925000Y14275000D01*
X28075000Y14275000D01*
X28075000Y12875000D01*
X28075000Y12875000D01*
G37*
G36*
X6805000Y13140000D02*
X3995000Y13140000D01*
X3995000Y14460000D01*
X6805000Y14460000D01*
X6805000Y13140000D01*
X6805000Y13140000D01*
G37*
G36*
X3005000Y13220000D02*
X1995000Y13220000D01*
X1995000Y14280000D01*
X3005000Y14280000D01*
X3005000Y13220000D01*
X3005000Y13220000D01*
G37*
G36*
X10376593Y13475847D02*
X9216593Y13475847D01*
X9216593Y14235847D01*
X10376593Y14235847D01*
X10376593Y13475847D01*
X10376593Y13475847D01*
G37*
G36*
X8771594Y13479178D02*
X7611594Y13479178D01*
X7611594Y14239178D01*
X8771594Y14239178D01*
X8771594Y13479178D01*
X8771594Y13479178D01*
G37*
G36*
X18503594Y13562821D02*
X17343594Y13562821D01*
X17343594Y14322821D01*
X18503594Y14322821D01*
X18503594Y13562821D01*
X18503594Y13562821D01*
G37*
G36*
X16803594Y13662821D02*
X15643594Y13662821D01*
X15643594Y14422821D01*
X16803594Y14422821D01*
X16803594Y13662821D01*
X16803594Y13662821D01*
G37*
G36*
X3005000Y14720000D02*
X1995000Y14720000D01*
X1995000Y15780000D01*
X3005000Y15780000D01*
X3005000Y14720000D01*
X3005000Y14720000D01*
G37*
G36*
X10376593Y14975847D02*
X9216593Y14975847D01*
X9216593Y15735847D01*
X10376593Y15735847D01*
X10376593Y14975847D01*
X10376593Y14975847D01*
G37*
G36*
X8771594Y14979178D02*
X7611594Y14979178D01*
X7611594Y15739178D01*
X8771594Y15739178D01*
X8771594Y14979178D01*
X8771594Y14979178D01*
G37*
G36*
X18503594Y15062821D02*
X17343594Y15062821D01*
X17343594Y15822821D01*
X18503594Y15822821D01*
X18503594Y15062821D01*
X18503594Y15062821D01*
G37*
G36*
X23030000Y15295000D02*
X21970000Y15295000D01*
X21970000Y16305000D01*
X23030000Y16305000D01*
X23030000Y15295000D01*
X23030000Y15295000D01*
G37*
G36*
X21530000Y15295000D02*
X20470000Y15295000D01*
X20470000Y16305000D01*
X21530000Y16305000D01*
X21530000Y15295000D01*
X21530000Y15295000D01*
G37*
G36*
X6805000Y15340000D02*
X3995000Y15340000D01*
X3995000Y16660000D01*
X6805000Y16660000D01*
X6805000Y15340000D01*
X6805000Y15340000D01*
G37*
G36*
X2942430Y18529416D02*
X3111484Y18494714D01*
X3270574Y18427839D01*
X3413648Y18331335D01*
X3535254Y18208876D01*
X3630758Y18065132D01*
X3696518Y17905583D01*
X3729972Y17736632D01*
X3729972Y17736622D01*
X3730038Y17736288D01*
X3727285Y17539173D01*
X3727209Y17538839D01*
X3727209Y17538827D01*
X3689055Y17370886D01*
X3618860Y17213227D01*
X3519382Y17072207D01*
X3394402Y16953191D01*
X3248694Y16860723D01*
X3087795Y16798314D01*
X2917841Y16768346D01*
X2745302Y16771960D01*
X2576745Y16809020D01*
X2418605Y16878109D01*
X2276894Y16976601D01*
X2157009Y17100745D01*
X2063525Y17245804D01*
X1999995Y17406263D01*
X1968841Y17576010D01*
X1971251Y17748570D01*
X2007130Y17917371D01*
X2075117Y18075996D01*
X2172617Y18218391D01*
X2295921Y18339139D01*
X2440326Y18433635D01*
X2600337Y18498284D01*
X2769854Y18530621D01*
X2942430Y18529416D01*
X2942430Y18529416D01*
G37*
G36*
X24552954Y17220320D02*
X22342234Y17220320D01*
X22342234Y19979680D01*
X24552954Y19979680D01*
X24552954Y17220320D01*
X24552954Y17220320D01*
G37*
G36*
X21504954Y17220320D02*
X19294234Y17220320D01*
X19294234Y19979680D01*
X21504954Y19979680D01*
X21504954Y17220320D01*
X21504954Y17220320D01*
G37*
G36*
X7842431Y20229416D02*
X8011485Y20194714D01*
X8170575Y20127839D01*
X8313649Y20031335D01*
X8435255Y19908876D01*
X8530759Y19765132D01*
X8596519Y19605583D01*
X8629973Y19436632D01*
X8629973Y19436622D01*
X8630039Y19436288D01*
X8627286Y19239173D01*
X8627210Y19238839D01*
X8627210Y19238827D01*
X8589056Y19070886D01*
X8518861Y18913227D01*
X8419383Y18772207D01*
X8294403Y18653191D01*
X8148695Y18560723D01*
X7987796Y18498314D01*
X7817842Y18468346D01*
X7645303Y18471960D01*
X7476746Y18509020D01*
X7318606Y18578109D01*
X7176895Y18676601D01*
X7057010Y18800745D01*
X6963526Y18945804D01*
X6899996Y19106263D01*
X6868842Y19276010D01*
X6871252Y19448570D01*
X6907131Y19617371D01*
X6975118Y19775996D01*
X7072618Y19918391D01*
X7195922Y20039139D01*
X7340327Y20133635D01*
X7500338Y20198284D01*
X7669855Y20230621D01*
X7842431Y20229416D01*
X7842431Y20229416D01*
G37*
G36*
X2892430Y20979416D02*
X3061484Y20944714D01*
X3220574Y20877839D01*
X3363648Y20781335D01*
X3485254Y20658876D01*
X3580758Y20515132D01*
X3646518Y20355583D01*
X3679972Y20186632D01*
X3679972Y20186622D01*
X3680038Y20186288D01*
X3677285Y19989173D01*
X3677209Y19988839D01*
X3677209Y19988827D01*
X3639055Y19820886D01*
X3568860Y19663227D01*
X3469382Y19522207D01*
X3344402Y19403191D01*
X3198694Y19310723D01*
X3037795Y19248314D01*
X2867841Y19218346D01*
X2695302Y19221960D01*
X2526745Y19259020D01*
X2368605Y19328109D01*
X2226894Y19426601D01*
X2107009Y19550745D01*
X2013525Y19695804D01*
X1949995Y19856263D01*
X1918841Y20026010D01*
X1921251Y20198570D01*
X1957130Y20367371D01*
X2025117Y20525996D01*
X2122617Y20668391D01*
X2245921Y20789139D01*
X2390326Y20883635D01*
X2550337Y20948284D01*
X2719854Y20980621D01*
X2892430Y20979416D01*
X2892430Y20979416D01*
G37*
G36*
X26180001Y22053761D02*
X25120001Y22053761D01*
X25120001Y23063761D01*
X26180001Y23063761D01*
X26180001Y22053761D01*
X26180001Y22053761D01*
G37*
G36*
X24680001Y22053761D02*
X23620001Y22053761D01*
X23620001Y23063761D01*
X24680001Y23063761D01*
X24680001Y22053761D01*
X24680001Y22053761D01*
G37*
G36*
X28730000Y22278763D02*
X27570000Y22278763D01*
X27570000Y23038763D01*
X28730000Y23038763D01*
X28730000Y22278763D01*
X28730000Y22278763D01*
G37*
G36*
X5529359Y22820321D02*
X3318639Y22820321D01*
X3318639Y25579681D01*
X5529359Y25579681D01*
X5529359Y22820321D01*
X5529359Y22820321D01*
G37*
G36*
X2481359Y22820321D02*
X270639Y22820321D01*
X270639Y25579681D01*
X2481359Y25579681D01*
X2481359Y22820321D01*
X2481359Y22820321D01*
G37*
G36*
X13880000Y23069999D02*
X12720000Y23069999D01*
X12720000Y23829999D01*
X13880000Y23829999D01*
X13880000Y23069999D01*
X13880000Y23069999D01*
G37*
G36*
X7879999Y23070000D02*
X6719999Y23070000D01*
X6719999Y23830000D01*
X7879999Y23830000D01*
X7879999Y23070000D01*
X7879999Y23070000D01*
G37*
G36*
X9879999Y23070001D02*
X8719999Y23070001D01*
X8719999Y23830001D01*
X9879999Y23830001D01*
X9879999Y23070001D01*
X9879999Y23070001D01*
G37*
G36*
X11879999Y23070001D02*
X10719999Y23070001D01*
X10719999Y23830001D01*
X11879999Y23830001D01*
X11879999Y23070001D01*
X11879999Y23070001D01*
G37*
G36*
X28730000Y23778763D02*
X27570000Y23778763D01*
X27570000Y24538763D01*
X28730000Y24538763D01*
X28730000Y23778763D01*
X28730000Y23778763D01*
G37*
G36*
X30192430Y25679416D02*
X30361484Y25644714D01*
X30520574Y25577839D01*
X30663648Y25481335D01*
X30785254Y25358876D01*
X30880758Y25215132D01*
X30946518Y25055583D01*
X30979972Y24886632D01*
X30979972Y24886622D01*
X30980038Y24886288D01*
X30977285Y24689173D01*
X30977209Y24688839D01*
X30977209Y24688827D01*
X30939055Y24520886D01*
X30868860Y24363227D01*
X30769382Y24222207D01*
X30644402Y24103191D01*
X30498694Y24010723D01*
X30337795Y23948314D01*
X30167841Y23918346D01*
X29995302Y23921960D01*
X29826745Y23959020D01*
X29668605Y24028109D01*
X29526894Y24126601D01*
X29407009Y24250745D01*
X29313525Y24395804D01*
X29249995Y24556263D01*
X29218841Y24726010D01*
X29221251Y24898570D01*
X29257130Y25067371D01*
X29325117Y25225996D01*
X29422617Y25368391D01*
X29545921Y25489139D01*
X29690326Y25583635D01*
X29850337Y25648284D01*
X30019854Y25680621D01*
X30192430Y25679416D01*
X30192430Y25679416D01*
G37*
G36*
X18930000Y24020000D02*
X16670000Y24020000D01*
X16670000Y25280000D01*
X18930000Y25280000D01*
X18930000Y24020000D01*
X18930000Y24020000D01*
G37*
G36*
X26455001Y24105543D02*
X23645001Y24105543D01*
X23645001Y25425543D01*
X26455001Y25425543D01*
X26455001Y24105543D01*
X26455001Y24105543D01*
G37*
G36*
X36080000Y24243333D02*
X34120000Y24243333D01*
X34120000Y27403333D01*
X36080000Y27403333D01*
X36080000Y24243333D01*
X36080000Y24243333D01*
G37*
G36*
X13880000Y24569999D02*
X12720000Y24569999D01*
X12720000Y25329999D01*
X13880000Y25329999D01*
X13880000Y24569999D01*
X13880000Y24569999D01*
G37*
G36*
X7879999Y24570000D02*
X6719999Y24570000D01*
X6719999Y25330000D01*
X7879999Y25330000D01*
X7879999Y24570000D01*
X7879999Y24570000D01*
G37*
G36*
X11879999Y24570001D02*
X10719999Y24570001D01*
X10719999Y25330001D01*
X11879999Y25330001D01*
X11879999Y24570001D01*
X11879999Y24570001D01*
G37*
G36*
X9879999Y24570001D02*
X8719999Y24570001D01*
X8719999Y25330001D01*
X9879999Y25330001D01*
X9879999Y24570001D01*
X9879999Y24570001D01*
G37*
G36*
X33305000Y24720000D02*
X32295000Y24720000D01*
X32295000Y25780000D01*
X33305000Y25780000D01*
X33305000Y24720000D01*
X33305000Y24720000D01*
G37*
G36*
X28730001Y25035543D02*
X27570001Y25035543D01*
X27570001Y25795543D01*
X28730001Y25795543D01*
X28730001Y25035543D01*
X28730001Y25035543D01*
G37*
G36*
X33305000Y26220000D02*
X32295000Y26220000D01*
X32295000Y27280000D01*
X33305000Y27280000D01*
X33305000Y26220000D01*
X33305000Y26220000D01*
G37*
G36*
X13930000Y26270000D02*
X12670000Y26270000D01*
X12670000Y27530000D01*
X13930000Y27530000D01*
X13930000Y26270000D01*
X13930000Y26270000D01*
G37*
G36*
X11930000Y26270000D02*
X10670000Y26270000D01*
X10670000Y27530000D01*
X11930000Y27530000D01*
X11930000Y26270000D01*
X11930000Y26270000D01*
G37*
G36*
X1930000Y26270000D02*
X670000Y26270000D01*
X670000Y27530000D01*
X1930000Y27530000D01*
X1930000Y26270000D01*
X1930000Y26270000D01*
G37*
G36*
X3930000Y26270000D02*
X2670000Y26270000D01*
X2670000Y27530000D01*
X3930000Y27530000D01*
X3930000Y26270000D01*
X3930000Y26270000D01*
G37*
G36*
X9930000Y26270000D02*
X8670000Y26270000D01*
X8670000Y27530000D01*
X9930000Y27530000D01*
X9930000Y26270000D01*
X9930000Y26270000D01*
G37*
G36*
X5930000Y26270000D02*
X4670000Y26270000D01*
X4670000Y27530000D01*
X5930000Y27530000D01*
X5930000Y26270000D01*
X5930000Y26270000D01*
G37*
G36*
X7930000Y26270000D02*
X6670000Y26270000D01*
X6670000Y27530000D01*
X7930000Y27530000D01*
X7930000Y26270000D01*
X7930000Y26270000D01*
G37*
G36*
X24555001Y26305543D02*
X23645001Y26305543D01*
X23645001Y27625543D01*
X24555001Y27625543D01*
X24555001Y26305543D01*
X24555001Y26305543D01*
G37*
G36*
X26455001Y26305543D02*
X25545001Y26305543D01*
X25545001Y27625543D01*
X26455001Y27625543D01*
X26455001Y26305543D01*
X26455001Y26305543D01*
G37*
G36*
X28730001Y26535543D02*
X27570001Y26535543D01*
X27570001Y27295543D01*
X28730001Y27295543D01*
X28730001Y26535543D01*
X28730001Y26535543D01*
G37*
G36*
X18930000Y28520000D02*
X16670000Y28520000D01*
X16670000Y29780000D01*
X18930000Y29780000D01*
X18930000Y28520000D01*
X18930000Y28520000D01*
G37*
G36*
X24092430Y30479416D02*
X24261484Y30444714D01*
X24420574Y30377839D01*
X24563648Y30281335D01*
X24685254Y30158876D01*
X24780758Y30015132D01*
X24846518Y29855583D01*
X24879972Y29686632D01*
X24879972Y29686622D01*
X24880038Y29686288D01*
X24877285Y29489173D01*
X24877209Y29488839D01*
X24877209Y29488827D01*
X24839055Y29320886D01*
X24768860Y29163227D01*
X24669382Y29022207D01*
X24544402Y28903191D01*
X24398694Y28810723D01*
X24237795Y28748314D01*
X24067841Y28718346D01*
X23895302Y28721960D01*
X23726745Y28759020D01*
X23568605Y28828109D01*
X23426894Y28926601D01*
X23307009Y29050745D01*
X23213525Y29195804D01*
X23149995Y29356263D01*
X23118841Y29526010D01*
X23121251Y29698570D01*
X23157130Y29867371D01*
X23225117Y30025996D01*
X23322617Y30168391D01*
X23445921Y30289139D01*
X23590326Y30383635D01*
X23750337Y30448284D01*
X23919854Y30480621D01*
X24092430Y30479416D01*
X24092430Y30479416D01*
G37*
G36*
X26142430Y30479416D02*
X26311484Y30444714D01*
X26470574Y30377839D01*
X26613648Y30281335D01*
X26735254Y30158876D01*
X26830758Y30015132D01*
X26896518Y29855583D01*
X26929972Y29686632D01*
X26929972Y29686622D01*
X26930038Y29686288D01*
X26927285Y29489173D01*
X26927209Y29488839D01*
X26927209Y29488827D01*
X26889055Y29320886D01*
X26818860Y29163227D01*
X26719382Y29022207D01*
X26594402Y28903191D01*
X26448694Y28810723D01*
X26287795Y28748314D01*
X26117841Y28718346D01*
X25945302Y28721960D01*
X25776745Y28759020D01*
X25618605Y28828109D01*
X25476894Y28926601D01*
X25357009Y29050745D01*
X25263525Y29195804D01*
X25199995Y29356263D01*
X25168841Y29526010D01*
X25171251Y29698570D01*
X25207130Y29867371D01*
X25275117Y30025996D01*
X25372617Y30168391D01*
X25495921Y30289139D01*
X25640326Y30383635D01*
X25800337Y30448284D01*
X25969854Y30480621D01*
X26142430Y30479416D01*
X26142430Y30479416D01*
G37*
G36*
X20592430Y31279416D02*
X20761484Y31244714D01*
X20920574Y31177839D01*
X21063648Y31081335D01*
X21185254Y30958876D01*
X21280758Y30815132D01*
X21346518Y30655583D01*
X21379972Y30486632D01*
X21379972Y30486622D01*
X21380038Y30486288D01*
X21377285Y30289173D01*
X21377209Y30288839D01*
X21377209Y30288827D01*
X21339055Y30120886D01*
X21268860Y29963227D01*
X21169382Y29822207D01*
X21044402Y29703191D01*
X20898694Y29610723D01*
X20737795Y29548314D01*
X20567841Y29518346D01*
X20395302Y29521960D01*
X20226745Y29559020D01*
X20068605Y29628109D01*
X19926894Y29726601D01*
X19807009Y29850745D01*
X19713525Y29995804D01*
X19649995Y30156263D01*
X19618841Y30326010D01*
X19621251Y30498570D01*
X19657130Y30667371D01*
X19725117Y30825996D01*
X19822617Y30968391D01*
X19945921Y31089139D01*
X20090326Y31183635D01*
X20250337Y31248284D01*
X20419854Y31280621D01*
X20592430Y31279416D01*
X20592430Y31279416D01*
G37*
G36*
X35829999Y29620001D02*
X34669999Y29620001D01*
X34669999Y30380001D01*
X35829999Y30380001D01*
X35829999Y29620001D01*
X35829999Y29620001D01*
G37*
G36*
X31492431Y31579415D02*
X31661485Y31544713D01*
X31820575Y31477838D01*
X31963649Y31381334D01*
X32085255Y31258875D01*
X32180759Y31115131D01*
X32246519Y30955582D01*
X32279973Y30786631D01*
X32279973Y30786621D01*
X32280039Y30786287D01*
X32277286Y30589172D01*
X32277210Y30588838D01*
X32277210Y30588826D01*
X32239056Y30420885D01*
X32168861Y30263226D01*
X32069383Y30122206D01*
X31944403Y30003190D01*
X31798695Y29910722D01*
X31637796Y29848313D01*
X31467842Y29818345D01*
X31295303Y29821959D01*
X31126746Y29859019D01*
X30968606Y29928108D01*
X30826895Y30026600D01*
X30707010Y30150744D01*
X30613526Y30295803D01*
X30549996Y30456262D01*
X30518842Y30626009D01*
X30521252Y30798569D01*
X30557131Y30967370D01*
X30625118Y31125995D01*
X30722618Y31268390D01*
X30845922Y31389138D01*
X30990327Y31483634D01*
X31150338Y31548283D01*
X31319855Y31580620D01*
X31492431Y31579415D01*
X31492431Y31579415D01*
G37*
G36*
X35829999Y31120001D02*
X34669999Y31120001D01*
X34669999Y31880001D01*
X35829999Y31880001D01*
X35829999Y31120001D01*
X35829999Y31120001D01*
G37*
G36*
X20930000Y32220000D02*
X19970000Y32220000D01*
X19970000Y33780000D01*
X20930000Y33780000D01*
X20930000Y32220000D01*
X20930000Y32220000D01*
G37*
G36*
X22830000Y32220000D02*
X21870000Y32220000D01*
X21870000Y33780000D01*
X22830000Y33780000D01*
X22830000Y32220000D01*
X22830000Y32220000D01*
G37*
G36*
X17380420Y32270560D02*
X15921540Y32270560D01*
X15921540Y33729440D01*
X17380420Y33729440D01*
X17380420Y32270560D01*
X17380420Y32270560D01*
G37*
G36*
X19478460Y32270560D02*
X18019580Y32270560D01*
X18019580Y33729440D01*
X19478460Y33729440D01*
X19478460Y32270560D01*
X19478460Y32270560D01*
G37*
G36*
X35830000Y34970000D02*
X34670000Y34970000D01*
X34670000Y35730000D01*
X35830000Y35730000D01*
X35830000Y34970000D01*
X35830000Y34970000D01*
G37*
G36*
X31492431Y37079416D02*
X31661485Y37044714D01*
X31820575Y36977839D01*
X31963649Y36881335D01*
X32085255Y36758876D01*
X32180759Y36615132D01*
X32246519Y36455583D01*
X32279973Y36286632D01*
X32279973Y36286622D01*
X32280039Y36286288D01*
X32277286Y36089173D01*
X32277210Y36088839D01*
X32277210Y36088827D01*
X32239056Y35920886D01*
X32168861Y35763227D01*
X32069383Y35622207D01*
X31944403Y35503191D01*
X31798695Y35410723D01*
X31637796Y35348314D01*
X31467842Y35318346D01*
X31295303Y35321960D01*
X31126746Y35359020D01*
X30968606Y35428109D01*
X30826895Y35526601D01*
X30707010Y35650745D01*
X30613526Y35795804D01*
X30549996Y35956263D01*
X30518842Y36126010D01*
X30521252Y36298570D01*
X30557131Y36467371D01*
X30625118Y36625996D01*
X30722618Y36768391D01*
X30845922Y36889139D01*
X30990327Y36983635D01*
X31150338Y37048284D01*
X31319855Y37080621D01*
X31492431Y37079416D01*
X31492431Y37079416D01*
G37*
G36*
X18930000Y36220000D02*
X16670000Y36220000D01*
X16670000Y37480000D01*
X18930000Y37480000D01*
X18930000Y36220000D01*
X18930000Y36220000D01*
G37*
G36*
X35830000Y36470000D02*
X34670000Y36470000D01*
X34670000Y37230000D01*
X35830000Y37230000D01*
X35830000Y36470000D01*
X35830000Y36470000D01*
G37*
G36*
X9930000Y38470000D02*
X8670000Y38470000D01*
X8670000Y39730000D01*
X9930000Y39730000D01*
X9930000Y38470000D01*
X9930000Y38470000D01*
G37*
G36*
X7930000Y38470000D02*
X6670000Y38470000D01*
X6670000Y39730000D01*
X7930000Y39730000D01*
X7930000Y38470000D01*
X7930000Y38470000D01*
G37*
G36*
X5930000Y38470000D02*
X4670000Y38470000D01*
X4670000Y39730000D01*
X5930000Y39730000D01*
X5930000Y38470000D01*
X5930000Y38470000D01*
G37*
G36*
X11930000Y38470000D02*
X10670000Y38470000D01*
X10670000Y39730000D01*
X11930000Y39730000D01*
X11930000Y38470000D01*
X11930000Y38470000D01*
G37*
G36*
X3930000Y38470000D02*
X2670000Y38470000D01*
X2670000Y39730000D01*
X3930000Y39730000D01*
X3930000Y38470000D01*
X3930000Y38470000D01*
G37*
G36*
X13930000Y38470000D02*
X12670000Y38470000D01*
X12670000Y39730000D01*
X13930000Y39730000D01*
X13930000Y38470000D01*
X13930000Y38470000D01*
G37*
G36*
X1930000Y38470000D02*
X670000Y38470000D01*
X670000Y39730000D01*
X1930000Y39730000D01*
X1930000Y38470000D01*
X1930000Y38470000D01*
G37*
G36*
X36180000Y38720000D02*
X34320000Y38720000D01*
X34320000Y40380000D01*
X36180000Y40380000D01*
X36180000Y38720000D01*
X36180000Y38720000D01*
G37*
G36*
X33355002Y39870000D02*
X32345002Y39870000D01*
X32345002Y40930000D01*
X33355002Y40930000D01*
X33355002Y39870000D01*
X33355002Y39870000D01*
G37*
G36*
X18930000Y40720000D02*
X16670000Y40720000D01*
X16670000Y41980000D01*
X18930000Y41980000D01*
X18930000Y40720000D01*
X18930000Y40720000D01*
G37*
G36*
X3880000Y40769999D02*
X2720000Y40769999D01*
X2720000Y41529999D01*
X3880000Y41529999D01*
X3880000Y40769999D01*
X3880000Y40769999D01*
G37*
G36*
X5880000Y40770001D02*
X4720000Y40770001D01*
X4720000Y41530001D01*
X5880000Y41530001D01*
X5880000Y40770001D01*
X5880000Y40770001D01*
G37*
G36*
X36180000Y41120000D02*
X34320000Y41120000D01*
X34320000Y42780000D01*
X36180000Y42780000D01*
X36180000Y41120000D01*
X36180000Y41120000D01*
G37*
G36*
X33355002Y41370000D02*
X32345002Y41370000D01*
X32345002Y42430000D01*
X33355002Y42430000D01*
X33355002Y41370000D01*
X33355002Y41370000D01*
G37*
G36*
X3880000Y42269999D02*
X2720000Y42269999D01*
X2720000Y43029999D01*
X3880000Y43029999D01*
X3880000Y42269999D01*
X3880000Y42269999D01*
G37*
G36*
X5880000Y42270001D02*
X4720000Y42270001D01*
X4720000Y43030001D01*
X5880000Y43030001D01*
X5880000Y42270001D01*
X5880000Y42270001D01*
G37*
G36*
X33430000Y42920000D02*
X32270000Y42920000D01*
X32270000Y43680000D01*
X33430000Y43680000D01*
X33430000Y42920000D01*
X33430000Y42920000D01*
G37*
G36*
X28492430Y45829416D02*
X28661484Y45794714D01*
X28820574Y45727839D01*
X28963648Y45631335D01*
X29085254Y45508876D01*
X29180758Y45365132D01*
X29246518Y45205583D01*
X29279972Y45036632D01*
X29279972Y45036622D01*
X29280038Y45036288D01*
X29277285Y44839173D01*
X29277209Y44838839D01*
X29277209Y44838827D01*
X29239055Y44670886D01*
X29168860Y44513227D01*
X29069382Y44372207D01*
X28944402Y44253191D01*
X28798694Y44160723D01*
X28637795Y44098314D01*
X28467841Y44068346D01*
X28295302Y44071960D01*
X28126745Y44109020D01*
X27968605Y44178109D01*
X27826894Y44276601D01*
X27707009Y44400745D01*
X27613525Y44545804D01*
X27549995Y44706263D01*
X27518841Y44876010D01*
X27521251Y45048570D01*
X27557130Y45217371D01*
X27625117Y45375996D01*
X27722617Y45518391D01*
X27845921Y45639139D01*
X27990326Y45733635D01*
X28150337Y45798284D01*
X28319854Y45830621D01*
X28492430Y45829416D01*
X28492430Y45829416D01*
G37*
G36*
X33430000Y44420000D02*
X32270000Y44420000D01*
X32270000Y45180000D01*
X33430000Y45180000D01*
X33430000Y44420000D01*
X33430000Y44420000D01*
G37*
G36*
X27761279Y50626342D02*
X27761292Y50626338D01*
X27761329Y50626334D01*
X27818192Y50608732D01*
X27870554Y50580420D01*
X27916419Y50542477D01*
X27954041Y50496348D01*
X27981987Y50443790D01*
X27999191Y50386805D01*
X28005000Y50327564D01*
X28005000Y49878772D01*
X28006980Y49864842D01*
X28012761Y49852016D01*
X28021888Y49841308D01*
X28033636Y49833566D01*
X28047076Y49829404D01*
X28061143Y49829151D01*
X28074724Y49832827D01*
X28086078Y49839708D01*
X28103652Y49854041D01*
X28156210Y49881987D01*
X28213195Y49899191D01*
X28272436Y49905000D01*
X28727595Y49905000D01*
X28728600Y49904993D01*
X28731822Y49904970D01*
X28790977Y49898335D01*
X28847716Y49880336D01*
X28899879Y49851660D01*
X28945478Y49813397D01*
X28982777Y49767007D01*
X29010355Y49714255D01*
X29027162Y49657151D01*
X29027165Y49657116D01*
X29027169Y49657103D01*
X29032559Y49597873D01*
X29026342Y49538721D01*
X29026338Y49538708D01*
X29026334Y49538671D01*
X29008732Y49481808D01*
X28980420Y49429446D01*
X28942477Y49383581D01*
X28896348Y49345959D01*
X28891618Y49343444D01*
X28880967Y49335681D01*
X28872356Y49324555D01*
X28867185Y49311470D01*
X28865865Y49297462D01*
X28868499Y49283642D01*
X28874879Y49271102D01*
X28884500Y49260836D01*
X28890549Y49256789D01*
X28899879Y49251660D01*
X28945478Y49213397D01*
X28982777Y49167007D01*
X29010355Y49114255D01*
X29027162Y49057151D01*
X29027165Y49057116D01*
X29027169Y49057103D01*
X29032559Y48997873D01*
X29026342Y48938721D01*
X29026338Y48938708D01*
X29026334Y48938671D01*
X29008732Y48881808D01*
X28980420Y48829446D01*
X28942477Y48783581D01*
X28896348Y48745959D01*
X28891618Y48743444D01*
X28880967Y48735681D01*
X28872356Y48724555D01*
X28867185Y48711470D01*
X28865865Y48697462D01*
X28868499Y48683642D01*
X28874879Y48671102D01*
X28884500Y48660836D01*
X28890549Y48656789D01*
X28899879Y48651660D01*
X28945478Y48613397D01*
X28982777Y48567007D01*
X29010355Y48514255D01*
X29027162Y48457151D01*
X29027165Y48457116D01*
X29027169Y48457103D01*
X29032559Y48397873D01*
X29026342Y48338721D01*
X29026338Y48338708D01*
X29026334Y48338671D01*
X29008732Y48281808D01*
X28980420Y48229446D01*
X28942477Y48183581D01*
X28896348Y48145959D01*
X28843790Y48118013D01*
X28786805Y48100809D01*
X28727564Y48095000D01*
X28272405Y48095000D01*
X28271400Y48095007D01*
X28268178Y48095030D01*
X28209023Y48101665D01*
X28152284Y48119664D01*
X28100121Y48148340D01*
X28086637Y48159655D01*
X28075196Y48166780D01*
X28061654Y48170595D01*
X28047585Y48170487D01*
X28034103Y48166464D01*
X28022275Y48158843D01*
X28013039Y48148230D01*
X28007125Y48135463D01*
X28005000Y48121040D01*
X28005000Y47672436D01*
X28004970Y47668178D01*
X27998335Y47609023D01*
X27980336Y47552284D01*
X27951660Y47500121D01*
X27913397Y47454522D01*
X27867007Y47417223D01*
X27814255Y47389645D01*
X27757151Y47372838D01*
X27757116Y47372835D01*
X27757103Y47372831D01*
X27697873Y47367441D01*
X27638721Y47373658D01*
X27638708Y47373662D01*
X27638671Y47373666D01*
X27581808Y47391268D01*
X27529446Y47419580D01*
X27483581Y47457523D01*
X27445959Y47503652D01*
X27443444Y47508382D01*
X27435681Y47519033D01*
X27424555Y47527644D01*
X27411470Y47532815D01*
X27397462Y47534135D01*
X27383642Y47531501D01*
X27371102Y47525121D01*
X27360836Y47515500D01*
X27356789Y47509451D01*
X27351660Y47500121D01*
X27313397Y47454522D01*
X27267007Y47417223D01*
X27214255Y47389645D01*
X27157151Y47372838D01*
X27157116Y47372835D01*
X27157103Y47372831D01*
X27097873Y47367441D01*
X27038721Y47373658D01*
X27038708Y47373662D01*
X27038671Y47373666D01*
X26981808Y47391268D01*
X26929446Y47419580D01*
X26883581Y47457523D01*
X26845959Y47503652D01*
X26818013Y47556210D01*
X26800809Y47613195D01*
X26795000Y47672436D01*
X26795000Y48121228D01*
X26793020Y48135158D01*
X26787239Y48147984D01*
X26778112Y48158692D01*
X26766364Y48166434D01*
X26752924Y48170596D01*
X26738857Y48170849D01*
X26725276Y48167173D01*
X26713922Y48160292D01*
X26696348Y48145959D01*
X26643790Y48118013D01*
X26586805Y48100809D01*
X26527564Y48095000D01*
X26072405Y48095000D01*
X26071400Y48095007D01*
X26068178Y48095030D01*
X26009023Y48101665D01*
X25952284Y48119664D01*
X25900121Y48148340D01*
X25854522Y48186603D01*
X25817223Y48232993D01*
X25789645Y48285745D01*
X25772838Y48342849D01*
X25772835Y48342884D01*
X25772831Y48342897D01*
X25767441Y48402127D01*
X25773658Y48461279D01*
X25773662Y48461292D01*
X25773666Y48461329D01*
X25791268Y48518192D01*
X25819580Y48570554D01*
X25857523Y48616419D01*
X25903652Y48654041D01*
X25908382Y48656556D01*
X25919033Y48664319D01*
X25927644Y48675445D01*
X25932815Y48688530D01*
X25934135Y48702538D01*
X25931501Y48716358D01*
X25925121Y48728898D01*
X25915500Y48739164D01*
X25909451Y48743211D01*
X25900121Y48748340D01*
X25854522Y48786603D01*
X25817223Y48832993D01*
X25789645Y48885745D01*
X25772838Y48942849D01*
X25772835Y48942884D01*
X25772831Y48942897D01*
X25767441Y49002127D01*
X25773658Y49061279D01*
X25773662Y49061292D01*
X25773666Y49061329D01*
X25791268Y49118192D01*
X25819580Y49170554D01*
X25857523Y49216419D01*
X25903652Y49254041D01*
X25908382Y49256556D01*
X25919033Y49264319D01*
X25927644Y49275445D01*
X25932815Y49288530D01*
X25933656Y49297462D01*
X26665865Y49297462D01*
X26668499Y49283642D01*
X26674879Y49271102D01*
X26684500Y49260836D01*
X26690549Y49256789D01*
X26699879Y49251660D01*
X26745478Y49213397D01*
X26782777Y49167007D01*
X26810355Y49114255D01*
X26827162Y49057151D01*
X26827165Y49057116D01*
X26827169Y49057103D01*
X26832559Y48997873D01*
X26826342Y48938721D01*
X26826338Y48938708D01*
X26826334Y48938671D01*
X26808732Y48881808D01*
X26780420Y48829446D01*
X26742477Y48783581D01*
X26696348Y48745959D01*
X26691618Y48743444D01*
X26680967Y48735681D01*
X26672356Y48724555D01*
X26667185Y48711470D01*
X26665865Y48697462D01*
X26668499Y48683642D01*
X26674879Y48671102D01*
X26684500Y48660836D01*
X26690549Y48656789D01*
X26699879Y48651660D01*
X26745478Y48613397D01*
X26782777Y48567007D01*
X26810355Y48514255D01*
X26827162Y48457151D01*
X26827165Y48457117D01*
X26827169Y48457104D01*
X26832241Y48401366D01*
X26835475Y48387673D01*
X26842395Y48375424D01*
X26852455Y48365587D01*
X26864856Y48358942D01*
X26878618Y48356015D01*
X26892650Y48357038D01*
X26905842Y48361930D01*
X26912902Y48366623D01*
X26932993Y48382777D01*
X26985745Y48410355D01*
X27042849Y48427162D01*
X27042884Y48427165D01*
X27042897Y48427169D01*
X27102127Y48432559D01*
X27161279Y48426342D01*
X27161292Y48426338D01*
X27161329Y48426334D01*
X27218192Y48408732D01*
X27270554Y48380420D01*
X27316419Y48342477D01*
X27354041Y48296348D01*
X27356556Y48291618D01*
X27364319Y48280967D01*
X27375445Y48272356D01*
X27388530Y48267185D01*
X27402538Y48265865D01*
X27416358Y48268499D01*
X27428898Y48274879D01*
X27439164Y48284500D01*
X27443211Y48290549D01*
X27448340Y48299879D01*
X27486603Y48345478D01*
X27532993Y48382777D01*
X27585745Y48410355D01*
X27642849Y48427162D01*
X27642884Y48427165D01*
X27642897Y48427169D01*
X27702127Y48432559D01*
X27761279Y48426342D01*
X27761292Y48426338D01*
X27761329Y48426334D01*
X27818192Y48408732D01*
X27870554Y48380420D01*
X27886052Y48367599D01*
X27897732Y48360439D01*
X27911301Y48356718D01*
X27925369Y48356925D01*
X27938822Y48361043D01*
X27950596Y48368746D01*
X27959757Y48379424D01*
X27965581Y48392232D01*
X27967333Y48401093D01*
X27973658Y48461279D01*
X27973662Y48461292D01*
X27973666Y48461329D01*
X27991268Y48518192D01*
X28019580Y48570554D01*
X28057523Y48616419D01*
X28103652Y48654041D01*
X28108382Y48656556D01*
X28119033Y48664319D01*
X28127644Y48675445D01*
X28132815Y48688530D01*
X28134135Y48702538D01*
X28131501Y48716358D01*
X28125121Y48728898D01*
X28115500Y48739164D01*
X28109451Y48743211D01*
X28100121Y48748340D01*
X28054522Y48786603D01*
X28017223Y48832993D01*
X27989645Y48885745D01*
X27972838Y48942849D01*
X27972835Y48942884D01*
X27972831Y48942897D01*
X27967441Y49002127D01*
X27973658Y49061279D01*
X27973662Y49061292D01*
X27973666Y49061329D01*
X27991268Y49118192D01*
X28019580Y49170554D01*
X28057523Y49216419D01*
X28103652Y49254041D01*
X28108382Y49256556D01*
X28119033Y49264319D01*
X28127644Y49275445D01*
X28132815Y49288530D01*
X28134135Y49302538D01*
X28131501Y49316358D01*
X28125121Y49328898D01*
X28115500Y49339164D01*
X28109451Y49343211D01*
X28100121Y49348340D01*
X28054522Y49386603D01*
X28017223Y49432993D01*
X27989645Y49485745D01*
X27972838Y49542849D01*
X27972835Y49542883D01*
X27972831Y49542896D01*
X27967759Y49598634D01*
X27964525Y49612327D01*
X27957605Y49624576D01*
X27947545Y49634413D01*
X27935144Y49641058D01*
X27921382Y49643985D01*
X27907350Y49642962D01*
X27894158Y49638070D01*
X27887098Y49633377D01*
X27867007Y49617223D01*
X27814255Y49589645D01*
X27757151Y49572838D01*
X27757116Y49572835D01*
X27757103Y49572831D01*
X27697873Y49567441D01*
X27638721Y49573658D01*
X27638708Y49573662D01*
X27638671Y49573666D01*
X27581808Y49591268D01*
X27529446Y49619580D01*
X27483581Y49657523D01*
X27445959Y49703652D01*
X27443444Y49708382D01*
X27435681Y49719033D01*
X27424555Y49727644D01*
X27411470Y49732815D01*
X27397462Y49734135D01*
X27383642Y49731501D01*
X27371102Y49725121D01*
X27360836Y49715500D01*
X27356789Y49709451D01*
X27351660Y49700121D01*
X27313397Y49654522D01*
X27267007Y49617223D01*
X27214255Y49589645D01*
X27157151Y49572838D01*
X27157116Y49572835D01*
X27157103Y49572831D01*
X27097873Y49567441D01*
X27038721Y49573658D01*
X27038708Y49573662D01*
X27038671Y49573666D01*
X26981808Y49591268D01*
X26929446Y49619580D01*
X26913948Y49632401D01*
X26902268Y49639561D01*
X26888699Y49643282D01*
X26874631Y49643075D01*
X26861178Y49638957D01*
X26849404Y49631254D01*
X26840243Y49620576D01*
X26834419Y49607768D01*
X26832667Y49598907D01*
X26826342Y49538721D01*
X26826338Y49538708D01*
X26826334Y49538671D01*
X26808732Y49481808D01*
X26780420Y49429446D01*
X26742477Y49383581D01*
X26696348Y49345959D01*
X26691618Y49343444D01*
X26680967Y49335681D01*
X26672356Y49324555D01*
X26667185Y49311470D01*
X26665865Y49297462D01*
X25933656Y49297462D01*
X25934135Y49302538D01*
X25931501Y49316358D01*
X25925121Y49328898D01*
X25915500Y49339164D01*
X25909451Y49343211D01*
X25900121Y49348340D01*
X25854522Y49386603D01*
X25817223Y49432993D01*
X25789645Y49485745D01*
X25772838Y49542849D01*
X25772835Y49542884D01*
X25772831Y49542897D01*
X25767441Y49602127D01*
X25773658Y49661279D01*
X25773662Y49661292D01*
X25773666Y49661329D01*
X25791268Y49718192D01*
X25819580Y49770554D01*
X25857523Y49816419D01*
X25903652Y49854041D01*
X25956210Y49881987D01*
X26013195Y49899191D01*
X26072436Y49905000D01*
X26527595Y49905000D01*
X26528600Y49904993D01*
X26531822Y49904970D01*
X26590977Y49898335D01*
X26647716Y49880336D01*
X26699879Y49851660D01*
X26713363Y49840345D01*
X26724804Y49833220D01*
X26738346Y49829405D01*
X26752415Y49829513D01*
X26765897Y49833536D01*
X26777725Y49841157D01*
X26786961Y49851770D01*
X26792875Y49864537D01*
X26795000Y49878960D01*
X26795000Y50327595D01*
X26795016Y50329798D01*
X26795030Y50331822D01*
X26801665Y50390977D01*
X26819664Y50447716D01*
X26848340Y50499879D01*
X26886603Y50545478D01*
X26932993Y50582777D01*
X26985745Y50610355D01*
X27042849Y50627162D01*
X27042884Y50627165D01*
X27042897Y50627169D01*
X27102127Y50632559D01*
X27161279Y50626342D01*
X27161292Y50626338D01*
X27161329Y50626334D01*
X27218192Y50608732D01*
X27270554Y50580420D01*
X27316419Y50542477D01*
X27354041Y50496348D01*
X27356556Y50491618D01*
X27364319Y50480967D01*
X27375445Y50472356D01*
X27388530Y50467185D01*
X27402538Y50465865D01*
X27416358Y50468499D01*
X27428898Y50474879D01*
X27439164Y50484500D01*
X27443211Y50490549D01*
X27448340Y50499879D01*
X27486603Y50545478D01*
X27532993Y50582777D01*
X27585745Y50610355D01*
X27642849Y50627162D01*
X27642884Y50627165D01*
X27642897Y50627169D01*
X27702127Y50632559D01*
X27761279Y50626342D01*
X27761279Y50626342D01*
G37*
G36*
X6801980Y53486068D02*
X6807761Y53473242D01*
X6816888Y53462534D01*
X6828636Y53454792D01*
X6842076Y53450630D01*
X6850000Y53449998D01*
X7750000Y53449998D01*
X7750000Y52649998D01*
X6850000Y52649998D01*
X6836070Y52648018D01*
X6823244Y52642237D01*
X6812536Y52633110D01*
X6804794Y52621362D01*
X6800632Y52607922D01*
X6800000Y52599998D01*
X6800000Y52549998D01*
X6801980Y52536068D01*
X6807761Y52523242D01*
X6816888Y52512534D01*
X6828636Y52504792D01*
X6842076Y52500630D01*
X6850000Y52499998D01*
X7750000Y52499998D01*
X7750000Y51699998D01*
X6850000Y51699998D01*
X6836070Y51698018D01*
X6823244Y51692237D01*
X6812536Y51683110D01*
X6804794Y51671362D01*
X6800632Y51657922D01*
X6800000Y51649998D01*
X6800000Y51599998D01*
X6801980Y51586068D01*
X6807761Y51573242D01*
X6816888Y51562534D01*
X6828636Y51554792D01*
X6842076Y51550630D01*
X6850000Y51549998D01*
X7750000Y51549998D01*
X7750000Y50749998D01*
X6850000Y50749998D01*
X6836070Y50748018D01*
X6823244Y50742237D01*
X6812536Y50733110D01*
X6804794Y50721362D01*
X6800632Y50707922D01*
X6800000Y50699998D01*
X4900000Y50699998D01*
X4898020Y50713928D01*
X4892239Y50726754D01*
X4883112Y50737462D01*
X4871364Y50745204D01*
X4857924Y50749366D01*
X4850000Y50749998D01*
X3950000Y50749998D01*
X3950000Y51549998D01*
X4850000Y51549998D01*
X4863930Y51551978D01*
X4876756Y51557759D01*
X4887464Y51566886D01*
X4895206Y51578634D01*
X4899368Y51592074D01*
X4900000Y51599998D01*
X4900000Y51649998D01*
X4898020Y51663928D01*
X4892239Y51676754D01*
X4883112Y51687462D01*
X4871364Y51695204D01*
X4857924Y51699366D01*
X4850000Y51699998D01*
X3950000Y51699998D01*
X3950000Y52499998D01*
X4850000Y52499998D01*
X4863930Y52501978D01*
X4876756Y52507759D01*
X4887464Y52516886D01*
X4895206Y52528634D01*
X4899368Y52542074D01*
X4900000Y52549998D01*
X4900000Y52599998D01*
X4898020Y52613928D01*
X4892239Y52626754D01*
X4883112Y52637462D01*
X4871364Y52645204D01*
X4857924Y52649366D01*
X4850000Y52649998D01*
X3950000Y52649998D01*
X3950000Y53449998D01*
X4850000Y53449998D01*
X4863930Y53451978D01*
X4876756Y53457759D01*
X4887464Y53466886D01*
X4895206Y53478634D01*
X4899368Y53492074D01*
X4900000Y53499998D01*
X6800000Y53499998D01*
X6801980Y53486068D01*
X6801980Y53486068D01*
G37*
G36*
X28505000Y51420000D02*
X27495000Y51420000D01*
X27495000Y52480000D01*
X28505000Y52480000D01*
X28505000Y51420000D01*
X28505000Y51420000D01*
G37*
G36*
X3355000Y51570000D02*
X2345000Y51570000D01*
X2345000Y52630000D01*
X3355000Y52630000D01*
X3355000Y51570000D01*
X3355000Y51570000D01*
G37*
G36*
X28505000Y52920000D02*
X27495000Y52920000D01*
X27495000Y53980000D01*
X28505000Y53980000D01*
X28505000Y52920000D01*
X28505000Y52920000D01*
G37*
G36*
X3355000Y53070000D02*
X2345000Y53070000D01*
X2345000Y54130000D01*
X3355000Y54130000D01*
X3355000Y53070000D01*
X3355000Y53070000D01*
G37*
G36*
X8144947Y60439082D02*
X8410054Y60384664D01*
X8659536Y60279791D01*
X8883902Y60128455D01*
X9074600Y59936420D01*
X9224366Y59711006D01*
X9327495Y59460796D01*
X9379993Y59195660D01*
X9379993Y59195650D01*
X9380059Y59195316D01*
X9375743Y58886203D01*
X9375666Y58885865D01*
X9375666Y58885857D01*
X9315788Y58622298D01*
X9205711Y58375062D01*
X9049711Y58153917D01*
X8853722Y57967279D01*
X8625224Y57822270D01*
X8372905Y57724401D01*
X8106387Y57677408D01*
X7835814Y57683075D01*
X7571489Y57741191D01*
X7323495Y57849537D01*
X7101266Y58003990D01*
X6913267Y58198669D01*
X6766666Y58426149D01*
X6667039Y58677777D01*
X6618183Y58943969D01*
X6621963Y59214573D01*
X6678229Y59479288D01*
X6784844Y59728038D01*
X6937742Y59951340D01*
X7131103Y60140694D01*
X7357557Y60288881D01*
X7608483Y60390261D01*
X7874318Y60440972D01*
X8144947Y60439082D01*
X8144947Y60439082D01*
G37*
G36*
X24144947Y60439082D02*
X24410054Y60384664D01*
X24659536Y60279791D01*
X24883902Y60128455D01*
X25074600Y59936420D01*
X25224366Y59711006D01*
X25327495Y59460796D01*
X25379993Y59195660D01*
X25379993Y59195650D01*
X25380059Y59195316D01*
X25375743Y58886203D01*
X25375666Y58885865D01*
X25375666Y58885857D01*
X25315788Y58622298D01*
X25205711Y58375062D01*
X25049711Y58153917D01*
X24853722Y57967279D01*
X24625224Y57822270D01*
X24372905Y57724401D01*
X24106387Y57677408D01*
X23835814Y57683075D01*
X23571489Y57741191D01*
X23323495Y57849537D01*
X23101266Y58003990D01*
X22913267Y58198669D01*
X22766666Y58426149D01*
X22667039Y58677777D01*
X22618183Y58943969D01*
X22621963Y59214573D01*
X22678229Y59479288D01*
X22784844Y59728038D01*
X22937742Y59951340D01*
X23131103Y60140694D01*
X23357557Y60288881D01*
X23608483Y60390261D01*
X23874318Y60440972D01*
X24144947Y60439082D01*
X24144947Y60439082D01*
G37*
G36*
X1367682Y59989382D02*
X1546341Y59952709D01*
X1714470Y59882034D01*
X1865673Y59780047D01*
X1994188Y59650631D01*
X2095118Y59498721D01*
X2164617Y59330103D01*
X2199974Y59151535D01*
X2199974Y59151525D01*
X2200040Y59151191D01*
X2197131Y58942876D01*
X2197055Y58942542D01*
X2197055Y58942530D01*
X2156728Y58765027D01*
X2082544Y58598409D01*
X1977417Y58449380D01*
X1845334Y58323600D01*
X1691347Y58225877D01*
X1521306Y58159921D01*
X1341696Y58128252D01*
X1159354Y58132071D01*
X981219Y58171237D01*
X814094Y58244252D01*
X664331Y58348340D01*
X537637Y58479536D01*
X438838Y58632840D01*
X371699Y58802414D01*
X338775Y58981806D01*
X341322Y59164169D01*
X379240Y59342563D01*
X451090Y59510200D01*
X554130Y59660686D01*
X684439Y59788295D01*
X837049Y59888160D01*
X1006152Y59956482D01*
X1185300Y59990656D01*
X1367682Y59989382D01*
X1367682Y59989382D01*
G37*
G36*
X16157551Y63299003D02*
X16445710Y63239852D01*
X16716888Y63125860D01*
X16960766Y62961362D01*
X17168042Y62752634D01*
X17330834Y62507613D01*
X17442928Y62235650D01*
X17499999Y61947426D01*
X17499999Y61947412D01*
X17500064Y61947083D01*
X17495373Y61611090D01*
X17495297Y61610756D01*
X17495297Y61610745D01*
X17430203Y61324236D01*
X17310554Y61055500D01*
X17140992Y60815128D01*
X16927959Y60612260D01*
X16679591Y60454642D01*
X16405332Y60348262D01*
X16115638Y60297182D01*
X15821537Y60303342D01*
X15534229Y60366511D01*
X15264672Y60484278D01*
X15023112Y60652166D01*
X14818768Y60863770D01*
X14659419Y61111032D01*
X14551129Y61384541D01*
X14498025Y61673879D01*
X14502133Y61968014D01*
X14563293Y62255748D01*
X14679178Y62526128D01*
X14845372Y62768848D01*
X15055547Y62974667D01*
X15301692Y63135740D01*
X15574438Y63245937D01*
X15863390Y63301057D01*
X16157551Y63299003D01*
X16157551Y63299003D01*
G37*
G36*
X5109742Y64931259D02*
X5109755Y64931255D01*
X5109792Y64931251D01*
X5295036Y64873908D01*
X5465615Y64781677D01*
X5615030Y64658070D01*
X5737592Y64507795D01*
X5828630Y64336577D01*
X5884678Y64150936D01*
X5903601Y63957945D01*
X5903601Y63642055D01*
X5903504Y63628182D01*
X5881888Y63435474D01*
X5823254Y63250634D01*
X5729834Y63080704D01*
X5605186Y62932155D01*
X5454060Y62810646D01*
X5282210Y62720805D01*
X5096183Y62666054D01*
X5096149Y62666051D01*
X5096136Y62666047D01*
X4903066Y62648476D01*
X4710260Y62668741D01*
X4710247Y62668745D01*
X4710210Y62668749D01*
X4524966Y62726092D01*
X4354387Y62818323D01*
X4204972Y62941930D01*
X4082410Y63092205D01*
X3991372Y63263423D01*
X3935324Y63449064D01*
X3916401Y63642055D01*
X3916401Y63957945D01*
X3916498Y63971818D01*
X3938114Y64164526D01*
X3996748Y64349366D01*
X4090168Y64519296D01*
X4214816Y64667845D01*
X4365942Y64789354D01*
X4537792Y64879195D01*
X4723819Y64933946D01*
X4723853Y64933949D01*
X4723866Y64933953D01*
X4916936Y64951524D01*
X5109742Y64931259D01*
X5109742Y64931259D01*
G37*
G36*
X7649742Y64931259D02*
X7649755Y64931255D01*
X7649792Y64931251D01*
X7835036Y64873908D01*
X8005615Y64781677D01*
X8155030Y64658070D01*
X8277592Y64507795D01*
X8368630Y64336577D01*
X8424678Y64150936D01*
X8443601Y63957945D01*
X8443601Y63642055D01*
X8443504Y63628182D01*
X8421888Y63435474D01*
X8363254Y63250634D01*
X8269834Y63080704D01*
X8145186Y62932155D01*
X7994060Y62810646D01*
X7822210Y62720805D01*
X7636183Y62666054D01*
X7636149Y62666051D01*
X7636136Y62666047D01*
X7443066Y62648476D01*
X7250260Y62668741D01*
X7250247Y62668745D01*
X7250210Y62668749D01*
X7064966Y62726092D01*
X6894387Y62818323D01*
X6744972Y62941930D01*
X6622410Y63092205D01*
X6531372Y63263423D01*
X6475324Y63449064D01*
X6456401Y63642055D01*
X6456401Y63957945D01*
X6456498Y63971818D01*
X6478114Y64164526D01*
X6536748Y64349366D01*
X6630168Y64519296D01*
X6754816Y64667845D01*
X6905942Y64789354D01*
X7077792Y64879195D01*
X7263819Y64933946D01*
X7263853Y64933949D01*
X7263866Y64933953D01*
X7456936Y64951524D01*
X7649742Y64931259D01*
X7649742Y64931259D01*
G37*
G36*
X2569742Y64931259D02*
X2569755Y64931255D01*
X2569792Y64931251D01*
X2755036Y64873908D01*
X2925615Y64781677D01*
X3075030Y64658070D01*
X3197592Y64507795D01*
X3288630Y64336577D01*
X3344678Y64150936D01*
X3363601Y63957945D01*
X3363601Y63642055D01*
X3363504Y63628182D01*
X3341888Y63435474D01*
X3283254Y63250634D01*
X3189834Y63080704D01*
X3065186Y62932155D01*
X2914060Y62810646D01*
X2742210Y62720805D01*
X2556183Y62666054D01*
X2556149Y62666051D01*
X2556136Y62666047D01*
X2363066Y62648476D01*
X2170260Y62668741D01*
X2170247Y62668745D01*
X2170210Y62668749D01*
X1984966Y62726092D01*
X1814387Y62818323D01*
X1664972Y62941930D01*
X1542410Y63092205D01*
X1451372Y63263423D01*
X1395324Y63449064D01*
X1376401Y63642055D01*
X1376401Y63957945D01*
X1376498Y63971818D01*
X1398114Y64164526D01*
X1456748Y64349366D01*
X1550168Y64519296D01*
X1674816Y64667845D01*
X1825942Y64789354D01*
X1997792Y64879195D01*
X2183819Y64933946D01*
X2183853Y64933949D01*
X2183866Y64933953D01*
X2376936Y64951524D01*
X2569742Y64931259D01*
X2569742Y64931259D01*
G37*
G36*
X10983601Y62654000D02*
X8996401Y62654000D01*
X8996401Y64946000D01*
X10983601Y64946000D01*
X10983601Y62654000D01*
X10983601Y62654000D01*
G37*
M02*
