G04 #@! TF.FileFunction,Legend,Bot*
%FSLAX46Y46*%
G04 Gerber Fmt 4.6, Leading zero omitted, Abs format (unit mm)*
G04 Created by KiCad (PCBNEW 4.0.5) date 2017 April 23, Sunday 17:14:46*
%MOMM*%
%LPD*%
G01*
G04 APERTURE LIST*
%ADD10C,0.100000*%
%ADD11C,0.200000*%
%ADD12C,0.150000*%
%ADD13C,0.500000*%
%ADD14C,0.844200*%
%ADD15C,0.800000*%
%ADD16R,1.987200X2.292000*%
%ADD17O,1.987200X2.292000*%
%ADD18C,2.760000*%
%ADD19C,1.860000*%
G04 APERTURE END LIST*
D10*
D11*
X26314287Y65457143D02*
X26314287Y64485714D01*
X26257144Y64371429D01*
X26200001Y64314286D01*
X26085715Y64257143D01*
X25857144Y64257143D01*
X25742858Y64314286D01*
X25685715Y64371429D01*
X25628572Y64485714D01*
X25628572Y65457143D01*
X25114287Y64600000D02*
X24542858Y64600000D01*
X25228572Y64257143D02*
X24828572Y65457143D01*
X24428572Y64257143D01*
X23342858Y64257143D02*
X23742858Y64828571D01*
X24028573Y64257143D02*
X24028573Y65457143D01*
X23571430Y65457143D01*
X23457144Y65400000D01*
X23400001Y65342857D01*
X23342858Y65228571D01*
X23342858Y65057143D01*
X23400001Y64942857D01*
X23457144Y64885714D01*
X23571430Y64828571D01*
X24028573Y64828571D01*
X23000001Y65457143D02*
X22314287Y65457143D01*
X22657144Y64257143D02*
X22657144Y65457143D01*
X26385714Y63857143D02*
X25642857Y63857143D01*
X26042857Y63400000D01*
X25871429Y63400000D01*
X25757143Y63342857D01*
X25700000Y63285714D01*
X25642857Y63171429D01*
X25642857Y62885714D01*
X25700000Y62771429D01*
X25757143Y62714286D01*
X25871429Y62657143D01*
X26214286Y62657143D01*
X26328572Y62714286D01*
X26385714Y62771429D01*
X25300000Y63857143D02*
X24900000Y62657143D01*
X24500000Y63857143D01*
X24214286Y63857143D02*
X23471429Y63857143D01*
X23871429Y63400000D01*
X23700001Y63400000D01*
X23585715Y63342857D01*
X23528572Y63285714D01*
X23471429Y63171429D01*
X23471429Y62885714D01*
X23528572Y62771429D01*
X23585715Y62714286D01*
X23700001Y62657143D01*
X24042858Y62657143D01*
X24157144Y62714286D01*
X24214286Y62771429D01*
X21414286Y63800000D02*
X21528572Y63857143D01*
X21700001Y63857143D01*
X21871429Y63800000D01*
X21985715Y63685714D01*
X22042858Y63571429D01*
X22100001Y63342857D01*
X22100001Y63171429D01*
X22042858Y62942857D01*
X21985715Y62828571D01*
X21871429Y62714286D01*
X21700001Y62657143D01*
X21585715Y62657143D01*
X21414286Y62714286D01*
X21357143Y62771429D01*
X21357143Y63171429D01*
X21585715Y63171429D01*
X20842858Y62657143D02*
X20842858Y63857143D01*
X20157143Y62657143D01*
X20157143Y63857143D01*
X19585715Y62657143D02*
X19585715Y63857143D01*
X19300000Y63857143D01*
X19128572Y63800000D01*
X19014286Y63685714D01*
X18957143Y63571429D01*
X18900000Y63342857D01*
X18900000Y63171429D01*
X18957143Y62942857D01*
X19014286Y62828571D01*
X19128572Y62714286D01*
X19300000Y62657143D01*
X19585715Y62657143D01*
X17642857Y63857143D02*
X16957143Y63857143D01*
X17300000Y62657143D02*
X17300000Y63857143D01*
X16671428Y63857143D02*
X15871428Y62657143D01*
X15871428Y63857143D02*
X16671428Y62657143D01*
X13814285Y62657143D02*
X14214285Y63228571D01*
X14500000Y62657143D02*
X14500000Y63857143D01*
X14042857Y63857143D01*
X13928571Y63800000D01*
X13871428Y63742857D01*
X13814285Y63628571D01*
X13814285Y63457143D01*
X13871428Y63342857D01*
X13928571Y63285714D01*
X14042857Y63228571D01*
X14500000Y63228571D01*
X13414285Y63857143D02*
X12614285Y62657143D01*
X12614285Y63857143D02*
X13414285Y62657143D01*
D12*
X33566667Y28654762D02*
X33566667Y28178571D01*
X33852381Y28750000D02*
X32852381Y28416667D01*
X33852381Y28083333D01*
X33852381Y27750000D02*
X32852381Y27750000D01*
X33566667Y27416666D01*
X32852381Y27083333D01*
X33852381Y27083333D01*
X33328571Y26273809D02*
X33376190Y26130952D01*
X33423810Y26083333D01*
X33519048Y26035714D01*
X33661905Y26035714D01*
X33757143Y26083333D01*
X33804762Y26130952D01*
X33852381Y26226190D01*
X33852381Y26607143D01*
X32852381Y26607143D01*
X32852381Y26273809D01*
X32900000Y26178571D01*
X32947619Y26130952D01*
X33042857Y26083333D01*
X33138095Y26083333D01*
X33233333Y26130952D01*
X33280952Y26178571D01*
X33328571Y26273809D01*
X33328571Y26607143D01*
X33852381Y25607143D02*
X32852381Y25607143D01*
X33328571Y25130953D02*
X33328571Y24797619D01*
X33852381Y24654762D02*
X33852381Y25130953D01*
X32852381Y25130953D01*
X32852381Y24654762D01*
X33852381Y24226191D02*
X32852381Y24226191D01*
X33852381Y23654762D01*
X32852381Y23654762D01*
X32852381Y23321429D02*
X32852381Y22750000D01*
X33852381Y23035715D02*
X32852381Y23035715D01*
X32852381Y41464286D02*
X33661905Y41464286D01*
X33757143Y41416667D01*
X33804762Y41369048D01*
X33852381Y41273810D01*
X33852381Y41083333D01*
X33804762Y40988095D01*
X33757143Y40940476D01*
X33661905Y40892857D01*
X32852381Y40892857D01*
X32852381Y40559524D02*
X33852381Y40226191D01*
X32852381Y39892857D01*
X8720001Y62530000D02*
X1100001Y62530000D01*
X8720001Y65070000D02*
X1100001Y65070000D01*
X11540001Y65350000D02*
X9990001Y65350000D01*
X1100001Y62530000D02*
X1100001Y65070000D01*
X8720001Y65070000D02*
X8720001Y62530000D01*
X9990001Y62250000D02*
X11540001Y62250000D01*
X11540001Y62250000D02*
X11540001Y65350000D01*
X22000000Y59060000D02*
X22000000Y61590000D01*
X22400000Y59060000D02*
X22000000Y59060000D01*
X26000000Y59060000D02*
X26000000Y61590000D01*
X25600000Y59060000D02*
X26000000Y59060000D01*
D13*
X24000000Y52150000D02*
X24000000Y55150000D01*
X24000000Y8700000D02*
X24000000Y11700000D01*
X22500000Y10200000D02*
X25500000Y10200000D01*
D12*
X22000000Y4200000D02*
X22000000Y1700000D01*
X22400000Y4200000D02*
X22000000Y4200000D01*
X26000000Y4200000D02*
X26000000Y1700000D01*
X25600000Y4200000D02*
X26000000Y4200000D01*
X22000000Y1670000D02*
X16230000Y1670000D01*
X31770000Y61590000D02*
X26000000Y61590000D01*
X31770000Y1665000D02*
X31770000Y61595000D01*
X16230000Y1665000D02*
X16230000Y61595000D01*
X31770000Y1670000D02*
X26000000Y1670000D01*
X22000000Y61595000D02*
X16230000Y61595000D01*
X10000000Y4200000D02*
X10000000Y1670000D01*
X9600000Y4200000D02*
X10000000Y4200000D01*
X6000000Y4200000D02*
X6000000Y1670000D01*
X6400000Y4200000D02*
X6000000Y4200000D01*
D13*
X8000000Y11110000D02*
X8000000Y8110000D01*
X8000000Y54560000D02*
X8000000Y51560000D01*
X9500000Y53060000D02*
X6500000Y53060000D01*
D12*
X10000000Y59060000D02*
X10000000Y61560000D01*
X9600000Y59060000D02*
X10000000Y59060000D01*
X6000000Y59060000D02*
X6000000Y61560000D01*
X6400000Y59060000D02*
X6000000Y59060000D01*
X10000000Y61590000D02*
X15770000Y61590000D01*
X230000Y1670000D02*
X6000000Y1670000D01*
X230000Y61595000D02*
X230000Y1665000D01*
X15770000Y61595000D02*
X15770000Y1665000D01*
X230000Y61590000D02*
X6000000Y61590000D01*
X10000000Y1665000D02*
X15770000Y1665000D01*
X17528571Y4985714D02*
X17576190Y4842857D01*
X17623810Y4795238D01*
X17719048Y4747619D01*
X17861905Y4747619D01*
X17957143Y4795238D01*
X18004762Y4842857D01*
X18052381Y4938095D01*
X18052381Y5319048D01*
X17052381Y5319048D01*
X17052381Y4985714D01*
X17100000Y4890476D01*
X17147619Y4842857D01*
X17242857Y4795238D01*
X17338095Y4795238D01*
X17433333Y4842857D01*
X17480952Y4890476D01*
X17528571Y4985714D01*
X17528571Y5319048D01*
X17052381Y4461905D02*
X17052381Y3890476D01*
X18052381Y4176191D02*
X17052381Y4176191D01*
X18052381Y3033333D02*
X18052381Y3604762D01*
X18052381Y3319048D02*
X17052381Y3319048D01*
X17195238Y3414286D01*
X17290476Y3509524D01*
X17338095Y3604762D01*
X14328571Y59845714D02*
X14376190Y59702857D01*
X14423810Y59655238D01*
X14519048Y59607619D01*
X14661905Y59607619D01*
X14757143Y59655238D01*
X14804762Y59702857D01*
X14852381Y59798095D01*
X14852381Y60179048D01*
X13852381Y60179048D01*
X13852381Y59845714D01*
X13900000Y59750476D01*
X13947619Y59702857D01*
X14042857Y59655238D01*
X14138095Y59655238D01*
X14233333Y59702857D01*
X14280952Y59750476D01*
X14328571Y59845714D01*
X14328571Y60179048D01*
X13852381Y59321905D02*
X13852381Y58750476D01*
X14852381Y59036191D02*
X13852381Y59036191D01*
X13947619Y58464762D02*
X13900000Y58417143D01*
X13852381Y58321905D01*
X13852381Y58083809D01*
X13900000Y57988571D01*
X13947619Y57940952D01*
X14042857Y57893333D01*
X14138095Y57893333D01*
X14280952Y57940952D01*
X14852381Y58512381D01*
X14852381Y57893333D01*
%LPC*%
D14*
X21900000Y12900000D03*
X22400000Y13650000D03*
X21400000Y13650000D03*
X21400000Y12150000D03*
X22400000Y12150000D03*
D15*
X6300000Y52099998D03*
X5400000Y52099998D03*
X5850000Y51199998D03*
X5850000Y52999998D03*
D16*
X9990001Y63800000D03*
D17*
X7450001Y63800000D03*
X4910001Y63800000D03*
X2370001Y63800000D03*
D18*
X24000000Y4200000D03*
X24000000Y59060000D03*
D19*
X30730000Y4200000D03*
D18*
X8000000Y59060000D03*
X8000000Y4200000D03*
D19*
X1270000Y59060000D03*
M02*
