G04 #@! TF.FileFunction,Copper,L2,Bot,Signal*
%FSLAX46Y46*%
G04 Gerber Fmt 4.6, Leading zero omitted, Abs format (unit mm)*
G04 Created by KiCad (PCBNEW 4.0.4-stable) date 2016 December 21, Wednesday 22:04:00*
%MOMM*%
%LPD*%
G01*
G04 APERTURE LIST*
%ADD10C,0.100000*%
%ADD11C,0.604800*%
%ADD12C,0.704800*%
%ADD13R,1.727200X2.032000*%
%ADD14O,1.727200X2.032000*%
%ADD15C,0.584200*%
%ADD16C,2.500000*%
%ADD17C,0.609600*%
%ADD18C,0.804800*%
%ADD19C,1.016000*%
%ADD20C,0.254000*%
%ADD21C,0.508000*%
%ADD22C,0.304800*%
%ADD23C,0.250000*%
G04 APERTURE END LIST*
D10*
D11*
X19250000Y11350000D03*
D12*
X17950000Y20700000D03*
X33600000Y46500000D03*
X34400001Y45700000D03*
X13350000Y18950000D03*
X12250000Y18950000D03*
X26850000Y22650000D03*
X29850000Y22650000D03*
X32800000Y29100000D03*
X7400000Y61350000D03*
X12900000Y11100000D03*
X32200000Y32350000D03*
X8600000Y61350000D03*
X3050000Y32400000D03*
X3050000Y33600000D03*
X24600000Y61600000D03*
X23400000Y61600000D03*
X24600000Y1400000D03*
X23400000Y1400000D03*
X8600000Y1400000D03*
X7400000Y1400000D03*
X11700000Y11100000D03*
X10500000Y11100000D03*
X34000000Y20300000D03*
X33200000Y19500000D03*
X32200000Y34550000D03*
X32200000Y38600000D03*
X27300000Y37500000D03*
X27300000Y38600000D03*
D13*
X9990001Y63800000D03*
D14*
X7450001Y63800000D03*
X4910001Y63800000D03*
X2370001Y63800000D03*
D12*
X27300000Y39700000D03*
D15*
X21900000Y12900000D03*
X22400000Y13650000D03*
X21400000Y13650000D03*
X21400000Y12150000D03*
X22400000Y12150000D03*
D16*
X24000000Y4200000D03*
X24000000Y59060000D03*
X8000000Y59060000D03*
X8000000Y4200000D03*
D11*
X24250000Y14700000D03*
D17*
X35100000Y23650000D03*
X35750000Y23650000D03*
X30000000Y48400000D03*
X30000000Y49000000D03*
X24700000Y49600000D03*
X24700000Y48400000D03*
X2800000Y56400000D03*
X34100000Y43300000D03*
D18*
X11599997Y46799997D03*
X2100000Y42800000D03*
X1300000Y28700000D03*
X1400000Y21800000D03*
X16300000Y20600000D03*
D17*
X19479566Y15779566D03*
X18800000Y6400000D03*
X3300000Y28000000D03*
X7500000Y22200000D03*
X34400000Y28600000D03*
D12*
X23900000Y49000000D03*
D17*
X26000001Y28200000D03*
D12*
X8700000Y51100000D03*
D17*
X35900000Y38300000D03*
X35800000Y28600000D03*
D12*
X23900000Y51500000D03*
X6400000Y50000000D03*
D17*
X35300000Y40900000D03*
X24100001Y28200000D03*
X27000000Y26100000D03*
X5400000Y17300000D03*
X19600000Y14100000D03*
X3150000Y4200002D03*
X7340822Y13800000D03*
X29500000Y8800000D03*
X24500000Y12150000D03*
D19*
X8000000Y59060000D02*
X24000000Y59060000D01*
D20*
X18800000Y6400000D02*
X20250000Y7850000D01*
X20250000Y7850000D02*
X20250000Y14400000D01*
X20250000Y14400000D02*
X19479566Y15170434D01*
X19479566Y15170434D02*
X19479566Y15779566D01*
D21*
X7600000Y42800000D02*
X11197598Y46397598D01*
X2100000Y42800000D02*
X7600000Y42800000D01*
X11197598Y46397598D02*
X11599997Y46799997D01*
X1300000Y28700000D02*
X1300000Y42000000D01*
X1300000Y42000000D02*
X2100000Y42800000D01*
X16300000Y20600000D02*
X2600000Y20600000D01*
X2600000Y20600000D02*
X1400000Y21800000D01*
D20*
X7500000Y22200000D02*
X7500000Y23800000D01*
X7500000Y23800000D02*
X3300000Y28000000D01*
D22*
X23900000Y49000000D02*
X23900000Y50527342D01*
X23900000Y50527342D02*
X22227342Y52200000D01*
X22227342Y52200000D02*
X9800000Y52200000D01*
X9800000Y52200000D02*
X8700000Y51100000D01*
X34400000Y28600000D02*
X34000000Y28200000D01*
X34000000Y28200000D02*
X26000001Y28200000D01*
X35900000Y30100000D02*
X35900000Y38300000D01*
X34400000Y28600000D02*
X35900000Y30100000D01*
X23547601Y51852399D02*
X23900000Y51500000D01*
X22742790Y52657210D02*
X23547601Y51852399D01*
X9057210Y52657210D02*
X22742790Y52657210D01*
X6400000Y50000000D02*
X9057210Y52657210D01*
X34790399Y27590399D02*
X35495201Y28295201D01*
X24709602Y27590399D02*
X34790399Y27590399D01*
X36509601Y39690399D02*
X36509601Y29309601D01*
X35300000Y40900000D02*
X36509601Y39690399D01*
X36509601Y29309601D02*
X36104799Y28904799D01*
X36104799Y28904799D02*
X35800000Y28600000D01*
X35495201Y28295201D02*
X35800000Y28600000D01*
X24100001Y28200000D02*
X24709602Y27590399D01*
D20*
X16400000Y17300000D02*
X25200000Y26100000D01*
X25200000Y26100000D02*
X27000000Y26100000D01*
X19600000Y14100000D02*
X16400000Y17300000D01*
X16400000Y17300000D02*
X5400000Y17300000D01*
D22*
X3454799Y4504801D02*
X3150000Y4200002D01*
X7340822Y8390824D02*
X3454799Y4504801D01*
X7340822Y13800000D02*
X7340822Y8390824D01*
D20*
X29500000Y8800000D02*
X27850000Y8800000D01*
X27850000Y8800000D02*
X24500000Y12150000D01*
D23*
G36*
X14141799Y65596799D02*
X14146790Y65571594D01*
X14148455Y65566216D01*
X14236973Y65287171D01*
X14251363Y65253597D01*
X14265295Y65219795D01*
X14267973Y65214842D01*
X14409006Y64958306D01*
X14429655Y64928149D01*
X14449875Y64897715D01*
X14453464Y64893377D01*
X14641639Y64669119D01*
X14667752Y64643547D01*
X14693498Y64617620D01*
X14697856Y64614067D01*
X14697861Y64614062D01*
X14697866Y64614058D01*
X14926011Y64430625D01*
X14956568Y64410629D01*
X14986886Y64390179D01*
X14991857Y64387537D01*
X15251293Y64251907D01*
X15285179Y64238216D01*
X15318863Y64224057D01*
X15324253Y64222430D01*
X15605090Y64139775D01*
X15640934Y64132938D01*
X15676784Y64125578D01*
X15682388Y64125029D01*
X15973932Y64098497D01*
X16010474Y64098752D01*
X16047016Y64098497D01*
X16052619Y64099047D01*
X16052623Y64099047D01*
X16343764Y64129647D01*
X16379527Y64136988D01*
X16415459Y64143842D01*
X16420848Y64145470D01*
X16700505Y64232039D01*
X16734176Y64246193D01*
X16768076Y64259889D01*
X16773047Y64262533D01*
X17030562Y64401771D01*
X17060853Y64422203D01*
X17091437Y64442216D01*
X17095800Y64445774D01*
X17321366Y64632379D01*
X17347126Y64658320D01*
X17373225Y64683877D01*
X17376808Y64688210D01*
X17376814Y64688216D01*
X17376818Y64688223D01*
X17561840Y64915080D01*
X17582048Y64945496D01*
X17602709Y64975670D01*
X17605386Y64980623D01*
X17742823Y65239104D01*
X17756742Y65272874D01*
X17771146Y65306480D01*
X17772810Y65311858D01*
X17857423Y65592112D01*
X17858351Y65596800D01*
X30480279Y65596799D01*
X30712663Y65574014D01*
X30917220Y65512254D01*
X31105890Y65411936D01*
X31271481Y65276883D01*
X31407684Y65112242D01*
X31509317Y64924275D01*
X31572503Y64720153D01*
X31596800Y64488982D01*
X31596800Y49500000D01*
X31600436Y49462915D01*
X31603680Y49425832D01*
X31604272Y49423794D01*
X31604479Y49421685D01*
X31615254Y49385995D01*
X31625635Y49350266D01*
X31626608Y49348389D01*
X31627223Y49346352D01*
X31644751Y49313387D01*
X31661848Y49280403D01*
X31663169Y49278748D01*
X31664166Y49276873D01*
X31687739Y49247969D01*
X31710941Y49218904D01*
X31713842Y49215964D01*
X31713901Y49215891D01*
X31713968Y49215835D01*
X31714895Y49214896D01*
X36596800Y44332989D01*
X36596800Y40282871D01*
X35932815Y40946857D01*
X35933027Y40962069D01*
X35908916Y41083842D01*
X35861610Y41198613D01*
X35792914Y41302010D01*
X35705442Y41390095D01*
X35602527Y41459512D01*
X35488089Y41507617D01*
X35366487Y41532579D01*
X35242352Y41533445D01*
X35120413Y41510184D01*
X35005315Y41463681D01*
X34901440Y41395708D01*
X34812747Y41308853D01*
X34742614Y41206426D01*
X34693711Y41092326D01*
X34667901Y40970901D01*
X34666168Y40846776D01*
X34688577Y40724677D01*
X34734275Y40609257D01*
X34801522Y40504911D01*
X34887755Y40415614D01*
X34989691Y40344767D01*
X35103446Y40295068D01*
X35224688Y40268411D01*
X35252500Y40267829D01*
X36029001Y39491328D01*
X36029001Y38919746D01*
X35966487Y38932579D01*
X35842352Y38933445D01*
X35720413Y38910184D01*
X35605315Y38863681D01*
X35501440Y38795708D01*
X35412747Y38708853D01*
X35342614Y38606426D01*
X35293711Y38492326D01*
X35267901Y38370901D01*
X35266168Y38246776D01*
X35288577Y38124677D01*
X35334275Y38009257D01*
X35401522Y37904911D01*
X35419400Y37886398D01*
X35419400Y30299071D01*
X34353694Y29233366D01*
X34342352Y29233445D01*
X34220413Y29210184D01*
X34105315Y29163681D01*
X34001440Y29095708D01*
X33912747Y29008853D01*
X33842614Y28906426D01*
X33793711Y28792326D01*
X33769963Y28680600D01*
X26414872Y28680600D01*
X26405443Y28690095D01*
X26302528Y28759512D01*
X26188090Y28807617D01*
X26066488Y28832579D01*
X25942353Y28833445D01*
X25820414Y28810184D01*
X25705316Y28763681D01*
X25601441Y28695708D01*
X25512748Y28608853D01*
X25442615Y28506426D01*
X25393712Y28392326D01*
X25367902Y28270901D01*
X25366169Y28146776D01*
X25380076Y28070999D01*
X24908674Y28070999D01*
X24732816Y28246857D01*
X24733028Y28262069D01*
X24708917Y28383842D01*
X24661611Y28498613D01*
X24592915Y28602010D01*
X24505443Y28690095D01*
X24402528Y28759512D01*
X24288090Y28807617D01*
X24166488Y28832579D01*
X24042353Y28833445D01*
X23920414Y28810184D01*
X23805316Y28763681D01*
X23701441Y28695708D01*
X23612748Y28608853D01*
X23542615Y28506426D01*
X23493712Y28392326D01*
X23467902Y28270901D01*
X23466169Y28146776D01*
X23488578Y28024677D01*
X23534276Y27909257D01*
X23601523Y27804911D01*
X23687756Y27715614D01*
X23789692Y27644767D01*
X23903447Y27595068D01*
X24024689Y27568411D01*
X24052500Y27567829D01*
X24369766Y27250563D01*
X24404087Y27222372D01*
X24438079Y27193849D01*
X24440294Y27192631D01*
X24442246Y27191028D01*
X24481405Y27170031D01*
X24520274Y27148663D01*
X24522677Y27147901D01*
X24524909Y27146704D01*
X24567384Y27133719D01*
X24609680Y27120301D01*
X24612194Y27120019D01*
X24614608Y27119281D01*
X24658755Y27114797D01*
X24702892Y27109846D01*
X24707831Y27109811D01*
X24707924Y27109802D01*
X24708010Y27109810D01*
X24709602Y27109799D01*
X34790399Y27109799D01*
X34834551Y27114128D01*
X34878806Y27118000D01*
X34881234Y27118706D01*
X34883748Y27118952D01*
X34926254Y27131785D01*
X34968878Y27144169D01*
X34971120Y27145331D01*
X34973541Y27146062D01*
X35012750Y27166910D01*
X35052153Y27187334D01*
X35054128Y27188911D01*
X35056359Y27190097D01*
X35090756Y27218150D01*
X35125457Y27245852D01*
X35128977Y27249323D01*
X35129046Y27249379D01*
X35129098Y27249442D01*
X35130235Y27250563D01*
X35834966Y27955295D01*
X35835037Y27955365D01*
X35845552Y27965880D01*
X35848798Y27965812D01*
X35971050Y27987368D01*
X36086787Y28032259D01*
X36191599Y28098776D01*
X36281497Y28184383D01*
X36353054Y28285822D01*
X36403545Y28399227D01*
X36431047Y28520280D01*
X36431487Y28551816D01*
X36444564Y28564893D01*
X36444635Y28564963D01*
X36596800Y28717128D01*
X36596800Y21667011D01*
X31714895Y16785105D01*
X31691262Y16756334D01*
X31667314Y16727795D01*
X31666293Y16725937D01*
X31664947Y16724299D01*
X31647321Y16691427D01*
X31629405Y16658837D01*
X31628766Y16656822D01*
X31627761Y16654948D01*
X31616857Y16619282D01*
X31605611Y16583830D01*
X31605375Y16581723D01*
X31604755Y16579696D01*
X31600992Y16542650D01*
X31596839Y16505630D01*
X31596810Y16501489D01*
X31596802Y16501407D01*
X31596809Y16501331D01*
X31596800Y16500000D01*
X31596800Y4928311D01*
X31452621Y5073499D01*
X31269196Y5197222D01*
X31065232Y5282960D01*
X30848500Y5327449D01*
X30627254Y5328993D01*
X30409921Y5287535D01*
X30204780Y5204653D01*
X30019645Y5083503D01*
X29861567Y4928702D01*
X29736567Y4746144D01*
X29649407Y4542784D01*
X29603406Y4326368D01*
X29600317Y4105138D01*
X29640257Y3887521D01*
X29721705Y3681807D01*
X29841559Y3495830D01*
X29995253Y3336675D01*
X30176934Y3210404D01*
X30379680Y3121826D01*
X30595770Y3074316D01*
X30816973Y3069682D01*
X31034863Y3108102D01*
X31241141Y3188112D01*
X31427950Y3306665D01*
X31588174Y3459244D01*
X31596800Y3471472D01*
X31596800Y1519723D01*
X31574014Y1287337D01*
X31512254Y1082781D01*
X31411935Y894107D01*
X31276888Y728523D01*
X31112240Y592315D01*
X30924279Y490684D01*
X30720150Y427496D01*
X30488972Y403199D01*
X17858204Y403201D01*
X17853214Y428405D01*
X17851551Y433775D01*
X17851549Y433782D01*
X17851546Y433788D01*
X17763029Y712828D01*
X17748654Y746367D01*
X17734709Y780201D01*
X17732031Y785154D01*
X17590998Y1041692D01*
X17570356Y1071839D01*
X17550129Y1102284D01*
X17546540Y1106622D01*
X17358365Y1330880D01*
X17332253Y1356451D01*
X17306507Y1382378D01*
X17302143Y1385937D01*
X17073993Y1569375D01*
X17043394Y1589398D01*
X17013118Y1609820D01*
X17008152Y1612460D01*
X17008148Y1612463D01*
X17008144Y1612465D01*
X16748712Y1748092D01*
X16714870Y1761765D01*
X16681142Y1775943D01*
X16675752Y1777570D01*
X16394914Y1860226D01*
X16359056Y1867066D01*
X16323219Y1874423D01*
X16317615Y1874972D01*
X16026071Y1901504D01*
X15989529Y1901249D01*
X15952987Y1901504D01*
X15947384Y1900954D01*
X15947382Y1900954D01*
X15656239Y1870354D01*
X15620476Y1863013D01*
X15584544Y1856159D01*
X15579154Y1854531D01*
X15299499Y1767963D01*
X15265828Y1753809D01*
X15231928Y1740113D01*
X15226957Y1737470D01*
X14969440Y1598232D01*
X14939132Y1577789D01*
X14908564Y1557786D01*
X14904201Y1554227D01*
X14678635Y1367623D01*
X14652875Y1341682D01*
X14626776Y1316125D01*
X14623188Y1311787D01*
X14438162Y1084922D01*
X14417971Y1054532D01*
X14397292Y1024332D01*
X14394615Y1019379D01*
X14257177Y760898D01*
X14243244Y727093D01*
X14228855Y693523D01*
X14227190Y688145D01*
X14142576Y407891D01*
X14141647Y403201D01*
X1519721Y403200D01*
X1287336Y425985D01*
X1082776Y487746D01*
X894111Y588061D01*
X728520Y723113D01*
X592314Y887759D01*
X490681Y1075723D01*
X427495Y1279846D01*
X403200Y1510998D01*
X403200Y3135249D01*
X6938078Y3135249D01*
X7069488Y2915857D01*
X7337891Y2758998D01*
X7631739Y2657515D01*
X7939740Y2615309D01*
X8250055Y2634002D01*
X8550761Y2712876D01*
X8830302Y2848899D01*
X8930512Y2915857D01*
X9061922Y3135249D01*
X8000000Y4197172D01*
X6938078Y3135249D01*
X403200Y3135249D01*
X403200Y4146778D01*
X2516168Y4146778D01*
X2538577Y4024679D01*
X2584275Y3909259D01*
X2651522Y3804913D01*
X2737755Y3715616D01*
X2839691Y3644769D01*
X2953446Y3595070D01*
X3074688Y3568413D01*
X3198798Y3565814D01*
X3321050Y3587370D01*
X3436787Y3632261D01*
X3541599Y3698778D01*
X3631497Y3784385D01*
X3703054Y3885824D01*
X3753545Y3999229D01*
X3781047Y4120282D01*
X3781487Y4151818D01*
X3794564Y4164895D01*
X3794635Y4164965D01*
X3889929Y4260260D01*
X6415309Y4260260D01*
X6434002Y3949945D01*
X6512876Y3649239D01*
X6648899Y3369698D01*
X6715857Y3269488D01*
X6935249Y3138078D01*
X7997172Y4200000D01*
X8002828Y4200000D01*
X9064751Y3138078D01*
X9284143Y3269488D01*
X9441002Y3537891D01*
X9542485Y3831739D01*
X9574764Y4067301D01*
X22419726Y4067301D01*
X22475597Y3762884D01*
X22589531Y3475118D01*
X22757191Y3214961D01*
X22972188Y2992325D01*
X23226335Y2815689D01*
X23509950Y2691780D01*
X23812231Y2625320D01*
X24121664Y2618838D01*
X24426463Y2672582D01*
X24715018Y2784505D01*
X24976338Y2950344D01*
X25200470Y3163782D01*
X25378876Y3416689D01*
X25504762Y3699432D01*
X25573331Y4001242D01*
X25578267Y4354750D01*
X25518152Y4658357D01*
X25400210Y4944505D01*
X25228935Y5202295D01*
X25010850Y5421908D01*
X24754262Y5594978D01*
X24468944Y5714915D01*
X24165765Y5777149D01*
X23856272Y5779309D01*
X23552253Y5721315D01*
X23265288Y5605374D01*
X23006309Y5435902D01*
X22785179Y5219356D01*
X22610321Y4963982D01*
X22488396Y4679509D01*
X22424047Y4376771D01*
X22419726Y4067301D01*
X9574764Y4067301D01*
X9584691Y4139740D01*
X9565998Y4450055D01*
X9487124Y4750761D01*
X9351101Y5030302D01*
X9284143Y5130512D01*
X9064751Y5261922D01*
X8002828Y4200000D01*
X7997172Y4200000D01*
X6935249Y5261922D01*
X6715857Y5130512D01*
X6558998Y4862109D01*
X6457515Y4568261D01*
X6415309Y4260260D01*
X3889929Y4260260D01*
X4894420Y5264751D01*
X6938078Y5264751D01*
X8000000Y4202828D01*
X9061922Y5264751D01*
X8930512Y5484143D01*
X8662109Y5641002D01*
X8368261Y5742485D01*
X8060260Y5784691D01*
X7749945Y5765998D01*
X7449239Y5687124D01*
X7169698Y5551101D01*
X7069488Y5484143D01*
X6938078Y5264751D01*
X4894420Y5264751D01*
X7680657Y8050988D01*
X7708824Y8085279D01*
X7737372Y8119301D01*
X7738590Y8121516D01*
X7740193Y8123468D01*
X7761171Y8162592D01*
X7782558Y8201496D01*
X7783322Y8203904D01*
X7784516Y8206131D01*
X7797488Y8248560D01*
X7810920Y8290902D01*
X7811202Y8293416D01*
X7811940Y8295830D01*
X7816424Y8339977D01*
X7821375Y8384114D01*
X7821410Y8389053D01*
X7821419Y8389146D01*
X7821411Y8389232D01*
X7821422Y8390824D01*
X7821422Y13383529D01*
X7822319Y13384383D01*
X7893876Y13485822D01*
X7944367Y13599227D01*
X7971869Y13720280D01*
X7973849Y13862069D01*
X7949738Y13983842D01*
X7902432Y14098613D01*
X7833736Y14202010D01*
X7746264Y14290095D01*
X7643349Y14359512D01*
X7528911Y14407617D01*
X7407309Y14432579D01*
X7283174Y14433445D01*
X7161235Y14410184D01*
X7046137Y14363681D01*
X6942262Y14295708D01*
X6853569Y14208853D01*
X6783436Y14106426D01*
X6734533Y13992326D01*
X6708723Y13870901D01*
X6706990Y13746776D01*
X6729399Y13624677D01*
X6775097Y13509257D01*
X6842344Y13404911D01*
X6860222Y13386398D01*
X6860222Y8589895D01*
X3114963Y4844637D01*
X3114958Y4844631D01*
X3103695Y4833368D01*
X3092352Y4833447D01*
X2970413Y4810186D01*
X2855315Y4763683D01*
X2751440Y4695710D01*
X2662747Y4608855D01*
X2592614Y4506428D01*
X2543711Y4392328D01*
X2517901Y4270903D01*
X2516168Y4146778D01*
X403200Y4146778D01*
X403200Y17246776D01*
X4766168Y17246776D01*
X4788577Y17124677D01*
X4834275Y17009257D01*
X4901522Y16904911D01*
X4987755Y16815614D01*
X5089691Y16744767D01*
X5203446Y16695068D01*
X5324688Y16668411D01*
X5448798Y16665812D01*
X5571050Y16687368D01*
X5686787Y16732259D01*
X5791599Y16798776D01*
X5839930Y16844800D01*
X16211450Y16844800D01*
X18966764Y14089486D01*
X18966168Y14046776D01*
X18988577Y13924677D01*
X19034275Y13809257D01*
X19101522Y13704911D01*
X19187755Y13615614D01*
X19289691Y13544767D01*
X19403446Y13495068D01*
X19524688Y13468411D01*
X19648798Y13465812D01*
X19771050Y13487368D01*
X19794800Y13496580D01*
X19794800Y8038550D01*
X18789367Y7033117D01*
X18742352Y7033445D01*
X18620413Y7010184D01*
X18505315Y6963681D01*
X18401440Y6895708D01*
X18312747Y6808853D01*
X18242614Y6706426D01*
X18193711Y6592326D01*
X18167901Y6470901D01*
X18166168Y6346776D01*
X18188577Y6224677D01*
X18234275Y6109257D01*
X18301522Y6004911D01*
X18387755Y5915614D01*
X18489691Y5844767D01*
X18603446Y5795068D01*
X18724688Y5768411D01*
X18848798Y5765812D01*
X18971050Y5787368D01*
X19086787Y5832259D01*
X19191599Y5898776D01*
X19281497Y5984383D01*
X19353054Y6085822D01*
X19403545Y6199227D01*
X19431047Y6320280D01*
X19431996Y6388246D01*
X20571875Y7528125D01*
X20598550Y7560600D01*
X20625592Y7592827D01*
X20626746Y7594926D01*
X20628264Y7596774D01*
X20648132Y7633828D01*
X20668390Y7670678D01*
X20669114Y7672959D01*
X20670245Y7675069D01*
X20682544Y7715295D01*
X20695253Y7755359D01*
X20695520Y7757736D01*
X20696220Y7760027D01*
X20700467Y7801845D01*
X20705156Y7843644D01*
X20705188Y7848326D01*
X20705197Y7848411D01*
X20705190Y7848490D01*
X20705200Y7850000D01*
X20705200Y12096776D01*
X23866168Y12096776D01*
X23888577Y11974677D01*
X23934275Y11859257D01*
X24001522Y11754911D01*
X24087755Y11665614D01*
X24189691Y11594767D01*
X24303446Y11545068D01*
X24424688Y11518411D01*
X24489190Y11517060D01*
X27528125Y8478125D01*
X27560622Y8451431D01*
X27592827Y8424408D01*
X27594923Y8423256D01*
X27596773Y8421736D01*
X27633849Y8401857D01*
X27670678Y8381610D01*
X27672959Y8380886D01*
X27675069Y8379755D01*
X27715267Y8367465D01*
X27755359Y8354747D01*
X27757740Y8354480D01*
X27760026Y8353781D01*
X27801805Y8349537D01*
X27843644Y8344844D01*
X27848325Y8344812D01*
X27848410Y8344803D01*
X27848489Y8344810D01*
X27850000Y8344800D01*
X29059570Y8344800D01*
X29087755Y8315614D01*
X29189691Y8244767D01*
X29303446Y8195068D01*
X29424688Y8168411D01*
X29548798Y8165812D01*
X29671050Y8187368D01*
X29786787Y8232259D01*
X29891599Y8298776D01*
X29981497Y8384383D01*
X30053054Y8485822D01*
X30103545Y8599227D01*
X30131047Y8720280D01*
X30133027Y8862069D01*
X30108916Y8983842D01*
X30061610Y9098613D01*
X29992914Y9202010D01*
X29905442Y9290095D01*
X29802527Y9359512D01*
X29688089Y9407617D01*
X29566487Y9432579D01*
X29442352Y9433445D01*
X29320413Y9410184D01*
X29205315Y9363681D01*
X29101440Y9295708D01*
X29060075Y9255200D01*
X28038550Y9255200D01*
X25132320Y12161430D01*
X25133027Y12212069D01*
X25108916Y12333842D01*
X25061610Y12448613D01*
X24992914Y12552010D01*
X24905442Y12640095D01*
X24802527Y12709512D01*
X24688089Y12757617D01*
X24566487Y12782579D01*
X24442352Y12783445D01*
X24320413Y12760184D01*
X24205315Y12713681D01*
X24101440Y12645708D01*
X24012747Y12558853D01*
X23942614Y12456426D01*
X23893711Y12342326D01*
X23867901Y12220901D01*
X23866168Y12096776D01*
X20705200Y12096776D01*
X20705200Y14400000D01*
X20701096Y14441860D01*
X20697432Y14483735D01*
X20696765Y14486032D01*
X20696531Y14488415D01*
X20684372Y14528687D01*
X20672646Y14569047D01*
X20671545Y14571171D01*
X20670853Y14573463D01*
X20651113Y14610590D01*
X20631763Y14647920D01*
X20630270Y14649791D01*
X20629146Y14651904D01*
X20602586Y14684469D01*
X20576338Y14717350D01*
X20573052Y14720682D01*
X20572997Y14720749D01*
X20572935Y14720800D01*
X20571875Y14721875D01*
X19945050Y15348700D01*
X19961063Y15363949D01*
X20032620Y15465388D01*
X20083111Y15578793D01*
X20110613Y15699846D01*
X20112593Y15841635D01*
X20088482Y15963408D01*
X20041176Y16078179D01*
X19972480Y16181576D01*
X19885008Y16269661D01*
X19782093Y16339078D01*
X19667655Y16387183D01*
X19546053Y16412145D01*
X19421918Y16413011D01*
X19299979Y16389750D01*
X19184881Y16343247D01*
X19081006Y16275274D01*
X18992313Y16188419D01*
X18922180Y16085992D01*
X18873277Y15971892D01*
X18847467Y15850467D01*
X18845734Y15726342D01*
X18868143Y15604243D01*
X18913841Y15488823D01*
X18981088Y15384477D01*
X19024366Y15339661D01*
X19024366Y15319384D01*
X17043750Y17300000D01*
X25388550Y25644800D01*
X26559570Y25644800D01*
X26587755Y25615614D01*
X26689691Y25544767D01*
X26803446Y25495068D01*
X26924688Y25468411D01*
X27048798Y25465812D01*
X27171050Y25487368D01*
X27286787Y25532259D01*
X27391599Y25598776D01*
X27481497Y25684383D01*
X27553054Y25785822D01*
X27603545Y25899227D01*
X27631047Y26020280D01*
X27633027Y26162069D01*
X27608916Y26283842D01*
X27561610Y26398613D01*
X27492914Y26502010D01*
X27405442Y26590095D01*
X27302527Y26659512D01*
X27188089Y26707617D01*
X27066487Y26732579D01*
X26942352Y26733445D01*
X26820413Y26710184D01*
X26705315Y26663681D01*
X26601440Y26595708D01*
X26560075Y26555200D01*
X25200000Y26555200D01*
X25158140Y26551096D01*
X25116265Y26547432D01*
X25113968Y26546765D01*
X25111585Y26546531D01*
X25071313Y26534372D01*
X25030953Y26522646D01*
X25028829Y26521545D01*
X25026537Y26520853D01*
X24989371Y26501092D01*
X24952080Y26481762D01*
X24950213Y26480272D01*
X24948096Y26479146D01*
X24915503Y26452564D01*
X24882650Y26426338D01*
X24879318Y26423052D01*
X24879251Y26422997D01*
X24879200Y26422935D01*
X24878125Y26421875D01*
X16211450Y17755200D01*
X5840094Y17755200D01*
X5805442Y17790095D01*
X5702527Y17859512D01*
X5588089Y17907617D01*
X5466487Y17932579D01*
X5342352Y17933445D01*
X5220413Y17910184D01*
X5105315Y17863681D01*
X5001440Y17795708D01*
X4912747Y17708853D01*
X4842614Y17606426D01*
X4793711Y17492326D01*
X4767901Y17370901D01*
X4766168Y17246776D01*
X403200Y17246776D01*
X403200Y21738569D01*
X668440Y21738569D01*
X694304Y21597645D01*
X747048Y21464428D01*
X824663Y21343994D01*
X924192Y21240928D01*
X1041845Y21159157D01*
X1173140Y21101796D01*
X1303513Y21073132D01*
X2188322Y20188323D01*
X2229881Y20154186D01*
X2271076Y20119619D01*
X2273758Y20118145D01*
X2276124Y20116201D01*
X2323516Y20090789D01*
X2370647Y20064879D01*
X2373566Y20063953D01*
X2376263Y20062507D01*
X2427665Y20046792D01*
X2478954Y20030522D01*
X2481998Y20030181D01*
X2484924Y20029286D01*
X2538403Y20023854D01*
X2591871Y20017857D01*
X2597860Y20017815D01*
X2597968Y20017804D01*
X2598069Y20017814D01*
X2600000Y20017800D01*
X15857469Y20017800D01*
X15941845Y19959157D01*
X16073140Y19901796D01*
X16213076Y19871029D01*
X16356322Y19868029D01*
X16497423Y19892909D01*
X16631005Y19944722D01*
X16751979Y20021494D01*
X16855737Y20120301D01*
X16938327Y20237380D01*
X16996603Y20368271D01*
X17028346Y20507988D01*
X17030631Y20671639D01*
X17002802Y20812188D01*
X16948203Y20944656D01*
X16868914Y21063995D01*
X16767955Y21165661D01*
X16649172Y21245781D01*
X16517090Y21301303D01*
X16376738Y21330113D01*
X16233463Y21331114D01*
X16092723Y21304266D01*
X15959878Y21250593D01*
X15855363Y21182200D01*
X2841155Y21182200D01*
X2125425Y21897931D01*
X2102802Y22012188D01*
X2048203Y22144656D01*
X1968914Y22263995D01*
X1867955Y22365661D01*
X1749172Y22445781D01*
X1617090Y22501303D01*
X1476738Y22530113D01*
X1333463Y22531114D01*
X1192723Y22504266D01*
X1059878Y22450593D01*
X939988Y22372139D01*
X837620Y22271893D01*
X756673Y22153672D01*
X700229Y22021980D01*
X670440Y21881833D01*
X668440Y21738569D01*
X403200Y21738569D01*
X403200Y27946776D01*
X2666168Y27946776D01*
X2688577Y27824677D01*
X2734275Y27709257D01*
X2801522Y27604911D01*
X2887755Y27515614D01*
X2989691Y27444767D01*
X3103446Y27395068D01*
X3224688Y27368411D01*
X3289190Y27367060D01*
X7044800Y23611450D01*
X7044800Y22640242D01*
X7012747Y22608853D01*
X6942614Y22506426D01*
X6893711Y22392326D01*
X6867901Y22270901D01*
X6866168Y22146776D01*
X6888577Y22024677D01*
X6934275Y21909257D01*
X7001522Y21804911D01*
X7087755Y21715614D01*
X7189691Y21644767D01*
X7303446Y21595068D01*
X7424688Y21568411D01*
X7548798Y21565812D01*
X7671050Y21587368D01*
X7786787Y21632259D01*
X7891599Y21698776D01*
X7981497Y21784383D01*
X8053054Y21885822D01*
X8103545Y21999227D01*
X8131047Y22120280D01*
X8133027Y22262069D01*
X8108916Y22383842D01*
X8061610Y22498613D01*
X7992914Y22602010D01*
X7955200Y22639988D01*
X7955200Y23800000D01*
X7951095Y23841864D01*
X7947432Y23883735D01*
X7946765Y23886032D01*
X7946531Y23888415D01*
X7934372Y23928687D01*
X7922646Y23969047D01*
X7921545Y23971171D01*
X7920853Y23973463D01*
X7901113Y24010590D01*
X7881763Y24047920D01*
X7880270Y24049791D01*
X7879146Y24051904D01*
X7852566Y24084494D01*
X7826338Y24117349D01*
X7823053Y24120681D01*
X7822997Y24120749D01*
X7822934Y24120801D01*
X7821875Y24121875D01*
X3932320Y28011430D01*
X3933027Y28062069D01*
X3908916Y28183842D01*
X3861610Y28298613D01*
X3792914Y28402010D01*
X3705442Y28490095D01*
X3602527Y28559512D01*
X3488089Y28607617D01*
X3366487Y28632579D01*
X3242352Y28633445D01*
X3120413Y28610184D01*
X3005315Y28563681D01*
X2901440Y28495708D01*
X2812747Y28408853D01*
X2742614Y28306426D01*
X2693711Y28192326D01*
X2667901Y28070901D01*
X2666168Y27946776D01*
X403200Y27946776D01*
X403200Y28638569D01*
X568440Y28638569D01*
X594304Y28497645D01*
X647048Y28364428D01*
X724663Y28243994D01*
X824192Y28140928D01*
X941845Y28059157D01*
X1073140Y28001796D01*
X1213076Y27971029D01*
X1356322Y27968029D01*
X1497423Y27992909D01*
X1631005Y28044722D01*
X1751979Y28121494D01*
X1855737Y28220301D01*
X1938327Y28337380D01*
X1996603Y28468271D01*
X2028346Y28607988D01*
X2030631Y28771639D01*
X2002802Y28912188D01*
X1948203Y29044656D01*
X1882200Y29143998D01*
X1882200Y41758844D01*
X2198890Y42075535D01*
X2297423Y42092909D01*
X2431005Y42144722D01*
X2546158Y42217800D01*
X7600000Y42217800D01*
X7653522Y42223048D01*
X7707096Y42227735D01*
X7710037Y42228589D01*
X7713083Y42228888D01*
X7764539Y42244423D01*
X7816211Y42259435D01*
X7818931Y42260845D01*
X7821859Y42261729D01*
X7869334Y42286972D01*
X7917089Y42311726D01*
X7919480Y42313635D01*
X7922185Y42315073D01*
X7963896Y42349092D01*
X8005889Y42382615D01*
X8010153Y42386819D01*
X8010238Y42386888D01*
X8010303Y42386966D01*
X8011678Y42388322D01*
X11609205Y45985850D01*
X11609276Y45985920D01*
X11698888Y46075532D01*
X11797420Y46092906D01*
X11931002Y46144719D01*
X12051976Y46221491D01*
X12155734Y46320298D01*
X12238324Y46437377D01*
X12296600Y46568268D01*
X12328343Y46707985D01*
X12330628Y46871636D01*
X12302799Y47012185D01*
X12248200Y47144653D01*
X12168911Y47263992D01*
X12067952Y47365658D01*
X11949169Y47445778D01*
X11817087Y47501300D01*
X11676735Y47530110D01*
X11533460Y47531111D01*
X11392720Y47504263D01*
X11259875Y47450590D01*
X11139985Y47372136D01*
X11037617Y47271890D01*
X10956670Y47153669D01*
X10900226Y47021977D01*
X10873666Y46897022D01*
X10785920Y46809276D01*
X10785915Y46809270D01*
X7358844Y43382200D01*
X2543435Y43382200D01*
X2449172Y43445781D01*
X2317090Y43501303D01*
X2176738Y43530113D01*
X2033463Y43531114D01*
X1892723Y43504266D01*
X1759878Y43450593D01*
X1639988Y43372139D01*
X1537620Y43271893D01*
X1456673Y43153672D01*
X1400229Y43021980D01*
X1373669Y42897024D01*
X888322Y42411678D01*
X854179Y42370112D01*
X819619Y42328924D01*
X818143Y42326239D01*
X816201Y42323875D01*
X790801Y42276504D01*
X764879Y42229353D01*
X763953Y42226434D01*
X762507Y42223737D01*
X746792Y42172335D01*
X730522Y42121046D01*
X730181Y42118002D01*
X729286Y42115076D01*
X723854Y42061597D01*
X717857Y42008129D01*
X717815Y42002140D01*
X717804Y42002032D01*
X717814Y42001931D01*
X717800Y42000000D01*
X717800Y29142946D01*
X656673Y29053672D01*
X600229Y28921980D01*
X570440Y28781833D01*
X568440Y28638569D01*
X403200Y28638569D01*
X403200Y45026425D01*
X2122325Y46745548D01*
X2156841Y46738714D01*
X2192553Y46731123D01*
X2198152Y46730534D01*
X2314694Y46719107D01*
X2331605Y46719107D01*
X2348409Y46717222D01*
X2354039Y46717183D01*
X7754039Y46717184D01*
X7791116Y46720819D01*
X7828208Y46724064D01*
X7830247Y46724656D01*
X7832354Y46724863D01*
X7868005Y46735627D01*
X7903775Y46746019D01*
X7905655Y46746994D01*
X7907687Y46747607D01*
X7940595Y46765105D01*
X7973637Y46782232D01*
X7975294Y46783554D01*
X7977166Y46784550D01*
X8006024Y46808085D01*
X8035136Y46831325D01*
X8038081Y46834231D01*
X8038148Y46834285D01*
X8038199Y46834347D01*
X8039144Y46835279D01*
X11439145Y50235280D01*
X11439205Y50235353D01*
X11441129Y50237277D01*
X11446676Y50242902D01*
X11458201Y50257134D01*
X11471154Y50270087D01*
X11474697Y50274463D01*
X11543574Y50360745D01*
X11554785Y50378009D01*
X11788388Y50611612D01*
X11815152Y50651368D01*
X11825000Y50700000D01*
X11825000Y51719400D01*
X22028270Y51719400D01*
X23419400Y50328271D01*
X23419400Y49481993D01*
X23376108Y49439598D01*
X23300700Y49329468D01*
X23248120Y49206789D01*
X23220369Y49076233D01*
X23218506Y48942773D01*
X23242600Y48811494D01*
X23291734Y48687394D01*
X23364038Y48575201D01*
X23456755Y48479189D01*
X23566356Y48403015D01*
X23688665Y48349579D01*
X23819024Y48320918D01*
X23952468Y48318123D01*
X24083912Y48341300D01*
X24208352Y48389567D01*
X24321047Y48461085D01*
X24417704Y48553130D01*
X24494641Y48662197D01*
X24548930Y48784130D01*
X24578500Y48914285D01*
X24580629Y49066736D01*
X24554704Y49197667D01*
X24503842Y49321068D01*
X24429979Y49432240D01*
X24380600Y49481966D01*
X24380600Y50527342D01*
X24376271Y50571494D01*
X24372399Y50615749D01*
X24371693Y50618177D01*
X24371447Y50620691D01*
X24358614Y50663197D01*
X24346230Y50705821D01*
X24345068Y50708063D01*
X24344337Y50710484D01*
X24323489Y50749693D01*
X24303065Y50789096D01*
X24301488Y50791071D01*
X24300302Y50793302D01*
X24272229Y50827723D01*
X24244547Y50862399D01*
X24241081Y50865915D01*
X24241020Y50865989D01*
X24240951Y50866046D01*
X24239836Y50867177D01*
X24213915Y50893098D01*
X24321047Y50961085D01*
X24417704Y51053130D01*
X24494641Y51162197D01*
X24548930Y51284130D01*
X24578500Y51414285D01*
X24580629Y51566736D01*
X24554704Y51697667D01*
X24503842Y51821068D01*
X24429979Y51932240D01*
X24335930Y52026949D01*
X24225276Y52101586D01*
X24102233Y52153308D01*
X23971486Y52180147D01*
X23899019Y52180652D01*
X23887437Y52192235D01*
X23887431Y52192240D01*
X23082626Y52997046D01*
X23048305Y53025237D01*
X23014313Y53053760D01*
X23012098Y53054978D01*
X23010146Y53056581D01*
X22970987Y53077578D01*
X22932118Y53098946D01*
X22929715Y53099708D01*
X22927483Y53100905D01*
X22885008Y53113890D01*
X22842712Y53127308D01*
X22840198Y53127590D01*
X22837784Y53128328D01*
X22793637Y53132812D01*
X22749500Y53137763D01*
X22744561Y53137798D01*
X22744468Y53137807D01*
X22744382Y53137799D01*
X22742790Y53137810D01*
X11825000Y53137810D01*
X11825000Y54299999D01*
X11815813Y54347036D01*
X11788388Y54388387D01*
X10388388Y55788387D01*
X10348632Y55815151D01*
X10300000Y55824999D01*
X2251777Y55825000D01*
X403200Y57673576D01*
X403200Y58333420D01*
X535253Y58196675D01*
X716934Y58070404D01*
X919680Y57981826D01*
X1135770Y57934316D01*
X1356973Y57929682D01*
X1574863Y57968102D01*
X1781141Y58048112D01*
X1967950Y58166665D01*
X2128174Y58319244D01*
X2255711Y58500038D01*
X2345702Y58702162D01*
X2394720Y58917915D01*
X2394851Y58927301D01*
X6419726Y58927301D01*
X6475597Y58622884D01*
X6589531Y58335118D01*
X6757191Y58074961D01*
X6972188Y57852325D01*
X7226335Y57675689D01*
X7509950Y57551780D01*
X7812231Y57485320D01*
X8121664Y57478838D01*
X8426463Y57532582D01*
X8715018Y57644505D01*
X8976338Y57810344D01*
X9200470Y58023782D01*
X9341567Y58223800D01*
X22661271Y58223800D01*
X22757191Y58074961D01*
X22972188Y57852325D01*
X23226335Y57675689D01*
X23509950Y57551780D01*
X23812231Y57485320D01*
X24121664Y57478838D01*
X24426463Y57532582D01*
X24715018Y57644505D01*
X24976338Y57810344D01*
X25200470Y58023782D01*
X25378876Y58276689D01*
X25504762Y58559432D01*
X25573331Y58861242D01*
X25578267Y59214750D01*
X25518152Y59518357D01*
X25400210Y59804505D01*
X25228935Y60062295D01*
X25010850Y60281908D01*
X24754262Y60454978D01*
X24468944Y60574915D01*
X24165765Y60637149D01*
X23856272Y60639309D01*
X23552253Y60581315D01*
X23265288Y60465374D01*
X23006309Y60295902D01*
X22785179Y60079356D01*
X22659770Y59896200D01*
X9339288Y59896200D01*
X9228935Y60062295D01*
X9010850Y60281908D01*
X8754262Y60454978D01*
X8468944Y60574915D01*
X8165765Y60637149D01*
X7856272Y60639309D01*
X7552253Y60581315D01*
X7265288Y60465374D01*
X7006309Y60295902D01*
X6785179Y60079356D01*
X6610321Y59823982D01*
X6488396Y59539509D01*
X6424047Y59236771D01*
X6419726Y58927301D01*
X2394851Y58927301D01*
X2398248Y59170626D01*
X2355274Y59387663D01*
X2270961Y59592221D01*
X2148523Y59776506D01*
X1992621Y59933499D01*
X1809196Y60057222D01*
X1605232Y60142960D01*
X1388500Y60187449D01*
X1167254Y60188993D01*
X949921Y60147535D01*
X744780Y60064653D01*
X559645Y59943503D01*
X403200Y59790301D01*
X403200Y63958904D01*
X1178201Y63958904D01*
X1178201Y63641096D01*
X1200899Y63409608D01*
X1268127Y63186936D01*
X1377325Y62981564D01*
X1524335Y62801313D01*
X1703555Y62653049D01*
X1908160Y62542419D01*
X2130356Y62473638D01*
X2361681Y62449325D01*
X2593322Y62470406D01*
X2816457Y62536078D01*
X3022587Y62643840D01*
X3203860Y62789587D01*
X3353371Y62967768D01*
X3465426Y63171596D01*
X3535757Y63393307D01*
X3561685Y63624456D01*
X3561801Y63641096D01*
X3561801Y63958904D01*
X3718201Y63958904D01*
X3718201Y63641096D01*
X3740899Y63409608D01*
X3808127Y63186936D01*
X3917325Y62981564D01*
X4064335Y62801313D01*
X4243555Y62653049D01*
X4448160Y62542419D01*
X4670356Y62473638D01*
X4901681Y62449325D01*
X5133322Y62470406D01*
X5356457Y62536078D01*
X5562587Y62643840D01*
X5743860Y62789587D01*
X5893371Y62967768D01*
X6005426Y63171596D01*
X6075757Y63393307D01*
X6101685Y63624456D01*
X6101801Y63641096D01*
X6101801Y63798000D01*
X6258201Y63798000D01*
X6258201Y63645600D01*
X6281491Y63413130D01*
X6349686Y63189670D01*
X6460166Y62983808D01*
X6608685Y62803455D01*
X6789535Y62655542D01*
X6995767Y62545754D01*
X7219454Y62478309D01*
X7261587Y62470788D01*
X7448001Y62537852D01*
X7448001Y63798000D01*
X7452001Y63798000D01*
X7452001Y62537852D01*
X7638415Y62470788D01*
X7680548Y62478309D01*
X7904235Y62545754D01*
X8110467Y62655542D01*
X8291317Y62803455D01*
X8439836Y62983808D01*
X8550316Y63189670D01*
X8618511Y63413130D01*
X8641801Y63645600D01*
X8641801Y63798000D01*
X7452001Y63798000D01*
X7448001Y63798000D01*
X6258201Y63798000D01*
X6101801Y63798000D01*
X6101801Y63954400D01*
X6258201Y63954400D01*
X6258201Y63802000D01*
X7448001Y63802000D01*
X7448001Y65062148D01*
X7452001Y65062148D01*
X7452001Y63802000D01*
X8641801Y63802000D01*
X8641801Y63954400D01*
X8618511Y64186870D01*
X8550316Y64410330D01*
X8439836Y64616192D01*
X8291317Y64796545D01*
X8267530Y64816000D01*
X8796613Y64816000D01*
X8796613Y62784000D01*
X8800781Y62731735D01*
X8828233Y62643089D01*
X8879295Y62565600D01*
X8949922Y62505404D01*
X9034524Y62467269D01*
X9126401Y62454212D01*
X10853601Y62454212D01*
X10905866Y62458380D01*
X10994512Y62485832D01*
X11072001Y62536894D01*
X11132197Y62607521D01*
X11170332Y62692123D01*
X11183389Y62784000D01*
X11183389Y64816000D01*
X11179221Y64868265D01*
X11151769Y64956911D01*
X11100707Y65034400D01*
X11030080Y65094596D01*
X10945478Y65132731D01*
X10853601Y65145788D01*
X9126401Y65145788D01*
X9074136Y65141620D01*
X8985490Y65114168D01*
X8908001Y65063106D01*
X8847805Y64992479D01*
X8809670Y64907877D01*
X8796613Y64816000D01*
X8267530Y64816000D01*
X8110467Y64944458D01*
X7904235Y65054246D01*
X7680548Y65121691D01*
X7638415Y65129212D01*
X7452001Y65062148D01*
X7448001Y65062148D01*
X7261587Y65129212D01*
X7219454Y65121691D01*
X6995767Y65054246D01*
X6789535Y64944458D01*
X6608685Y64796545D01*
X6460166Y64616192D01*
X6349686Y64410330D01*
X6281491Y64186870D01*
X6258201Y63954400D01*
X6101801Y63954400D01*
X6101801Y63958904D01*
X6079103Y64190392D01*
X6011875Y64413064D01*
X5902677Y64618436D01*
X5755667Y64798687D01*
X5576447Y64946951D01*
X5371842Y65057581D01*
X5149646Y65126362D01*
X4918321Y65150675D01*
X4686680Y65129594D01*
X4463545Y65063922D01*
X4257415Y64956160D01*
X4076142Y64810413D01*
X3926631Y64632232D01*
X3814576Y64428404D01*
X3744245Y64206693D01*
X3718317Y63975544D01*
X3718201Y63958904D01*
X3561801Y63958904D01*
X3539103Y64190392D01*
X3471875Y64413064D01*
X3362677Y64618436D01*
X3215667Y64798687D01*
X3036447Y64946951D01*
X2831842Y65057581D01*
X2609646Y65126362D01*
X2378321Y65150675D01*
X2146680Y65129594D01*
X1923545Y65063922D01*
X1717415Y64956160D01*
X1536142Y64810413D01*
X1386631Y64632232D01*
X1274576Y64428404D01*
X1204245Y64206693D01*
X1178317Y63975544D01*
X1178201Y63958904D01*
X403200Y63958904D01*
X403200Y64480278D01*
X425986Y64712664D01*
X487743Y64917217D01*
X588063Y65105892D01*
X723113Y65271479D01*
X887758Y65407685D01*
X1075720Y65509316D01*
X1279846Y65572505D01*
X1511015Y65596801D01*
X14141799Y65596799D01*
X14141799Y65596799D01*
G37*
X14141799Y65596799D02*
X14146790Y65571594D01*
X14148455Y65566216D01*
X14236973Y65287171D01*
X14251363Y65253597D01*
X14265295Y65219795D01*
X14267973Y65214842D01*
X14409006Y64958306D01*
X14429655Y64928149D01*
X14449875Y64897715D01*
X14453464Y64893377D01*
X14641639Y64669119D01*
X14667752Y64643547D01*
X14693498Y64617620D01*
X14697856Y64614067D01*
X14697861Y64614062D01*
X14697866Y64614058D01*
X14926011Y64430625D01*
X14956568Y64410629D01*
X14986886Y64390179D01*
X14991857Y64387537D01*
X15251293Y64251907D01*
X15285179Y64238216D01*
X15318863Y64224057D01*
X15324253Y64222430D01*
X15605090Y64139775D01*
X15640934Y64132938D01*
X15676784Y64125578D01*
X15682388Y64125029D01*
X15973932Y64098497D01*
X16010474Y64098752D01*
X16047016Y64098497D01*
X16052619Y64099047D01*
X16052623Y64099047D01*
X16343764Y64129647D01*
X16379527Y64136988D01*
X16415459Y64143842D01*
X16420848Y64145470D01*
X16700505Y64232039D01*
X16734176Y64246193D01*
X16768076Y64259889D01*
X16773047Y64262533D01*
X17030562Y64401771D01*
X17060853Y64422203D01*
X17091437Y64442216D01*
X17095800Y64445774D01*
X17321366Y64632379D01*
X17347126Y64658320D01*
X17373225Y64683877D01*
X17376808Y64688210D01*
X17376814Y64688216D01*
X17376818Y64688223D01*
X17561840Y64915080D01*
X17582048Y64945496D01*
X17602709Y64975670D01*
X17605386Y64980623D01*
X17742823Y65239104D01*
X17756742Y65272874D01*
X17771146Y65306480D01*
X17772810Y65311858D01*
X17857423Y65592112D01*
X17858351Y65596800D01*
X30480279Y65596799D01*
X30712663Y65574014D01*
X30917220Y65512254D01*
X31105890Y65411936D01*
X31271481Y65276883D01*
X31407684Y65112242D01*
X31509317Y64924275D01*
X31572503Y64720153D01*
X31596800Y64488982D01*
X31596800Y49500000D01*
X31600436Y49462915D01*
X31603680Y49425832D01*
X31604272Y49423794D01*
X31604479Y49421685D01*
X31615254Y49385995D01*
X31625635Y49350266D01*
X31626608Y49348389D01*
X31627223Y49346352D01*
X31644751Y49313387D01*
X31661848Y49280403D01*
X31663169Y49278748D01*
X31664166Y49276873D01*
X31687739Y49247969D01*
X31710941Y49218904D01*
X31713842Y49215964D01*
X31713901Y49215891D01*
X31713968Y49215835D01*
X31714895Y49214896D01*
X36596800Y44332989D01*
X36596800Y40282871D01*
X35932815Y40946857D01*
X35933027Y40962069D01*
X35908916Y41083842D01*
X35861610Y41198613D01*
X35792914Y41302010D01*
X35705442Y41390095D01*
X35602527Y41459512D01*
X35488089Y41507617D01*
X35366487Y41532579D01*
X35242352Y41533445D01*
X35120413Y41510184D01*
X35005315Y41463681D01*
X34901440Y41395708D01*
X34812747Y41308853D01*
X34742614Y41206426D01*
X34693711Y41092326D01*
X34667901Y40970901D01*
X34666168Y40846776D01*
X34688577Y40724677D01*
X34734275Y40609257D01*
X34801522Y40504911D01*
X34887755Y40415614D01*
X34989691Y40344767D01*
X35103446Y40295068D01*
X35224688Y40268411D01*
X35252500Y40267829D01*
X36029001Y39491328D01*
X36029001Y38919746D01*
X35966487Y38932579D01*
X35842352Y38933445D01*
X35720413Y38910184D01*
X35605315Y38863681D01*
X35501440Y38795708D01*
X35412747Y38708853D01*
X35342614Y38606426D01*
X35293711Y38492326D01*
X35267901Y38370901D01*
X35266168Y38246776D01*
X35288577Y38124677D01*
X35334275Y38009257D01*
X35401522Y37904911D01*
X35419400Y37886398D01*
X35419400Y30299071D01*
X34353694Y29233366D01*
X34342352Y29233445D01*
X34220413Y29210184D01*
X34105315Y29163681D01*
X34001440Y29095708D01*
X33912747Y29008853D01*
X33842614Y28906426D01*
X33793711Y28792326D01*
X33769963Y28680600D01*
X26414872Y28680600D01*
X26405443Y28690095D01*
X26302528Y28759512D01*
X26188090Y28807617D01*
X26066488Y28832579D01*
X25942353Y28833445D01*
X25820414Y28810184D01*
X25705316Y28763681D01*
X25601441Y28695708D01*
X25512748Y28608853D01*
X25442615Y28506426D01*
X25393712Y28392326D01*
X25367902Y28270901D01*
X25366169Y28146776D01*
X25380076Y28070999D01*
X24908674Y28070999D01*
X24732816Y28246857D01*
X24733028Y28262069D01*
X24708917Y28383842D01*
X24661611Y28498613D01*
X24592915Y28602010D01*
X24505443Y28690095D01*
X24402528Y28759512D01*
X24288090Y28807617D01*
X24166488Y28832579D01*
X24042353Y28833445D01*
X23920414Y28810184D01*
X23805316Y28763681D01*
X23701441Y28695708D01*
X23612748Y28608853D01*
X23542615Y28506426D01*
X23493712Y28392326D01*
X23467902Y28270901D01*
X23466169Y28146776D01*
X23488578Y28024677D01*
X23534276Y27909257D01*
X23601523Y27804911D01*
X23687756Y27715614D01*
X23789692Y27644767D01*
X23903447Y27595068D01*
X24024689Y27568411D01*
X24052500Y27567829D01*
X24369766Y27250563D01*
X24404087Y27222372D01*
X24438079Y27193849D01*
X24440294Y27192631D01*
X24442246Y27191028D01*
X24481405Y27170031D01*
X24520274Y27148663D01*
X24522677Y27147901D01*
X24524909Y27146704D01*
X24567384Y27133719D01*
X24609680Y27120301D01*
X24612194Y27120019D01*
X24614608Y27119281D01*
X24658755Y27114797D01*
X24702892Y27109846D01*
X24707831Y27109811D01*
X24707924Y27109802D01*
X24708010Y27109810D01*
X24709602Y27109799D01*
X34790399Y27109799D01*
X34834551Y27114128D01*
X34878806Y27118000D01*
X34881234Y27118706D01*
X34883748Y27118952D01*
X34926254Y27131785D01*
X34968878Y27144169D01*
X34971120Y27145331D01*
X34973541Y27146062D01*
X35012750Y27166910D01*
X35052153Y27187334D01*
X35054128Y27188911D01*
X35056359Y27190097D01*
X35090756Y27218150D01*
X35125457Y27245852D01*
X35128977Y27249323D01*
X35129046Y27249379D01*
X35129098Y27249442D01*
X35130235Y27250563D01*
X35834966Y27955295D01*
X35835037Y27955365D01*
X35845552Y27965880D01*
X35848798Y27965812D01*
X35971050Y27987368D01*
X36086787Y28032259D01*
X36191599Y28098776D01*
X36281497Y28184383D01*
X36353054Y28285822D01*
X36403545Y28399227D01*
X36431047Y28520280D01*
X36431487Y28551816D01*
X36444564Y28564893D01*
X36444635Y28564963D01*
X36596800Y28717128D01*
X36596800Y21667011D01*
X31714895Y16785105D01*
X31691262Y16756334D01*
X31667314Y16727795D01*
X31666293Y16725937D01*
X31664947Y16724299D01*
X31647321Y16691427D01*
X31629405Y16658837D01*
X31628766Y16656822D01*
X31627761Y16654948D01*
X31616857Y16619282D01*
X31605611Y16583830D01*
X31605375Y16581723D01*
X31604755Y16579696D01*
X31600992Y16542650D01*
X31596839Y16505630D01*
X31596810Y16501489D01*
X31596802Y16501407D01*
X31596809Y16501331D01*
X31596800Y16500000D01*
X31596800Y4928311D01*
X31452621Y5073499D01*
X31269196Y5197222D01*
X31065232Y5282960D01*
X30848500Y5327449D01*
X30627254Y5328993D01*
X30409921Y5287535D01*
X30204780Y5204653D01*
X30019645Y5083503D01*
X29861567Y4928702D01*
X29736567Y4746144D01*
X29649407Y4542784D01*
X29603406Y4326368D01*
X29600317Y4105138D01*
X29640257Y3887521D01*
X29721705Y3681807D01*
X29841559Y3495830D01*
X29995253Y3336675D01*
X30176934Y3210404D01*
X30379680Y3121826D01*
X30595770Y3074316D01*
X30816973Y3069682D01*
X31034863Y3108102D01*
X31241141Y3188112D01*
X31427950Y3306665D01*
X31588174Y3459244D01*
X31596800Y3471472D01*
X31596800Y1519723D01*
X31574014Y1287337D01*
X31512254Y1082781D01*
X31411935Y894107D01*
X31276888Y728523D01*
X31112240Y592315D01*
X30924279Y490684D01*
X30720150Y427496D01*
X30488972Y403199D01*
X17858204Y403201D01*
X17853214Y428405D01*
X17851551Y433775D01*
X17851549Y433782D01*
X17851546Y433788D01*
X17763029Y712828D01*
X17748654Y746367D01*
X17734709Y780201D01*
X17732031Y785154D01*
X17590998Y1041692D01*
X17570356Y1071839D01*
X17550129Y1102284D01*
X17546540Y1106622D01*
X17358365Y1330880D01*
X17332253Y1356451D01*
X17306507Y1382378D01*
X17302143Y1385937D01*
X17073993Y1569375D01*
X17043394Y1589398D01*
X17013118Y1609820D01*
X17008152Y1612460D01*
X17008148Y1612463D01*
X17008144Y1612465D01*
X16748712Y1748092D01*
X16714870Y1761765D01*
X16681142Y1775943D01*
X16675752Y1777570D01*
X16394914Y1860226D01*
X16359056Y1867066D01*
X16323219Y1874423D01*
X16317615Y1874972D01*
X16026071Y1901504D01*
X15989529Y1901249D01*
X15952987Y1901504D01*
X15947384Y1900954D01*
X15947382Y1900954D01*
X15656239Y1870354D01*
X15620476Y1863013D01*
X15584544Y1856159D01*
X15579154Y1854531D01*
X15299499Y1767963D01*
X15265828Y1753809D01*
X15231928Y1740113D01*
X15226957Y1737470D01*
X14969440Y1598232D01*
X14939132Y1577789D01*
X14908564Y1557786D01*
X14904201Y1554227D01*
X14678635Y1367623D01*
X14652875Y1341682D01*
X14626776Y1316125D01*
X14623188Y1311787D01*
X14438162Y1084922D01*
X14417971Y1054532D01*
X14397292Y1024332D01*
X14394615Y1019379D01*
X14257177Y760898D01*
X14243244Y727093D01*
X14228855Y693523D01*
X14227190Y688145D01*
X14142576Y407891D01*
X14141647Y403201D01*
X1519721Y403200D01*
X1287336Y425985D01*
X1082776Y487746D01*
X894111Y588061D01*
X728520Y723113D01*
X592314Y887759D01*
X490681Y1075723D01*
X427495Y1279846D01*
X403200Y1510998D01*
X403200Y3135249D01*
X6938078Y3135249D01*
X7069488Y2915857D01*
X7337891Y2758998D01*
X7631739Y2657515D01*
X7939740Y2615309D01*
X8250055Y2634002D01*
X8550761Y2712876D01*
X8830302Y2848899D01*
X8930512Y2915857D01*
X9061922Y3135249D01*
X8000000Y4197172D01*
X6938078Y3135249D01*
X403200Y3135249D01*
X403200Y4146778D01*
X2516168Y4146778D01*
X2538577Y4024679D01*
X2584275Y3909259D01*
X2651522Y3804913D01*
X2737755Y3715616D01*
X2839691Y3644769D01*
X2953446Y3595070D01*
X3074688Y3568413D01*
X3198798Y3565814D01*
X3321050Y3587370D01*
X3436787Y3632261D01*
X3541599Y3698778D01*
X3631497Y3784385D01*
X3703054Y3885824D01*
X3753545Y3999229D01*
X3781047Y4120282D01*
X3781487Y4151818D01*
X3794564Y4164895D01*
X3794635Y4164965D01*
X3889929Y4260260D01*
X6415309Y4260260D01*
X6434002Y3949945D01*
X6512876Y3649239D01*
X6648899Y3369698D01*
X6715857Y3269488D01*
X6935249Y3138078D01*
X7997172Y4200000D01*
X8002828Y4200000D01*
X9064751Y3138078D01*
X9284143Y3269488D01*
X9441002Y3537891D01*
X9542485Y3831739D01*
X9574764Y4067301D01*
X22419726Y4067301D01*
X22475597Y3762884D01*
X22589531Y3475118D01*
X22757191Y3214961D01*
X22972188Y2992325D01*
X23226335Y2815689D01*
X23509950Y2691780D01*
X23812231Y2625320D01*
X24121664Y2618838D01*
X24426463Y2672582D01*
X24715018Y2784505D01*
X24976338Y2950344D01*
X25200470Y3163782D01*
X25378876Y3416689D01*
X25504762Y3699432D01*
X25573331Y4001242D01*
X25578267Y4354750D01*
X25518152Y4658357D01*
X25400210Y4944505D01*
X25228935Y5202295D01*
X25010850Y5421908D01*
X24754262Y5594978D01*
X24468944Y5714915D01*
X24165765Y5777149D01*
X23856272Y5779309D01*
X23552253Y5721315D01*
X23265288Y5605374D01*
X23006309Y5435902D01*
X22785179Y5219356D01*
X22610321Y4963982D01*
X22488396Y4679509D01*
X22424047Y4376771D01*
X22419726Y4067301D01*
X9574764Y4067301D01*
X9584691Y4139740D01*
X9565998Y4450055D01*
X9487124Y4750761D01*
X9351101Y5030302D01*
X9284143Y5130512D01*
X9064751Y5261922D01*
X8002828Y4200000D01*
X7997172Y4200000D01*
X6935249Y5261922D01*
X6715857Y5130512D01*
X6558998Y4862109D01*
X6457515Y4568261D01*
X6415309Y4260260D01*
X3889929Y4260260D01*
X4894420Y5264751D01*
X6938078Y5264751D01*
X8000000Y4202828D01*
X9061922Y5264751D01*
X8930512Y5484143D01*
X8662109Y5641002D01*
X8368261Y5742485D01*
X8060260Y5784691D01*
X7749945Y5765998D01*
X7449239Y5687124D01*
X7169698Y5551101D01*
X7069488Y5484143D01*
X6938078Y5264751D01*
X4894420Y5264751D01*
X7680657Y8050988D01*
X7708824Y8085279D01*
X7737372Y8119301D01*
X7738590Y8121516D01*
X7740193Y8123468D01*
X7761171Y8162592D01*
X7782558Y8201496D01*
X7783322Y8203904D01*
X7784516Y8206131D01*
X7797488Y8248560D01*
X7810920Y8290902D01*
X7811202Y8293416D01*
X7811940Y8295830D01*
X7816424Y8339977D01*
X7821375Y8384114D01*
X7821410Y8389053D01*
X7821419Y8389146D01*
X7821411Y8389232D01*
X7821422Y8390824D01*
X7821422Y13383529D01*
X7822319Y13384383D01*
X7893876Y13485822D01*
X7944367Y13599227D01*
X7971869Y13720280D01*
X7973849Y13862069D01*
X7949738Y13983842D01*
X7902432Y14098613D01*
X7833736Y14202010D01*
X7746264Y14290095D01*
X7643349Y14359512D01*
X7528911Y14407617D01*
X7407309Y14432579D01*
X7283174Y14433445D01*
X7161235Y14410184D01*
X7046137Y14363681D01*
X6942262Y14295708D01*
X6853569Y14208853D01*
X6783436Y14106426D01*
X6734533Y13992326D01*
X6708723Y13870901D01*
X6706990Y13746776D01*
X6729399Y13624677D01*
X6775097Y13509257D01*
X6842344Y13404911D01*
X6860222Y13386398D01*
X6860222Y8589895D01*
X3114963Y4844637D01*
X3114958Y4844631D01*
X3103695Y4833368D01*
X3092352Y4833447D01*
X2970413Y4810186D01*
X2855315Y4763683D01*
X2751440Y4695710D01*
X2662747Y4608855D01*
X2592614Y4506428D01*
X2543711Y4392328D01*
X2517901Y4270903D01*
X2516168Y4146778D01*
X403200Y4146778D01*
X403200Y17246776D01*
X4766168Y17246776D01*
X4788577Y17124677D01*
X4834275Y17009257D01*
X4901522Y16904911D01*
X4987755Y16815614D01*
X5089691Y16744767D01*
X5203446Y16695068D01*
X5324688Y16668411D01*
X5448798Y16665812D01*
X5571050Y16687368D01*
X5686787Y16732259D01*
X5791599Y16798776D01*
X5839930Y16844800D01*
X16211450Y16844800D01*
X18966764Y14089486D01*
X18966168Y14046776D01*
X18988577Y13924677D01*
X19034275Y13809257D01*
X19101522Y13704911D01*
X19187755Y13615614D01*
X19289691Y13544767D01*
X19403446Y13495068D01*
X19524688Y13468411D01*
X19648798Y13465812D01*
X19771050Y13487368D01*
X19794800Y13496580D01*
X19794800Y8038550D01*
X18789367Y7033117D01*
X18742352Y7033445D01*
X18620413Y7010184D01*
X18505315Y6963681D01*
X18401440Y6895708D01*
X18312747Y6808853D01*
X18242614Y6706426D01*
X18193711Y6592326D01*
X18167901Y6470901D01*
X18166168Y6346776D01*
X18188577Y6224677D01*
X18234275Y6109257D01*
X18301522Y6004911D01*
X18387755Y5915614D01*
X18489691Y5844767D01*
X18603446Y5795068D01*
X18724688Y5768411D01*
X18848798Y5765812D01*
X18971050Y5787368D01*
X19086787Y5832259D01*
X19191599Y5898776D01*
X19281497Y5984383D01*
X19353054Y6085822D01*
X19403545Y6199227D01*
X19431047Y6320280D01*
X19431996Y6388246D01*
X20571875Y7528125D01*
X20598550Y7560600D01*
X20625592Y7592827D01*
X20626746Y7594926D01*
X20628264Y7596774D01*
X20648132Y7633828D01*
X20668390Y7670678D01*
X20669114Y7672959D01*
X20670245Y7675069D01*
X20682544Y7715295D01*
X20695253Y7755359D01*
X20695520Y7757736D01*
X20696220Y7760027D01*
X20700467Y7801845D01*
X20705156Y7843644D01*
X20705188Y7848326D01*
X20705197Y7848411D01*
X20705190Y7848490D01*
X20705200Y7850000D01*
X20705200Y12096776D01*
X23866168Y12096776D01*
X23888577Y11974677D01*
X23934275Y11859257D01*
X24001522Y11754911D01*
X24087755Y11665614D01*
X24189691Y11594767D01*
X24303446Y11545068D01*
X24424688Y11518411D01*
X24489190Y11517060D01*
X27528125Y8478125D01*
X27560622Y8451431D01*
X27592827Y8424408D01*
X27594923Y8423256D01*
X27596773Y8421736D01*
X27633849Y8401857D01*
X27670678Y8381610D01*
X27672959Y8380886D01*
X27675069Y8379755D01*
X27715267Y8367465D01*
X27755359Y8354747D01*
X27757740Y8354480D01*
X27760026Y8353781D01*
X27801805Y8349537D01*
X27843644Y8344844D01*
X27848325Y8344812D01*
X27848410Y8344803D01*
X27848489Y8344810D01*
X27850000Y8344800D01*
X29059570Y8344800D01*
X29087755Y8315614D01*
X29189691Y8244767D01*
X29303446Y8195068D01*
X29424688Y8168411D01*
X29548798Y8165812D01*
X29671050Y8187368D01*
X29786787Y8232259D01*
X29891599Y8298776D01*
X29981497Y8384383D01*
X30053054Y8485822D01*
X30103545Y8599227D01*
X30131047Y8720280D01*
X30133027Y8862069D01*
X30108916Y8983842D01*
X30061610Y9098613D01*
X29992914Y9202010D01*
X29905442Y9290095D01*
X29802527Y9359512D01*
X29688089Y9407617D01*
X29566487Y9432579D01*
X29442352Y9433445D01*
X29320413Y9410184D01*
X29205315Y9363681D01*
X29101440Y9295708D01*
X29060075Y9255200D01*
X28038550Y9255200D01*
X25132320Y12161430D01*
X25133027Y12212069D01*
X25108916Y12333842D01*
X25061610Y12448613D01*
X24992914Y12552010D01*
X24905442Y12640095D01*
X24802527Y12709512D01*
X24688089Y12757617D01*
X24566487Y12782579D01*
X24442352Y12783445D01*
X24320413Y12760184D01*
X24205315Y12713681D01*
X24101440Y12645708D01*
X24012747Y12558853D01*
X23942614Y12456426D01*
X23893711Y12342326D01*
X23867901Y12220901D01*
X23866168Y12096776D01*
X20705200Y12096776D01*
X20705200Y14400000D01*
X20701096Y14441860D01*
X20697432Y14483735D01*
X20696765Y14486032D01*
X20696531Y14488415D01*
X20684372Y14528687D01*
X20672646Y14569047D01*
X20671545Y14571171D01*
X20670853Y14573463D01*
X20651113Y14610590D01*
X20631763Y14647920D01*
X20630270Y14649791D01*
X20629146Y14651904D01*
X20602586Y14684469D01*
X20576338Y14717350D01*
X20573052Y14720682D01*
X20572997Y14720749D01*
X20572935Y14720800D01*
X20571875Y14721875D01*
X19945050Y15348700D01*
X19961063Y15363949D01*
X20032620Y15465388D01*
X20083111Y15578793D01*
X20110613Y15699846D01*
X20112593Y15841635D01*
X20088482Y15963408D01*
X20041176Y16078179D01*
X19972480Y16181576D01*
X19885008Y16269661D01*
X19782093Y16339078D01*
X19667655Y16387183D01*
X19546053Y16412145D01*
X19421918Y16413011D01*
X19299979Y16389750D01*
X19184881Y16343247D01*
X19081006Y16275274D01*
X18992313Y16188419D01*
X18922180Y16085992D01*
X18873277Y15971892D01*
X18847467Y15850467D01*
X18845734Y15726342D01*
X18868143Y15604243D01*
X18913841Y15488823D01*
X18981088Y15384477D01*
X19024366Y15339661D01*
X19024366Y15319384D01*
X17043750Y17300000D01*
X25388550Y25644800D01*
X26559570Y25644800D01*
X26587755Y25615614D01*
X26689691Y25544767D01*
X26803446Y25495068D01*
X26924688Y25468411D01*
X27048798Y25465812D01*
X27171050Y25487368D01*
X27286787Y25532259D01*
X27391599Y25598776D01*
X27481497Y25684383D01*
X27553054Y25785822D01*
X27603545Y25899227D01*
X27631047Y26020280D01*
X27633027Y26162069D01*
X27608916Y26283842D01*
X27561610Y26398613D01*
X27492914Y26502010D01*
X27405442Y26590095D01*
X27302527Y26659512D01*
X27188089Y26707617D01*
X27066487Y26732579D01*
X26942352Y26733445D01*
X26820413Y26710184D01*
X26705315Y26663681D01*
X26601440Y26595708D01*
X26560075Y26555200D01*
X25200000Y26555200D01*
X25158140Y26551096D01*
X25116265Y26547432D01*
X25113968Y26546765D01*
X25111585Y26546531D01*
X25071313Y26534372D01*
X25030953Y26522646D01*
X25028829Y26521545D01*
X25026537Y26520853D01*
X24989371Y26501092D01*
X24952080Y26481762D01*
X24950213Y26480272D01*
X24948096Y26479146D01*
X24915503Y26452564D01*
X24882650Y26426338D01*
X24879318Y26423052D01*
X24879251Y26422997D01*
X24879200Y26422935D01*
X24878125Y26421875D01*
X16211450Y17755200D01*
X5840094Y17755200D01*
X5805442Y17790095D01*
X5702527Y17859512D01*
X5588089Y17907617D01*
X5466487Y17932579D01*
X5342352Y17933445D01*
X5220413Y17910184D01*
X5105315Y17863681D01*
X5001440Y17795708D01*
X4912747Y17708853D01*
X4842614Y17606426D01*
X4793711Y17492326D01*
X4767901Y17370901D01*
X4766168Y17246776D01*
X403200Y17246776D01*
X403200Y21738569D01*
X668440Y21738569D01*
X694304Y21597645D01*
X747048Y21464428D01*
X824663Y21343994D01*
X924192Y21240928D01*
X1041845Y21159157D01*
X1173140Y21101796D01*
X1303513Y21073132D01*
X2188322Y20188323D01*
X2229881Y20154186D01*
X2271076Y20119619D01*
X2273758Y20118145D01*
X2276124Y20116201D01*
X2323516Y20090789D01*
X2370647Y20064879D01*
X2373566Y20063953D01*
X2376263Y20062507D01*
X2427665Y20046792D01*
X2478954Y20030522D01*
X2481998Y20030181D01*
X2484924Y20029286D01*
X2538403Y20023854D01*
X2591871Y20017857D01*
X2597860Y20017815D01*
X2597968Y20017804D01*
X2598069Y20017814D01*
X2600000Y20017800D01*
X15857469Y20017800D01*
X15941845Y19959157D01*
X16073140Y19901796D01*
X16213076Y19871029D01*
X16356322Y19868029D01*
X16497423Y19892909D01*
X16631005Y19944722D01*
X16751979Y20021494D01*
X16855737Y20120301D01*
X16938327Y20237380D01*
X16996603Y20368271D01*
X17028346Y20507988D01*
X17030631Y20671639D01*
X17002802Y20812188D01*
X16948203Y20944656D01*
X16868914Y21063995D01*
X16767955Y21165661D01*
X16649172Y21245781D01*
X16517090Y21301303D01*
X16376738Y21330113D01*
X16233463Y21331114D01*
X16092723Y21304266D01*
X15959878Y21250593D01*
X15855363Y21182200D01*
X2841155Y21182200D01*
X2125425Y21897931D01*
X2102802Y22012188D01*
X2048203Y22144656D01*
X1968914Y22263995D01*
X1867955Y22365661D01*
X1749172Y22445781D01*
X1617090Y22501303D01*
X1476738Y22530113D01*
X1333463Y22531114D01*
X1192723Y22504266D01*
X1059878Y22450593D01*
X939988Y22372139D01*
X837620Y22271893D01*
X756673Y22153672D01*
X700229Y22021980D01*
X670440Y21881833D01*
X668440Y21738569D01*
X403200Y21738569D01*
X403200Y27946776D01*
X2666168Y27946776D01*
X2688577Y27824677D01*
X2734275Y27709257D01*
X2801522Y27604911D01*
X2887755Y27515614D01*
X2989691Y27444767D01*
X3103446Y27395068D01*
X3224688Y27368411D01*
X3289190Y27367060D01*
X7044800Y23611450D01*
X7044800Y22640242D01*
X7012747Y22608853D01*
X6942614Y22506426D01*
X6893711Y22392326D01*
X6867901Y22270901D01*
X6866168Y22146776D01*
X6888577Y22024677D01*
X6934275Y21909257D01*
X7001522Y21804911D01*
X7087755Y21715614D01*
X7189691Y21644767D01*
X7303446Y21595068D01*
X7424688Y21568411D01*
X7548798Y21565812D01*
X7671050Y21587368D01*
X7786787Y21632259D01*
X7891599Y21698776D01*
X7981497Y21784383D01*
X8053054Y21885822D01*
X8103545Y21999227D01*
X8131047Y22120280D01*
X8133027Y22262069D01*
X8108916Y22383842D01*
X8061610Y22498613D01*
X7992914Y22602010D01*
X7955200Y22639988D01*
X7955200Y23800000D01*
X7951095Y23841864D01*
X7947432Y23883735D01*
X7946765Y23886032D01*
X7946531Y23888415D01*
X7934372Y23928687D01*
X7922646Y23969047D01*
X7921545Y23971171D01*
X7920853Y23973463D01*
X7901113Y24010590D01*
X7881763Y24047920D01*
X7880270Y24049791D01*
X7879146Y24051904D01*
X7852566Y24084494D01*
X7826338Y24117349D01*
X7823053Y24120681D01*
X7822997Y24120749D01*
X7822934Y24120801D01*
X7821875Y24121875D01*
X3932320Y28011430D01*
X3933027Y28062069D01*
X3908916Y28183842D01*
X3861610Y28298613D01*
X3792914Y28402010D01*
X3705442Y28490095D01*
X3602527Y28559512D01*
X3488089Y28607617D01*
X3366487Y28632579D01*
X3242352Y28633445D01*
X3120413Y28610184D01*
X3005315Y28563681D01*
X2901440Y28495708D01*
X2812747Y28408853D01*
X2742614Y28306426D01*
X2693711Y28192326D01*
X2667901Y28070901D01*
X2666168Y27946776D01*
X403200Y27946776D01*
X403200Y28638569D01*
X568440Y28638569D01*
X594304Y28497645D01*
X647048Y28364428D01*
X724663Y28243994D01*
X824192Y28140928D01*
X941845Y28059157D01*
X1073140Y28001796D01*
X1213076Y27971029D01*
X1356322Y27968029D01*
X1497423Y27992909D01*
X1631005Y28044722D01*
X1751979Y28121494D01*
X1855737Y28220301D01*
X1938327Y28337380D01*
X1996603Y28468271D01*
X2028346Y28607988D01*
X2030631Y28771639D01*
X2002802Y28912188D01*
X1948203Y29044656D01*
X1882200Y29143998D01*
X1882200Y41758844D01*
X2198890Y42075535D01*
X2297423Y42092909D01*
X2431005Y42144722D01*
X2546158Y42217800D01*
X7600000Y42217800D01*
X7653522Y42223048D01*
X7707096Y42227735D01*
X7710037Y42228589D01*
X7713083Y42228888D01*
X7764539Y42244423D01*
X7816211Y42259435D01*
X7818931Y42260845D01*
X7821859Y42261729D01*
X7869334Y42286972D01*
X7917089Y42311726D01*
X7919480Y42313635D01*
X7922185Y42315073D01*
X7963896Y42349092D01*
X8005889Y42382615D01*
X8010153Y42386819D01*
X8010238Y42386888D01*
X8010303Y42386966D01*
X8011678Y42388322D01*
X11609205Y45985850D01*
X11609276Y45985920D01*
X11698888Y46075532D01*
X11797420Y46092906D01*
X11931002Y46144719D01*
X12051976Y46221491D01*
X12155734Y46320298D01*
X12238324Y46437377D01*
X12296600Y46568268D01*
X12328343Y46707985D01*
X12330628Y46871636D01*
X12302799Y47012185D01*
X12248200Y47144653D01*
X12168911Y47263992D01*
X12067952Y47365658D01*
X11949169Y47445778D01*
X11817087Y47501300D01*
X11676735Y47530110D01*
X11533460Y47531111D01*
X11392720Y47504263D01*
X11259875Y47450590D01*
X11139985Y47372136D01*
X11037617Y47271890D01*
X10956670Y47153669D01*
X10900226Y47021977D01*
X10873666Y46897022D01*
X10785920Y46809276D01*
X10785915Y46809270D01*
X7358844Y43382200D01*
X2543435Y43382200D01*
X2449172Y43445781D01*
X2317090Y43501303D01*
X2176738Y43530113D01*
X2033463Y43531114D01*
X1892723Y43504266D01*
X1759878Y43450593D01*
X1639988Y43372139D01*
X1537620Y43271893D01*
X1456673Y43153672D01*
X1400229Y43021980D01*
X1373669Y42897024D01*
X888322Y42411678D01*
X854179Y42370112D01*
X819619Y42328924D01*
X818143Y42326239D01*
X816201Y42323875D01*
X790801Y42276504D01*
X764879Y42229353D01*
X763953Y42226434D01*
X762507Y42223737D01*
X746792Y42172335D01*
X730522Y42121046D01*
X730181Y42118002D01*
X729286Y42115076D01*
X723854Y42061597D01*
X717857Y42008129D01*
X717815Y42002140D01*
X717804Y42002032D01*
X717814Y42001931D01*
X717800Y42000000D01*
X717800Y29142946D01*
X656673Y29053672D01*
X600229Y28921980D01*
X570440Y28781833D01*
X568440Y28638569D01*
X403200Y28638569D01*
X403200Y45026425D01*
X2122325Y46745548D01*
X2156841Y46738714D01*
X2192553Y46731123D01*
X2198152Y46730534D01*
X2314694Y46719107D01*
X2331605Y46719107D01*
X2348409Y46717222D01*
X2354039Y46717183D01*
X7754039Y46717184D01*
X7791116Y46720819D01*
X7828208Y46724064D01*
X7830247Y46724656D01*
X7832354Y46724863D01*
X7868005Y46735627D01*
X7903775Y46746019D01*
X7905655Y46746994D01*
X7907687Y46747607D01*
X7940595Y46765105D01*
X7973637Y46782232D01*
X7975294Y46783554D01*
X7977166Y46784550D01*
X8006024Y46808085D01*
X8035136Y46831325D01*
X8038081Y46834231D01*
X8038148Y46834285D01*
X8038199Y46834347D01*
X8039144Y46835279D01*
X11439145Y50235280D01*
X11439205Y50235353D01*
X11441129Y50237277D01*
X11446676Y50242902D01*
X11458201Y50257134D01*
X11471154Y50270087D01*
X11474697Y50274463D01*
X11543574Y50360745D01*
X11554785Y50378009D01*
X11788388Y50611612D01*
X11815152Y50651368D01*
X11825000Y50700000D01*
X11825000Y51719400D01*
X22028270Y51719400D01*
X23419400Y50328271D01*
X23419400Y49481993D01*
X23376108Y49439598D01*
X23300700Y49329468D01*
X23248120Y49206789D01*
X23220369Y49076233D01*
X23218506Y48942773D01*
X23242600Y48811494D01*
X23291734Y48687394D01*
X23364038Y48575201D01*
X23456755Y48479189D01*
X23566356Y48403015D01*
X23688665Y48349579D01*
X23819024Y48320918D01*
X23952468Y48318123D01*
X24083912Y48341300D01*
X24208352Y48389567D01*
X24321047Y48461085D01*
X24417704Y48553130D01*
X24494641Y48662197D01*
X24548930Y48784130D01*
X24578500Y48914285D01*
X24580629Y49066736D01*
X24554704Y49197667D01*
X24503842Y49321068D01*
X24429979Y49432240D01*
X24380600Y49481966D01*
X24380600Y50527342D01*
X24376271Y50571494D01*
X24372399Y50615749D01*
X24371693Y50618177D01*
X24371447Y50620691D01*
X24358614Y50663197D01*
X24346230Y50705821D01*
X24345068Y50708063D01*
X24344337Y50710484D01*
X24323489Y50749693D01*
X24303065Y50789096D01*
X24301488Y50791071D01*
X24300302Y50793302D01*
X24272229Y50827723D01*
X24244547Y50862399D01*
X24241081Y50865915D01*
X24241020Y50865989D01*
X24240951Y50866046D01*
X24239836Y50867177D01*
X24213915Y50893098D01*
X24321047Y50961085D01*
X24417704Y51053130D01*
X24494641Y51162197D01*
X24548930Y51284130D01*
X24578500Y51414285D01*
X24580629Y51566736D01*
X24554704Y51697667D01*
X24503842Y51821068D01*
X24429979Y51932240D01*
X24335930Y52026949D01*
X24225276Y52101586D01*
X24102233Y52153308D01*
X23971486Y52180147D01*
X23899019Y52180652D01*
X23887437Y52192235D01*
X23887431Y52192240D01*
X23082626Y52997046D01*
X23048305Y53025237D01*
X23014313Y53053760D01*
X23012098Y53054978D01*
X23010146Y53056581D01*
X22970987Y53077578D01*
X22932118Y53098946D01*
X22929715Y53099708D01*
X22927483Y53100905D01*
X22885008Y53113890D01*
X22842712Y53127308D01*
X22840198Y53127590D01*
X22837784Y53128328D01*
X22793637Y53132812D01*
X22749500Y53137763D01*
X22744561Y53137798D01*
X22744468Y53137807D01*
X22744382Y53137799D01*
X22742790Y53137810D01*
X11825000Y53137810D01*
X11825000Y54299999D01*
X11815813Y54347036D01*
X11788388Y54388387D01*
X10388388Y55788387D01*
X10348632Y55815151D01*
X10300000Y55824999D01*
X2251777Y55825000D01*
X403200Y57673576D01*
X403200Y58333420D01*
X535253Y58196675D01*
X716934Y58070404D01*
X919680Y57981826D01*
X1135770Y57934316D01*
X1356973Y57929682D01*
X1574863Y57968102D01*
X1781141Y58048112D01*
X1967950Y58166665D01*
X2128174Y58319244D01*
X2255711Y58500038D01*
X2345702Y58702162D01*
X2394720Y58917915D01*
X2394851Y58927301D01*
X6419726Y58927301D01*
X6475597Y58622884D01*
X6589531Y58335118D01*
X6757191Y58074961D01*
X6972188Y57852325D01*
X7226335Y57675689D01*
X7509950Y57551780D01*
X7812231Y57485320D01*
X8121664Y57478838D01*
X8426463Y57532582D01*
X8715018Y57644505D01*
X8976338Y57810344D01*
X9200470Y58023782D01*
X9341567Y58223800D01*
X22661271Y58223800D01*
X22757191Y58074961D01*
X22972188Y57852325D01*
X23226335Y57675689D01*
X23509950Y57551780D01*
X23812231Y57485320D01*
X24121664Y57478838D01*
X24426463Y57532582D01*
X24715018Y57644505D01*
X24976338Y57810344D01*
X25200470Y58023782D01*
X25378876Y58276689D01*
X25504762Y58559432D01*
X25573331Y58861242D01*
X25578267Y59214750D01*
X25518152Y59518357D01*
X25400210Y59804505D01*
X25228935Y60062295D01*
X25010850Y60281908D01*
X24754262Y60454978D01*
X24468944Y60574915D01*
X24165765Y60637149D01*
X23856272Y60639309D01*
X23552253Y60581315D01*
X23265288Y60465374D01*
X23006309Y60295902D01*
X22785179Y60079356D01*
X22659770Y59896200D01*
X9339288Y59896200D01*
X9228935Y60062295D01*
X9010850Y60281908D01*
X8754262Y60454978D01*
X8468944Y60574915D01*
X8165765Y60637149D01*
X7856272Y60639309D01*
X7552253Y60581315D01*
X7265288Y60465374D01*
X7006309Y60295902D01*
X6785179Y60079356D01*
X6610321Y59823982D01*
X6488396Y59539509D01*
X6424047Y59236771D01*
X6419726Y58927301D01*
X2394851Y58927301D01*
X2398248Y59170626D01*
X2355274Y59387663D01*
X2270961Y59592221D01*
X2148523Y59776506D01*
X1992621Y59933499D01*
X1809196Y60057222D01*
X1605232Y60142960D01*
X1388500Y60187449D01*
X1167254Y60188993D01*
X949921Y60147535D01*
X744780Y60064653D01*
X559645Y59943503D01*
X403200Y59790301D01*
X403200Y63958904D01*
X1178201Y63958904D01*
X1178201Y63641096D01*
X1200899Y63409608D01*
X1268127Y63186936D01*
X1377325Y62981564D01*
X1524335Y62801313D01*
X1703555Y62653049D01*
X1908160Y62542419D01*
X2130356Y62473638D01*
X2361681Y62449325D01*
X2593322Y62470406D01*
X2816457Y62536078D01*
X3022587Y62643840D01*
X3203860Y62789587D01*
X3353371Y62967768D01*
X3465426Y63171596D01*
X3535757Y63393307D01*
X3561685Y63624456D01*
X3561801Y63641096D01*
X3561801Y63958904D01*
X3718201Y63958904D01*
X3718201Y63641096D01*
X3740899Y63409608D01*
X3808127Y63186936D01*
X3917325Y62981564D01*
X4064335Y62801313D01*
X4243555Y62653049D01*
X4448160Y62542419D01*
X4670356Y62473638D01*
X4901681Y62449325D01*
X5133322Y62470406D01*
X5356457Y62536078D01*
X5562587Y62643840D01*
X5743860Y62789587D01*
X5893371Y62967768D01*
X6005426Y63171596D01*
X6075757Y63393307D01*
X6101685Y63624456D01*
X6101801Y63641096D01*
X6101801Y63798000D01*
X6258201Y63798000D01*
X6258201Y63645600D01*
X6281491Y63413130D01*
X6349686Y63189670D01*
X6460166Y62983808D01*
X6608685Y62803455D01*
X6789535Y62655542D01*
X6995767Y62545754D01*
X7219454Y62478309D01*
X7261587Y62470788D01*
X7448001Y62537852D01*
X7448001Y63798000D01*
X7452001Y63798000D01*
X7452001Y62537852D01*
X7638415Y62470788D01*
X7680548Y62478309D01*
X7904235Y62545754D01*
X8110467Y62655542D01*
X8291317Y62803455D01*
X8439836Y62983808D01*
X8550316Y63189670D01*
X8618511Y63413130D01*
X8641801Y63645600D01*
X8641801Y63798000D01*
X7452001Y63798000D01*
X7448001Y63798000D01*
X6258201Y63798000D01*
X6101801Y63798000D01*
X6101801Y63954400D01*
X6258201Y63954400D01*
X6258201Y63802000D01*
X7448001Y63802000D01*
X7448001Y65062148D01*
X7452001Y65062148D01*
X7452001Y63802000D01*
X8641801Y63802000D01*
X8641801Y63954400D01*
X8618511Y64186870D01*
X8550316Y64410330D01*
X8439836Y64616192D01*
X8291317Y64796545D01*
X8267530Y64816000D01*
X8796613Y64816000D01*
X8796613Y62784000D01*
X8800781Y62731735D01*
X8828233Y62643089D01*
X8879295Y62565600D01*
X8949922Y62505404D01*
X9034524Y62467269D01*
X9126401Y62454212D01*
X10853601Y62454212D01*
X10905866Y62458380D01*
X10994512Y62485832D01*
X11072001Y62536894D01*
X11132197Y62607521D01*
X11170332Y62692123D01*
X11183389Y62784000D01*
X11183389Y64816000D01*
X11179221Y64868265D01*
X11151769Y64956911D01*
X11100707Y65034400D01*
X11030080Y65094596D01*
X10945478Y65132731D01*
X10853601Y65145788D01*
X9126401Y65145788D01*
X9074136Y65141620D01*
X8985490Y65114168D01*
X8908001Y65063106D01*
X8847805Y64992479D01*
X8809670Y64907877D01*
X8796613Y64816000D01*
X8267530Y64816000D01*
X8110467Y64944458D01*
X7904235Y65054246D01*
X7680548Y65121691D01*
X7638415Y65129212D01*
X7452001Y65062148D01*
X7448001Y65062148D01*
X7261587Y65129212D01*
X7219454Y65121691D01*
X6995767Y65054246D01*
X6789535Y64944458D01*
X6608685Y64796545D01*
X6460166Y64616192D01*
X6349686Y64410330D01*
X6281491Y64186870D01*
X6258201Y63954400D01*
X6101801Y63954400D01*
X6101801Y63958904D01*
X6079103Y64190392D01*
X6011875Y64413064D01*
X5902677Y64618436D01*
X5755667Y64798687D01*
X5576447Y64946951D01*
X5371842Y65057581D01*
X5149646Y65126362D01*
X4918321Y65150675D01*
X4686680Y65129594D01*
X4463545Y65063922D01*
X4257415Y64956160D01*
X4076142Y64810413D01*
X3926631Y64632232D01*
X3814576Y64428404D01*
X3744245Y64206693D01*
X3718317Y63975544D01*
X3718201Y63958904D01*
X3561801Y63958904D01*
X3539103Y64190392D01*
X3471875Y64413064D01*
X3362677Y64618436D01*
X3215667Y64798687D01*
X3036447Y64946951D01*
X2831842Y65057581D01*
X2609646Y65126362D01*
X2378321Y65150675D01*
X2146680Y65129594D01*
X1923545Y65063922D01*
X1717415Y64956160D01*
X1536142Y64810413D01*
X1386631Y64632232D01*
X1274576Y64428404D01*
X1204245Y64206693D01*
X1178317Y63975544D01*
X1178201Y63958904D01*
X403200Y63958904D01*
X403200Y64480278D01*
X425986Y64712664D01*
X487743Y64917217D01*
X588063Y65105892D01*
X723113Y65271479D01*
X887758Y65407685D01*
X1075720Y65509316D01*
X1279846Y65572505D01*
X1511015Y65596801D01*
X14141799Y65596799D01*
M02*
