M48
METRIC,TZ
T1C0.300
T2C0.330
T3C0.400
T4C0.500
T5C1.016
T6C1.200
T7C1.600
%
G90
G05
T1
X2800Y56400
X3150Y4200
X3300Y28000
X5400Y17300
X7341Y13800
X7500Y22200
X18800Y6400
X19250Y11350
X19480Y15780
X19600Y14100
X24100Y28200
X24250Y14700
X24500Y12150
X24700Y49600
X24700Y48400
X26000Y28200
X27000Y26100
X29500Y8800
X30000Y49000
X30000Y48400
X34100Y43300
X34400Y28600
X35100Y23650
X35300Y40900
X35750Y23650
X35800Y28600
X35900Y38300
T2
X21400Y13650
X21400Y12150
X21900Y12900
X22400Y13650
X22400Y12150
T3
X3050Y33600
X3050Y32400
X6400Y50000
X7400Y61350
X7400Y1400
X8600Y61350
X8600Y1400
X8700Y51100
X10500Y11100
X11700Y11100
X12250Y18950
X12900Y11100
X13350Y18950
X17950Y20700
X23400Y61600
X23400Y1400
X23900Y51500
X23900Y49000
X24600Y61600
X24600Y1400
X26850Y22650
X27300Y39700
X27300Y38600
X27300Y37500
X29850Y22650
X32200Y38600
X32200Y34550
X32200Y32350
X32800Y29100
X33200Y19500
X33600Y46500
X34000Y20300
X34400Y45700
T4
X1300Y28700
X1400Y21800
X2100Y42800
X11600Y46800
X16300Y20600
T5
X2370Y63800
X4910Y63800
X7450Y63800
X9990Y63800
T6
X8000Y59060
X8000Y4200
X24000Y59060
X24000Y4200
T7
X1270Y59060
X30730Y4200
T0
M30
